<svg xmlns="http://www.w3.org/2000/svg" width="530" height="237" viewBox="0 0 530 237" fill="none"><path d="M16.6 39.2313H10.92L1.28 11.6313H6.04L13.84 35.8713L21.84 11.6313H26.52L16.6 39.2313ZM36.3638 17.4313C43.4838 17.4313 47.1238 22.3913 47.1238 28.5913C47.1238 34.7913 43.4838 39.7913 36.3638 39.7913C29.2038 39.7913 25.6038 34.7913 25.6038 28.5913C25.6038 22.3913 29.2038 17.4313 36.3638 17.4313ZM36.3638 36.5913C40.2038 36.5913 42.4438 33.3913 42.4438 28.5913C42.4438 23.7913 40.2038 20.6313 36.3638 20.6313C32.4838 20.6313 30.2438 23.7913 30.2438 28.5913C30.2438 33.3913 32.4838 36.5913 36.3638 36.5913ZM59.2728 17.4313C64.6328 17.4313 68.0328 20.6713 68.5528 25.3513H64.1128C63.4728 22.1113 61.7528 20.6313 59.1528 20.6313C56.0728 20.6313 53.6328 23.0713 53.6328 28.3913C53.6328 34.1513 56.0328 36.5913 58.9928 36.5913C61.5128 36.5913 63.3128 35.0713 63.9528 32.1913H68.4328C67.4328 37.2713 63.7528 39.7913 58.7528 39.7913C53.1928 39.7913 48.9928 36.2713 48.9928 28.7113C48.9928 21.4713 53.7128 17.4313 59.2728 17.4313ZM79.1906 16.1113H76.2706L78.9106 11.5513H82.1506L84.7906 16.1113H81.8306L80.5106 13.5113L79.1906 16.1113ZM90.2306 28.0713C90.2306 28.4713 90.2306 29.0713 90.1506 29.8313H74.9106C75.2706 34.9113 77.5906 36.5913 80.4706 36.5913C83.0306 36.5913 85.0306 35.0313 85.4706 32.3513H89.9106C88.9906 37.3913 84.9506 39.7913 80.3106 39.7913C74.6306 39.7913 70.3506 36.1913 70.3506 28.6713C70.3506 21.9513 74.6306 17.4313 80.7506 17.4313C86.9106 17.4313 90.2306 22.0713 90.2306 28.0713ZM80.5906 20.6313C77.5906 20.6313 75.4306 22.6713 74.9506 26.7513H85.7106C85.3906 22.8313 83.6706 20.6313 80.5906 20.6313ZM120.614 23.5113C120.694 24.5913 120.734 25.5513 120.734 27.2713V39.2313H116.334V27.7513C116.334 26.7513 116.334 25.8313 116.254 24.7513C116.054 22.3513 114.774 20.6713 111.774 20.6713C108.734 20.6713 106.254 23.0713 106.254 29.7113V39.2313H101.854V17.9913H106.254V21.5113L107.694 19.0713C109.374 17.7913 110.934 17.4313 113.054 17.4313C117.614 17.4313 120.214 19.7913 120.614 23.5113ZM131.712 14.5913C131.312 14.5913 131.072 14.8313 131.072 15.4713H128.992C128.992 12.8713 129.872 12.0313 131.432 12.0313C132.312 12.0313 132.952 12.1513 134.112 12.5913C135.072 12.9513 135.552 13.0713 135.872 13.0713C136.312 13.0713 136.512 12.8313 136.512 12.1513H138.632C138.632 14.7913 137.752 15.6313 136.152 15.6313C135.312 15.6313 134.672 15.4713 133.472 15.0713C132.512 14.7113 132.072 14.5913 131.712 14.5913ZM137.952 39.2313L137.552 36.1513L136.472 38.4313C135.032 39.4313 133.192 39.7913 131.192 39.7913C127.432 39.7913 124.352 37.6313 124.352 33.6713C124.352 28.9513 128.112 26.3913 136.152 26.3913H137.512V25.8713C137.512 25.0713 137.512 24.3513 137.432 23.5513C137.312 21.8313 136.232 20.6313 133.712 20.6313C131.152 20.6313 129.832 22.0713 129.592 24.7113H125.192C125.472 20.0713 128.952 17.4313 133.792 17.4313C139.272 17.4313 141.432 19.7513 141.792 23.3513C141.872 24.2313 141.912 25.3513 141.912 26.3513V33.8313C141.912 35.4313 141.992 36.8713 142.312 39.2313H137.952ZM132.792 36.5913C135.552 36.5913 137.512 34.7113 137.512 31.2713V29.3113C132.352 28.9113 128.992 30.0713 128.992 33.3113C128.992 35.5513 130.472 36.5913 132.792 36.5913ZM156.268 17.4313C163.388 17.4313 167.028 22.3913 167.028 28.5913C167.028 34.7913 163.388 39.7913 156.268 39.7913C149.108 39.7913 145.508 34.7913 145.508 28.5913C145.508 22.3913 149.108 17.4313 156.268 17.4313ZM156.268 36.5913C160.108 36.5913 162.348 33.3913 162.348 28.5913C162.348 23.7913 160.108 20.6313 156.268 20.6313C152.388 20.6313 150.148 23.7913 150.148 28.5913C150.148 33.3913 152.388 36.5913 156.268 36.5913ZM189.9 17.4313C195.98 17.4313 199.46 22.0313 199.46 28.2313C199.46 36.0313 194.66 39.7913 189.18 39.7913C187.42 39.7913 185.22 39.3113 184.14 38.4713L182.74 36.3513V47.0713H178.34V17.9913H182.74V21.3113L184.34 19.0313C185.54 18.0313 187.74 17.4313 189.9 17.4313ZM188.66 36.5913C192.18 36.5913 194.82 33.9113 194.82 28.6313C194.82 24.0313 192.7 20.6313 188.86 20.6313C185.58 20.6313 182.74 22.7113 182.74 28.3913V29.4713C182.74 34.6713 185.86 36.5913 188.66 36.5913ZM212.459 17.4713C213.059 17.4713 213.499 17.5513 213.939 17.7113V21.1513C209.899 20.8713 207.379 22.9513 207.379 28.1913V39.2313H202.979V17.9913H207.379V21.5913L209.179 18.6713C210.139 17.9113 211.379 17.4713 212.459 17.4713ZM234.609 28.0713C234.609 28.4713 234.609 29.0713 234.529 29.8313H219.289C219.649 34.9113 221.969 36.5913 224.849 36.5913C227.409 36.5913 229.409 35.0313 229.849 32.3513H234.289C233.369 37.3913 229.329 39.7913 224.689 39.7913C219.009 39.7913 214.729 36.1913 214.729 28.6713C214.729 21.9513 219.009 17.4313 225.129 17.4313C231.289 17.4313 234.609 22.0713 234.609 28.0713ZM224.969 20.6313C221.969 20.6313 219.809 22.6713 219.329 26.7513H230.089C229.769 22.8313 228.049 20.6313 224.969 20.6313ZM247.07 17.4313C252.43 17.4313 255.83 20.6713 256.35 25.3513H251.91C251.27 22.1113 249.55 20.6313 246.95 20.6313C243.87 20.6313 241.43 23.0713 241.43 28.3913C241.43 34.1513 243.83 36.5913 246.79 36.5913C249.31 36.5913 251.11 35.0713 251.75 32.1913H256.23C255.23 37.2713 251.55 39.7913 246.55 39.7913C240.99 39.7913 236.79 36.2713 236.79 28.7113C236.79 21.4713 241.51 17.4313 247.07 17.4313ZM261.947 10.5913C263.427 10.5913 264.547 11.6713 264.547 13.1113C264.547 14.5913 263.427 15.6713 261.947 15.6713C260.467 15.6713 259.387 14.5913 259.387 13.1113C259.387 11.6713 260.467 10.5913 261.947 10.5913ZM264.147 39.2313H259.747V17.9913H264.147V39.2313ZM276.227 17.4313C281.107 17.4313 283.827 20.1913 284.307 24.0713H279.827C279.387 21.8313 278.067 20.5113 275.907 20.5113C273.827 20.5113 272.827 21.6713 272.827 23.2713C272.827 25.1913 274.387 25.9913 277.547 26.8313C282.187 28.0313 284.627 29.8713 284.627 33.6313C284.627 37.7513 280.987 39.7913 276.347 39.7913C271.627 39.7913 268.147 37.6713 267.547 32.8713H271.987C272.507 35.5913 274.307 36.6713 276.507 36.6713C278.547 36.6713 280.187 35.7913 280.187 33.9513C280.187 32.1113 278.747 31.1113 275.147 30.1513C271.267 29.1513 268.387 27.5113 268.387 23.7913C268.387 19.8313 271.507 17.4313 276.227 17.4313ZM300.25 39.2313L299.85 36.1513L298.77 38.4313C297.33 39.4313 295.49 39.7913 293.49 39.7913C289.73 39.7913 286.65 37.6313 286.65 33.6713C286.65 28.9513 290.41 26.3913 298.45 26.3913H299.81V25.8713C299.81 25.0713 299.81 24.3513 299.73 23.5513C299.61 21.8313 298.53 20.6313 296.01 20.6313C293.45 20.6313 292.13 22.0713 291.89 24.7113H287.49C287.77 20.0713 291.25 17.4313 296.09 17.4313C301.57 17.4313 303.73 19.7513 304.09 23.3513C304.17 24.2313 304.21 25.3513 304.21 26.3513V33.8313C304.21 35.4313 304.29 36.8713 304.61 39.2313H300.25ZM295.09 36.5913C297.85 36.5913 299.81 34.7113 299.81 31.2713V29.3113C294.65 28.9113 291.29 30.0713 291.29 33.3113C291.29 35.5513 292.77 36.5913 295.09 36.5913ZM329.489 39.2313L329.089 36.1513L328.009 38.4313C326.569 39.4313 324.729 39.7913 322.729 39.7913C318.969 39.7913 315.889 37.6313 315.889 33.6713C315.889 28.9513 319.649 26.3913 327.689 26.3913H329.049V25.8713C329.049 25.0713 329.049 24.3513 328.969 23.5513C328.849 21.8313 327.769 20.6313 325.249 20.6313C322.689 20.6313 321.369 22.0713 321.129 24.7113H316.729C317.009 20.0713 320.489 17.4313 325.329 17.4313C330.809 17.4313 332.969 19.7513 333.329 23.3513C333.409 24.2313 333.449 25.3513 333.449 26.3513V33.8313C333.449 35.4313 333.529 36.8713 333.849 39.2313H329.489ZM324.329 36.5913C327.089 36.5913 329.049 34.7113 329.049 31.2713V29.3113C323.889 28.9113 320.529 30.0713 320.529 33.3113C320.529 35.5513 322.009 36.5913 324.329 36.5913ZM348.126 17.4713C348.726 17.4713 349.166 17.5513 349.606 17.7113V21.1513C345.566 20.8713 343.046 22.9513 343.046 28.1913V39.2313H338.646V17.9913H343.046V21.5913L344.846 18.6713C345.806 17.9113 347.046 17.4713 348.126 17.4713ZM361.827 17.4713C362.427 17.4713 362.867 17.5513 363.307 17.7113V21.1513C359.267 20.8713 356.747 22.9513 356.747 28.1913V39.2313H352.347V17.9913H356.747V21.5913L358.547 18.6713C359.507 17.9113 360.747 17.4713 361.827 17.4713ZM368.249 10.5913C369.729 10.5913 370.849 11.6713 370.849 13.1113C370.849 14.5913 369.729 15.6713 368.249 15.6713C366.769 15.6713 365.689 14.5913 365.689 13.1113C365.689 11.6713 366.769 10.5913 368.249 10.5913ZM370.449 39.2313H366.049V17.9913H370.449V39.2313ZM382.528 17.4313C387.408 17.4313 390.128 20.1913 390.608 24.0713H386.128C385.688 21.8313 384.368 20.5113 382.208 20.5113C380.128 20.5113 379.128 21.6713 379.128 23.2713C379.128 25.1913 380.688 25.9913 383.848 26.8313C388.488 28.0313 390.928 29.8713 390.928 33.6313C390.928 37.7513 387.288 39.7913 382.648 39.7913C377.928 39.7913 374.448 37.6713 373.848 32.8713H378.288C378.808 35.5913 380.608 36.6713 382.808 36.6713C384.848 36.6713 386.488 35.7913 386.488 33.9513C386.488 32.1113 385.048 31.1113 381.448 30.1513C377.568 29.1513 374.688 27.5113 374.688 23.7913C374.688 19.8313 377.808 17.4313 382.528 17.4313ZM402.992 17.4313C408.352 17.4313 411.752 20.6713 412.272 25.3513H407.832C407.192 22.1113 405.472 20.6313 402.872 20.6313C399.792 20.6313 397.352 23.0713 397.352 28.3913C397.352 34.1513 399.752 36.5913 402.712 36.5913C405.232 36.5913 407.032 35.0713 407.672 32.1913H412.152C411.152 37.2713 407.472 39.7913 402.472 39.7913C396.912 39.7913 392.712 36.2713 392.712 28.7113C392.712 21.4713 397.432 17.4313 402.992 17.4313ZM427.909 39.2313L427.509 36.1513L426.429 38.4313C424.989 39.4313 423.149 39.7913 421.149 39.7913C417.389 39.7913 414.309 37.6313 414.309 33.6713C414.309 28.9513 418.069 26.3913 426.109 26.3913H427.469V25.8713C427.469 25.0713 427.469 24.3513 427.389 23.5513C427.269 21.8313 426.189 20.6313 423.669 20.6313C421.109 20.6313 419.789 22.0713 419.549 24.7113H415.149C415.429 20.0713 418.909 17.4313 423.749 17.4313C429.229 17.4313 431.389 19.7513 431.749 23.3513C431.829 24.2313 431.869 25.3513 431.869 26.3513V33.8313C431.869 35.4313 431.949 36.8713 432.269 39.2313H427.909ZM422.749 36.5913C425.509 36.5913 427.469 34.7113 427.469 31.2713V29.3113C422.309 28.9113 418.949 30.0713 418.949 33.3113C418.949 35.5513 420.429 36.5913 422.749 36.5913ZM446.546 17.4713C447.146 17.4713 447.586 17.5513 448.026 17.7113V21.1513C443.986 20.8713 441.466 22.9513 441.466 28.1913V39.2313H437.066V17.9913H441.466V21.5913L443.266 18.6713C444.226 17.9113 445.466 17.4713 446.546 17.4713ZM467.77 17.4313C474.89 17.4313 478.53 22.3913 478.53 28.5913C478.53 34.7913 474.89 39.7913 467.77 39.7913C460.61 39.7913 457.01 34.7913 457.01 28.5913C457.01 22.3913 460.61 17.4313 467.77 17.4313ZM467.77 36.5913C471.61 36.5913 473.85 33.3913 473.85 28.5913C473.85 23.7913 471.61 20.6313 467.77 20.6313C463.89 20.6313 461.65 23.7913 461.65 28.5913C461.65 33.3913 463.89 36.5913 467.77 36.5913ZM22.28 65.9913V95.0713H17.88V83.8713L16.28 86.1913C15.08 87.1513 12.88 87.7913 10.72 87.7913C4.64 87.7913 1.16 83.1913 1.16 76.9513C1.16 69.1913 5.96 65.4313 11.44 65.4313C13.2 65.4313 15.4 65.9113 16.48 66.7513L17.88 68.8713V65.9913H22.28ZM11.72 84.5913C15.04 84.5913 17.88 82.5113 17.88 76.8313V75.7113C17.88 70.5513 14.76 68.6313 11.92 68.6313C8.44 68.6313 5.8 71.3113 5.8 76.5913C5.8 81.1913 7.92 84.5913 11.72 84.5913ZM46.0363 65.9913V87.2313H41.6763V83.5913L40.1963 86.2313C38.5163 87.4313 36.9563 87.7913 34.8363 87.7913C30.4363 87.7913 27.8763 85.3113 27.3963 82.3913C27.2363 81.3113 27.1963 80.3513 27.1963 78.6313V65.9913H31.5563V77.7513C31.5563 78.4313 31.5963 79.5913 31.7163 80.6713C32.0363 82.9913 33.5563 84.5113 36.2763 84.5113C39.3563 84.5113 41.6763 82.1513 41.6763 75.9913V65.9913H46.0363ZM69.5369 76.0713C69.5369 76.4713 69.5369 77.0713 69.4569 77.8313H54.2169C54.5769 82.9113 56.8969 84.5913 59.7769 84.5913C62.3369 84.5913 64.3369 83.0313 64.7769 80.3513H69.2169C68.2969 85.3913 64.2569 87.7913 59.6169 87.7913C53.9369 87.7913 49.6569 84.1913 49.6569 76.6713C49.6569 69.9513 53.9369 65.4313 60.0569 65.4313C66.2169 65.4313 69.5369 70.0713 69.5369 76.0713ZM59.8969 68.6313C56.8969 68.6313 54.7369 70.6713 54.2569 74.7513H65.0169C64.6969 70.8313 62.9769 68.6313 59.8969 68.6313ZM99.92 71.5113C100 72.5913 100.04 73.5513 100.04 75.2713V87.2313H95.64V75.7513C95.64 74.7513 95.64 73.8313 95.56 72.7513C95.36 70.3513 94.08 68.6713 91.08 68.6713C88.04 68.6713 85.56 71.0713 85.56 77.7113V87.2313H81.16V65.9913H85.56V69.5113L87 67.0713C88.68 65.7913 90.24 65.4313 92.36 65.4313C96.92 65.4313 99.52 67.7913 99.92 71.5113ZM111.018 62.5913C110.618 62.5913 110.378 62.8313 110.378 63.4713H108.298C108.298 60.8713 109.178 60.0313 110.738 60.0313C111.618 60.0313 112.258 60.1513 113.418 60.5913C114.378 60.9513 114.858 61.0713 115.178 61.0713C115.618 61.0713 115.818 60.8313 115.818 60.1513H117.938C117.938 62.7913 117.058 63.6313 115.458 63.6313C114.618 63.6313 113.978 63.4713 112.778 63.0713C111.818 62.7113 111.378 62.5913 111.018 62.5913ZM117.258 87.2313L116.858 84.1513L115.778 86.4313C114.338 87.4313 112.498 87.7913 110.498 87.7913C106.738 87.7913 103.658 85.6313 103.658 81.6713C103.658 76.9513 107.418 74.3913 115.458 74.3913H116.818V73.8713C116.818 73.0713 116.818 72.3513 116.738 71.5513C116.618 69.8313 115.538 68.6313 113.018 68.6313C110.458 68.6313 109.138 70.0713 108.898 72.7113H104.498C104.778 68.0713 108.258 65.4313 113.098 65.4313C118.578 65.4313 120.738 67.7513 121.098 71.3513C121.178 72.2313 121.218 73.3513 121.218 74.3513V81.8313C121.218 83.4313 121.298 84.8713 121.618 87.2313H117.258ZM112.098 84.5913C114.858 84.5913 116.818 82.7113 116.818 79.2713V77.3113C111.658 76.9113 108.298 78.0713 108.298 81.3113C108.298 83.5513 109.778 84.5913 112.098 84.5913ZM135.575 65.4313C142.695 65.4313 146.335 70.3913 146.335 76.5913C146.335 82.7913 142.695 87.7913 135.575 87.7913C128.415 87.7913 124.815 82.7913 124.815 76.5913C124.815 70.3913 128.415 65.4313 135.575 65.4313ZM135.575 84.5913C139.415 84.5913 141.655 81.3913 141.655 76.5913C141.655 71.7913 139.415 68.6313 135.575 68.6313C131.695 68.6313 129.455 71.7913 129.455 76.5913C129.455 81.3913 131.695 84.5913 135.575 84.5913ZM162.886 69.2313V80.3513C162.886 81.0713 162.886 81.5513 162.926 82.1113C163.086 84.1913 163.886 84.6313 166.766 84.3513V87.3913C165.646 87.5513 164.606 87.6313 163.526 87.6313C160.206 87.6313 158.766 86.3913 158.566 83.5913C158.526 82.8713 158.526 81.9513 158.526 80.7513V69.2313H155.526V66.1513H158.526V61.0713H162.886V66.1513H167.046V69.2313H162.886ZM188.456 76.0713C188.456 76.4713 188.456 77.0713 188.376 77.8313H173.136C173.496 82.9113 175.816 84.5913 178.696 84.5913C181.256 84.5913 183.256 83.0313 183.696 80.3513H188.136C187.216 85.3913 183.176 87.7913 178.536 87.7913C172.856 87.7913 168.576 84.1913 168.576 76.6713C168.576 69.9513 172.856 65.4313 178.976 65.4313C185.136 65.4313 188.456 70.0713 188.456 76.0713ZM178.816 68.6313C175.816 68.6313 173.656 70.6713 173.176 74.7513H183.936C183.616 70.8313 181.896 68.6313 178.816 68.6313ZM221.997 70.6313C222.157 71.7113 222.197 72.6713 222.197 74.3913V87.2313H217.797V75.9913C217.797 74.3913 217.757 73.2313 217.637 72.1513C217.357 69.8713 215.957 68.6713 213.677 68.6713C211.117 68.6713 209.397 70.7913 209.397 76.5513V87.2313H205.037V75.9913C205.037 74.3913 204.997 73.2313 204.877 72.1513C204.557 69.8713 203.197 68.6713 200.917 68.6713C198.317 68.6713 196.637 70.7913 196.637 76.5513V87.2313H192.237V65.9913H196.637V69.1513L198.077 66.6713C199.197 65.7913 200.677 65.4313 202.597 65.4313C205.957 65.4313 208.077 67.1113 208.877 69.4713L210.837 66.6713C211.997 65.7913 213.477 65.4313 215.357 65.4313C219.277 65.4313 221.517 67.7113 221.997 70.6313ZM246.551 65.4313C252.631 65.4313 256.111 70.0313 256.111 76.2313C256.111 84.0313 251.311 87.7913 245.831 87.7913C244.071 87.7913 241.871 87.3113 240.791 86.4713L239.391 84.3513V95.0713H234.991V65.9913H239.391V69.3113L240.991 67.0313C242.191 66.0313 244.391 65.4313 246.551 65.4313ZM245.311 84.5913C248.831 84.5913 251.471 81.9113 251.471 76.6313C251.471 72.0313 249.351 68.6313 245.511 68.6313C242.231 68.6313 239.391 70.7113 239.391 76.3913V77.4713C239.391 82.6713 242.511 84.5913 245.311 84.5913ZM271.87 87.2313L271.47 84.1513L270.39 86.4313C268.95 87.4313 267.11 87.7913 265.11 87.7913C261.35 87.7913 258.27 85.6313 258.27 81.6713C258.27 76.9513 262.03 74.3913 270.07 74.3913H271.43V73.8713C271.43 73.0713 271.43 72.3513 271.35 71.5513C271.23 69.8313 270.15 68.6313 267.63 68.6313C265.07 68.6313 263.75 70.0713 263.51 72.7113H259.11C259.39 68.0713 262.87 65.4313 267.71 65.4313C273.19 65.4313 275.35 67.7513 275.71 71.3513C275.79 72.2313 275.83 73.3513 275.83 74.3513V81.8313C275.83 83.4313 275.91 84.8713 276.23 87.2313H271.87ZM266.71 84.5913C269.47 84.5913 271.43 82.7113 271.43 79.2713V77.3113C266.27 76.9113 262.91 78.0713 262.91 81.3113C262.91 83.5513 264.39 84.5913 266.71 84.5913ZM290.507 65.4713C291.107 65.4713 291.547 65.5513 291.987 65.7113V69.1513C287.947 68.8713 285.427 70.9513 285.427 76.1913V87.2313H281.027V65.9913H285.427V69.5913L287.227 66.6713C288.187 65.9113 289.427 65.4713 290.507 65.4713ZM306.969 87.2313L306.569 84.1513L305.489 86.4313C304.049 87.4313 302.209 87.7913 300.209 87.7913C296.449 87.7913 293.369 85.6313 293.369 81.6713C293.369 76.9513 297.129 74.3913 305.169 74.3913H306.529V73.8713C306.529 73.0713 306.529 72.3513 306.449 71.5513C306.329 69.8313 305.249 68.6313 302.729 68.6313C300.169 68.6313 298.849 70.0713 298.609 72.7113H294.209C294.489 68.0713 297.969 65.4313 302.809 65.4313C308.289 65.4313 310.449 67.7513 310.809 71.3513C310.889 72.2313 310.929 73.3513 310.929 74.3513V81.8313C310.929 83.4313 311.009 84.8713 311.329 87.2313H306.969ZM301.809 84.5913C304.569 84.5913 306.529 82.7113 306.529 79.2713V77.3113C301.369 76.9113 298.009 78.0713 298.009 81.3113C298.009 83.5513 299.489 84.5913 301.809 84.5913ZM332.648 65.4313C338.008 65.4313 341.408 68.6713 341.928 73.3513H337.488C336.848 70.1113 335.128 68.6313 332.528 68.6313C329.448 68.6313 327.008 71.0713 327.008 76.3913C327.008 82.1513 329.408 84.5913 332.368 84.5913C334.888 84.5913 336.688 83.0713 337.328 80.1913H341.808C340.808 85.2713 337.128 87.7913 332.128 87.7913C326.568 87.7913 322.368 84.2713 322.368 76.7113C322.368 69.4713 327.088 65.4313 332.648 65.4313ZM354.486 65.4313C361.606 65.4313 365.246 70.3913 365.246 76.5913C365.246 82.7913 361.606 87.7913 354.486 87.7913C347.326 87.7913 343.726 82.7913 343.726 76.5913C343.726 70.3913 347.326 65.4313 354.486 65.4313ZM354.486 84.5913C358.326 84.5913 360.566 81.3913 360.566 76.5913C360.566 71.7913 358.326 68.6313 354.486 68.6313C350.606 68.6313 348.366 71.7913 348.366 76.5913C348.366 81.3913 350.606 84.5913 354.486 84.5913ZM387.475 71.5113C387.555 72.5913 387.595 73.5513 387.595 75.2713V87.2313H383.195V75.7513C383.195 74.7513 383.195 73.8313 383.115 72.7513C382.915 70.3513 381.635 68.6713 378.635 68.6713C375.595 68.6713 373.115 71.0713 373.115 77.7113V87.2313H368.715V65.9913H373.115V69.5113L374.555 67.0713C376.235 65.7913 377.795 65.4313 379.915 65.4313C384.475 65.4313 387.075 67.7913 387.475 71.5113ZM412.093 65.9913V95.0713H407.693V83.8713L406.093 86.1913C404.893 87.1513 402.693 87.7913 400.533 87.7913C394.453 87.7913 390.973 83.1913 390.973 76.9513C390.973 69.1913 395.773 65.4313 401.253 65.4313C403.013 65.4313 405.213 65.9113 406.293 66.7513L407.693 68.8713V65.9913H412.093ZM401.533 84.5913C404.853 84.5913 407.693 82.5113 407.693 76.8313V75.7113C407.693 70.5513 404.573 68.6313 401.733 68.6313C398.253 68.6313 395.613 71.3113 395.613 76.5913C395.613 81.1913 397.733 84.5913 401.533 84.5913ZM435.849 65.9913V87.2313H431.489V83.5913L430.009 86.2313C428.329 87.4313 426.769 87.7913 424.649 87.7913C420.249 87.7913 417.689 85.3113 417.209 82.3913C417.049 81.3113 417.009 80.3513 417.009 78.6313V65.9913H421.369V77.7513C421.369 78.4313 421.409 79.5913 421.529 80.6713C421.849 82.9913 423.369 84.5113 426.089 84.5113C429.169 84.5113 431.489 82.1513 431.489 75.9913V65.9913H435.849ZM443.269 58.5913C444.749 58.5913 445.869 59.6713 445.869 61.1113C445.869 62.5913 444.749 63.6713 443.269 63.6713C441.789 63.6713 440.709 62.5913 440.709 61.1113C440.709 59.6713 441.789 58.5913 443.269 58.5913ZM445.469 87.2313H441.069V65.9913H445.469V87.2313ZM457.548 65.4313C462.428 65.4313 465.148 68.1913 465.628 72.0713H461.148C460.708 69.8313 459.388 68.5113 457.228 68.5113C455.148 68.5113 454.148 69.6713 454.148 71.2713C454.148 73.1913 455.708 73.9913 458.868 74.8313C463.508 76.0313 465.948 77.8713 465.948 81.6313C465.948 85.7513 462.308 87.7913 457.668 87.7913C452.948 87.7913 449.468 85.6713 448.868 80.8713H453.308C453.828 83.5913 455.628 84.6713 457.828 84.6713C459.868 84.6713 461.508 83.7913 461.508 81.9513C461.508 80.1113 460.068 79.1113 456.468 78.1513C452.588 77.1513 449.708 75.5113 449.708 71.7913C449.708 67.8313 452.828 65.4313 457.548 65.4313ZM474.572 69.2313V80.3513C474.572 81.0713 474.572 81.5513 474.612 82.1113C474.772 84.1913 475.572 84.6313 478.452 84.3513V87.3913C477.332 87.5513 476.292 87.6313 475.212 87.6313C471.892 87.6313 470.452 86.3913 470.252 83.5913C470.212 82.8713 470.212 81.9513 470.212 80.7513V69.2313H467.212V66.1513H470.212V61.0713H474.572V66.1513H478.732V69.2313H474.572ZM494.57 87.2313L494.17 84.1513L493.09 86.4313C491.65 87.4313 489.81 87.7913 487.81 87.7913C484.05 87.7913 480.97 85.6313 480.97 81.6713C480.97 76.9513 484.73 74.3913 492.77 74.3913H494.13V73.8713C494.13 73.0713 494.13 72.3513 494.05 71.5513C493.93 69.8313 492.85 68.6313 490.33 68.6313C487.77 68.6313 486.45 70.0713 486.21 72.7113H481.81C482.09 68.0713 485.57 65.4313 490.41 65.4313C495.89 65.4313 498.05 67.7513 498.41 71.3513C498.49 72.2313 498.53 73.3513 498.53 74.3513V81.8313C498.53 83.4313 498.61 84.8713 498.93 87.2313H494.57ZM489.41 84.5913C492.17 84.5913 494.13 82.7113 494.13 79.2713V77.3113C488.97 76.9113 485.61 78.0713 485.61 81.3113C485.61 83.5513 487.09 84.5913 489.41 84.5913ZM513.207 65.4713C513.807 65.4713 514.247 65.5513 514.687 65.7113V69.1513C510.647 68.8713 508.127 70.9513 508.127 76.1913V87.2313H503.727V65.9913H508.127V69.5913L509.927 66.6713C510.887 65.9113 512.127 65.4713 513.207 65.4713ZM11.92 113.431C19.04 113.431 22.68 118.391 22.68 124.591C22.68 130.791 19.04 135.791 11.92 135.791C4.76 135.791 1.16 130.791 1.16 124.591C1.16 118.391 4.76 113.431 11.92 113.431ZM11.92 132.591C15.76 132.591 18 129.391 18 124.591C18 119.791 15.76 116.631 11.92 116.631C8.04 116.631 5.8 119.791 5.8 124.591C5.8 129.391 8.04 132.591 11.92 132.591ZM40.8313 113.431C45.7113 113.431 48.4313 116.191 48.9113 120.071H44.4313C43.9913 117.831 42.6713 116.511 40.5113 116.511C38.4313 116.511 37.4313 117.671 37.4313 119.271C37.4313 121.191 38.9913 121.991 42.1513 122.831C46.7913 124.031 49.2313 125.871 49.2313 129.631C49.2313 133.751 45.5913 135.791 40.9513 135.791C36.2313 135.791 32.7513 133.671 32.1513 128.871H36.5913C37.1113 131.591 38.9113 132.671 41.1113 132.671C43.1513 132.671 44.7913 131.791 44.7913 129.951C44.7913 128.111 43.3513 127.111 39.7513 126.151C35.8713 125.151 32.9913 123.511 32.9913 119.791C32.9913 115.831 36.1113 113.431 40.8313 113.431ZM70.8947 124.071C70.8947 124.471 70.8947 125.071 70.8147 125.831H55.5747C55.9347 130.911 58.2547 132.591 61.1347 132.591C63.6947 132.591 65.6947 131.031 66.1347 128.351H70.5747C69.6547 133.391 65.6147 135.791 60.9747 135.791C55.2947 135.791 51.0147 132.191 51.0147 124.671C51.0147 117.951 55.2947 113.431 61.4147 113.431C67.5747 113.431 70.8947 118.071 70.8947 124.071ZM61.2547 116.631C58.2547 116.631 56.0947 118.671 55.6147 122.751H66.3747C66.0547 118.831 64.3347 116.631 61.2547 116.631ZM93.1956 113.991V135.231H88.8356V131.591L87.3556 134.231C85.6756 135.431 84.1156 135.791 81.9956 135.791C77.5956 135.791 75.0356 133.311 74.5556 130.391C74.3956 129.311 74.3556 128.351 74.3556 126.631V113.991H78.7156V125.751C78.7156 126.431 78.7556 127.591 78.8756 128.671C79.1956 130.991 80.7156 132.511 83.4356 132.511C86.5156 132.511 88.8356 130.151 88.8356 123.991V113.991H93.1956ZM117.818 113.431C123.898 113.431 127.378 118.031 127.378 124.231C127.378 132.031 122.578 135.791 117.098 135.791C115.338 135.791 113.138 135.311 112.058 134.471L110.658 132.351V143.071H106.258V113.991H110.658V117.311L112.258 115.031C113.458 114.031 115.658 113.431 117.818 113.431ZM116.578 132.591C120.098 132.591 122.738 129.911 122.738 124.631C122.738 120.031 120.618 116.631 116.778 116.631C113.498 116.631 110.658 118.711 110.658 124.391V125.471C110.658 130.671 113.778 132.591 116.578 132.591ZM140.377 113.471C140.977 113.471 141.417 113.551 141.857 113.711V117.151C137.817 116.871 135.297 118.951 135.297 124.191V135.231H130.897V113.991H135.297V117.591L137.097 114.671C138.057 113.911 139.297 113.471 140.377 113.471ZM146.799 106.591C148.279 106.591 149.399 107.671 149.399 109.111C149.399 110.591 148.279 111.671 146.799 111.671C145.319 111.671 144.239 110.591 144.239 109.111C144.239 107.671 145.319 106.591 146.799 106.591ZM148.999 135.231H144.599V113.991H148.999V135.231ZM183.998 118.631C184.158 119.711 184.198 120.671 184.198 122.391V135.231H179.798V123.991C179.798 122.391 179.758 121.231 179.638 120.151C179.358 117.871 177.958 116.671 175.678 116.671C173.118 116.671 171.398 118.791 171.398 124.551V135.231H167.038V123.991C167.038 122.391 166.998 121.231 166.878 120.151C166.558 117.871 165.198 116.671 162.918 116.671C160.318 116.671 158.638 118.791 158.638 124.551V135.231H154.238V113.991H158.638V117.151L160.078 114.671C161.198 113.791 162.678 113.431 164.598 113.431C167.958 113.431 170.078 115.111 170.878 117.471L172.838 114.671C173.998 113.791 175.478 113.431 177.358 113.431C181.278 113.431 183.518 115.711 183.998 118.631ZM207.431 124.071C207.431 124.471 207.431 125.071 207.351 125.831H192.111C192.471 130.911 194.791 132.591 197.671 132.591C200.231 132.591 202.231 131.031 202.671 128.351H207.111C206.191 133.391 202.151 135.791 197.511 135.791C191.831 135.791 187.551 132.191 187.551 124.671C187.551 117.951 191.831 113.431 197.951 113.431C204.111 113.431 207.431 118.071 207.431 124.071ZM197.791 116.631C194.791 116.631 192.631 118.671 192.151 122.751H202.911C202.591 118.831 200.871 116.631 197.791 116.631ZM213.412 106.591C214.892 106.591 216.012 107.671 216.012 109.111C216.012 110.591 214.892 111.671 213.412 111.671C211.932 111.671 210.852 110.591 210.852 109.111C210.852 107.671 211.932 106.591 213.412 106.591ZM215.612 135.231H211.212V113.991H215.612V135.231ZM230.331 113.471C230.931 113.471 231.371 113.551 231.811 113.711V117.151C227.771 116.871 225.251 118.951 225.251 124.191V135.231H220.851V113.991H225.251V117.591L227.051 114.671C228.011 113.911 229.251 113.471 230.331 113.471ZM243.361 113.431C250.481 113.431 254.121 118.391 254.121 124.591C254.121 130.791 250.481 135.791 243.361 135.791C236.201 135.791 232.601 130.791 232.601 124.591C232.601 118.391 236.201 113.431 243.361 113.431ZM243.361 132.591C247.201 132.591 249.441 129.391 249.441 124.591C249.441 119.791 247.201 116.631 243.361 116.631C239.481 116.631 237.241 119.791 237.241 124.591C237.241 129.391 239.481 132.591 243.361 132.591ZM295.192 118.631C295.352 119.711 295.392 120.671 295.392 122.391V135.231H290.992V123.991C290.992 122.391 290.952 121.231 290.832 120.151C290.552 117.871 289.152 116.671 286.872 116.671C284.312 116.671 282.592 118.791 282.592 124.551V135.231H278.232V123.991C278.232 122.391 278.192 121.231 278.072 120.151C277.752 117.871 276.392 116.671 274.112 116.671C271.512 116.671 269.832 118.791 269.832 124.551V135.231H265.432V113.991H269.832V117.151L271.272 114.671C272.392 113.791 273.872 113.431 275.792 113.431C279.152 113.431 281.272 115.111 282.072 117.471L284.032 114.671C285.192 113.791 286.672 113.431 288.552 113.431C292.472 113.431 294.712 115.711 295.192 118.631ZM302.544 106.591C304.024 106.591 305.144 107.671 305.144 109.111C305.144 110.591 304.024 111.671 302.544 111.671C301.064 111.671 299.984 110.591 299.984 109.111C299.984 107.671 301.064 106.591 302.544 106.591ZM304.744 135.231H300.344V113.991H304.744V135.231ZM314.223 105.831V128.751C314.223 129.471 314.223 130.111 314.263 130.751C314.343 131.951 314.903 132.351 316.783 132.191V135.271C315.903 135.391 314.903 135.471 313.903 135.471C311.583 135.471 310.023 134.631 309.863 131.911C309.823 131.111 309.823 130.151 309.823 128.871V105.831H314.223ZM338.812 119.511C338.892 120.591 338.932 121.551 338.932 123.271V135.231H334.532V123.751C334.532 122.751 334.532 121.831 334.452 120.751C334.252 118.351 332.972 116.631 329.972 116.671C326.932 116.751 324.452 119.071 324.452 125.711V135.231H320.052V105.631H324.452V117.511L325.892 115.071C327.572 113.791 329.132 113.431 331.252 113.431C335.812 113.431 338.412 115.791 338.812 119.511ZM349.91 110.591C349.51 110.591 349.27 110.831 349.27 111.471H347.19C347.19 108.871 348.07 108.031 349.63 108.031C350.51 108.031 351.15 108.151 352.31 108.591C353.27 108.951 353.75 109.071 354.07 109.071C354.51 109.071 354.71 108.831 354.71 108.151H356.83C356.83 110.791 355.95 111.631 354.35 111.631C353.51 111.631 352.87 111.471 351.67 111.071C350.71 110.711 350.27 110.591 349.91 110.591ZM356.15 135.231L355.75 132.151L354.67 134.431C353.23 135.431 351.39 135.791 349.39 135.791C345.63 135.791 342.55 133.631 342.55 129.671C342.55 124.951 346.31 122.391 354.35 122.391H355.71V121.871C355.71 121.071 355.71 120.351 355.63 119.551C355.51 117.831 354.43 116.631 351.91 116.631C349.35 116.631 348.03 118.071 347.79 120.711H343.39C343.67 116.071 347.15 113.431 351.99 113.431C357.47 113.431 359.63 115.751 359.99 119.351C360.07 120.231 360.11 121.351 360.11 122.351V129.831C360.11 131.431 360.19 132.871 360.51 135.231H356.15ZM350.99 132.591C353.75 132.591 355.71 130.711 355.71 127.271V125.311C350.55 124.911 347.19 126.071 347.19 129.311C347.19 131.551 348.67 132.591 350.99 132.591ZM374.467 113.431C381.587 113.431 385.227 118.391 385.227 124.591C385.227 130.791 381.587 135.791 374.467 135.791C367.307 135.791 363.707 130.791 363.707 124.591C363.707 118.391 367.307 113.431 374.467 113.431ZM374.467 132.591C378.307 132.591 380.547 129.391 380.547 124.591C380.547 119.791 378.307 116.631 374.467 116.631C370.587 116.631 368.347 119.791 368.347 124.591C368.347 129.391 370.587 132.591 374.467 132.591ZM390.376 129.951C392.056 129.951 393.296 131.151 393.296 132.871C393.296 134.551 392.056 135.791 390.376 135.791C388.656 135.791 387.456 134.551 387.456 132.871C387.456 131.151 388.656 129.951 390.376 129.951Z" fill="white"></path><path d="M11.18 181.831V183.231H2V169.431H10.98V170.831H3.72V175.631H10.38V177.031H3.72V181.831H11.18ZM17.3783 177.831L21.1383 183.231H19.1383L16.3583 178.971L13.5983 183.231H11.6183L15.4183 177.871L11.7583 172.631H13.7983L16.4583 176.731L19.1183 172.631H21.0983L17.3783 177.831ZM23.7267 169.151C24.3467 169.151 24.8267 169.631 24.8267 170.251C24.8267 170.871 24.3467 171.351 23.7267 171.351C23.1067 171.351 22.6267 170.871 22.6267 170.251C22.6267 169.631 23.1067 169.151 23.7267 169.151ZM24.5867 183.231H22.8667V172.631H24.5867V183.231ZM30.7123 172.351C33.0923 172.351 34.3923 173.711 34.6123 175.651H32.8123C32.5723 174.411 31.8123 173.671 30.5723 173.671C29.3723 173.671 28.8123 174.331 28.8123 175.251C28.8123 176.311 29.6923 176.731 31.1323 177.111C33.5723 177.751 34.7323 178.711 34.7323 180.511C34.7323 182.511 33.0323 183.511 30.7923 183.511C28.6123 183.511 26.9523 182.511 26.6323 180.111H28.4323C28.7123 181.651 29.6923 182.191 30.9123 182.191C32.0523 182.191 32.9723 181.671 32.9723 180.651C32.9723 179.631 32.2523 179.091 30.4723 178.611C28.5723 178.091 27.0523 177.311 27.0523 175.451C27.0523 173.511 28.5323 172.351 30.7123 172.351ZM38.872 174.031V180.131C38.872 180.491 38.872 180.671 38.892 180.951C38.972 181.971 39.392 182.191 40.732 182.031V183.291C40.232 183.371 39.752 183.391 39.272 183.391C37.952 183.391 37.272 182.851 37.172 181.531C37.152 181.251 37.152 180.811 37.152 180.211V174.031H35.732V172.711H37.152V170.251H38.872V172.711H40.852V174.031H38.872ZM51.5277 177.631C51.5277 177.791 51.5277 178.071 51.4877 178.451H43.8077C43.9677 181.251 45.2877 182.191 46.8477 182.191C48.2277 182.191 49.3477 181.331 49.5877 179.811H51.3877C50.9677 182.371 48.9477 183.511 46.7677 183.511C44.0077 183.511 41.9477 181.711 41.9477 177.971C41.9477 174.531 44.0877 172.351 46.9877 172.351C49.9077 172.351 51.5277 174.531 51.5277 177.631ZM46.9477 173.671C45.2677 173.671 44.0277 174.871 43.8277 177.131H49.7877C49.6277 174.931 48.6877 173.671 46.9477 173.671ZM66.9206 172.631V183.231H65.2006V181.431L64.5406 182.671C63.6406 183.331 62.8606 183.511 61.7806 183.511C59.5806 183.511 58.3006 182.271 58.0606 180.811C57.9806 180.271 57.9606 179.851 57.9606 178.991V172.631H59.6806V178.671C59.6806 179.011 59.7006 179.591 59.7606 180.131C59.9206 181.331 60.7806 182.151 62.2206 182.151C63.8806 182.151 65.2006 180.911 65.2006 177.291V172.631H66.9206ZM84.0566 174.931C84.1366 175.471 84.1566 175.891 84.1566 176.751V183.231H82.4366V177.551C82.4366 176.611 82.4166 176.031 82.3566 175.491C82.1966 174.291 81.4366 173.711 80.2366 173.711C78.8966 173.711 77.9166 174.771 77.9166 177.991V183.231H76.1966V177.551C76.1966 176.611 76.1766 176.031 76.1166 175.491C75.9566 174.291 75.1966 173.711 73.9966 173.711C72.6566 173.711 71.6766 174.771 71.6766 177.991V183.231H69.9566V172.631H71.6766V174.171L72.3566 172.971C72.8966 172.531 73.6566 172.351 74.5966 172.351C76.2166 172.351 77.2566 173.171 77.6566 174.331L78.5966 172.971C79.1366 172.531 79.8966 172.351 80.8366 172.351C82.7366 172.351 83.8166 173.471 84.0566 174.931ZM96.7023 172.351C99.8023 172.351 101.522 174.671 101.522 177.771C101.522 181.691 99.0823 183.511 96.3423 183.511C95.4623 183.511 94.3423 183.251 93.8023 182.811L93.1023 181.771V187.151H91.3823V172.631H93.1023V174.331L93.9023 173.191C94.5023 172.691 95.6223 172.351 96.7023 172.351ZM96.3423 182.191C98.2023 182.191 99.6423 180.751 99.6423 177.971C99.6423 175.571 98.5623 173.671 96.4423 173.671C94.6823 173.671 93.1023 174.791 93.1023 177.831V178.411C93.1023 181.151 94.8223 182.191 96.3423 182.191ZM105.249 168.531V180.191C105.249 180.511 105.249 180.851 105.269 181.191C105.309 181.871 105.629 182.091 106.569 181.991V183.231C106.189 183.291 105.749 183.311 105.349 183.311C104.349 183.311 103.609 182.991 103.549 181.651C103.529 181.291 103.529 180.831 103.529 180.251V168.531H105.249ZM114.982 183.231L114.802 181.711L114.222 182.851C113.502 183.351 112.582 183.511 111.562 183.511C109.642 183.511 108.142 182.451 108.142 180.491C108.142 178.091 109.942 176.851 114.102 176.851H114.782V176.571C114.782 176.111 114.782 175.691 114.742 175.291C114.662 174.311 114.102 173.671 112.682 173.671C111.242 173.671 110.522 174.451 110.402 175.911H108.602C108.762 173.651 110.342 172.351 112.682 172.351C115.202 172.351 116.262 173.411 116.442 175.151C116.482 175.571 116.502 176.091 116.502 176.551V180.531C116.502 181.331 116.542 182.051 116.702 183.231H114.982ZM112.142 182.191C113.742 182.191 114.782 181.131 114.782 179.211V178.131C111.862 177.911 110.022 178.531 110.022 180.351C110.022 181.631 110.842 182.191 112.142 182.191ZM128.447 175.451C128.487 175.991 128.487 176.411 128.487 177.271V183.231H126.767V177.391C126.767 176.851 126.767 176.411 126.727 175.871C126.627 174.631 125.947 173.711 124.307 173.711C122.647 173.711 121.247 174.951 121.247 178.571V183.231H119.527V172.631H121.247V174.451L121.907 173.231C122.807 172.531 123.587 172.351 124.667 172.351C126.987 172.351 128.287 173.591 128.447 175.451ZM135.762 172.351C139.362 172.351 141.022 174.931 141.022 177.931C141.022 180.911 139.362 183.511 135.762 183.511C132.162 183.511 130.502 180.911 130.502 177.931C130.502 174.931 132.162 172.351 135.762 172.351ZM135.762 182.191C137.902 182.191 139.142 180.411 139.142 177.931C139.142 175.431 137.902 173.671 135.762 173.671C133.622 173.671 132.382 175.431 132.382 177.931C132.382 180.411 133.622 182.191 135.762 182.191ZM151.518 172.351C154.058 172.351 155.678 173.871 155.998 176.191H154.198C153.818 174.491 152.898 173.671 151.478 173.671C149.818 173.671 148.418 174.971 148.418 177.831C148.418 180.911 149.778 182.191 151.358 182.191C152.758 182.191 153.738 181.391 154.098 179.851H155.898C155.378 182.311 153.618 183.511 151.258 183.511C148.577 183.511 146.538 181.831 146.538 177.951C146.538 174.371 148.858 172.351 151.518 172.351ZM162.383 172.351C165.983 172.351 167.643 174.931 167.643 177.931C167.643 180.911 165.983 183.511 162.383 183.511C158.783 183.511 157.123 180.911 157.123 177.931C157.123 174.931 158.783 172.351 162.383 172.351ZM162.383 182.191C164.523 182.191 165.763 180.411 165.763 177.931C165.763 175.431 164.523 173.671 162.383 173.671C160.243 173.671 159.003 175.431 159.003 177.931C159.003 180.411 160.243 182.191 162.383 182.191ZM183.822 174.931C183.902 175.471 183.922 175.891 183.922 176.751V183.231H182.202V177.551C182.202 176.611 182.182 176.031 182.122 175.491C181.962 174.291 181.202 173.711 180.002 173.711C178.662 173.711 177.682 174.771 177.682 177.991V183.231H175.962V177.551C175.962 176.611 175.942 176.031 175.882 175.491C175.722 174.291 174.962 173.711 173.762 173.711C172.422 173.711 171.442 174.771 171.442 177.991V183.231H169.722V172.631H171.442V174.171L172.122 172.971C172.662 172.531 173.422 172.351 174.362 172.351C175.982 172.351 177.022 173.171 177.422 174.331L178.362 172.971C178.902 172.531 179.662 172.351 180.602 172.351C182.502 172.351 183.582 173.471 183.822 174.931ZM192.152 172.351C195.252 172.351 196.972 174.671 196.972 177.771C196.972 181.691 194.532 183.511 191.792 183.511C190.912 183.511 189.792 183.251 189.252 182.811L188.552 181.771V187.151H186.832V172.631H188.552V174.331L189.352 173.191C189.952 172.691 191.072 172.351 192.152 172.351ZM191.792 182.191C193.652 182.191 195.092 180.751 195.092 177.971C195.092 175.571 194.012 173.671 191.892 173.671C190.132 173.671 188.552 174.791 188.552 177.831V178.411C188.552 181.151 190.272 182.191 191.792 182.191ZM203.218 172.391C203.498 172.391 203.738 172.431 203.938 172.531V173.831C202.138 173.711 200.778 174.771 200.778 177.191V183.231H199.058V172.631H200.778V174.291L201.738 172.871C202.178 172.571 202.718 172.391 203.218 172.391ZM209.805 172.351C213.405 172.351 215.065 174.931 215.065 177.931C215.065 180.911 213.405 183.511 209.805 183.511C206.205 183.511 204.545 180.911 204.545 177.931C204.545 174.931 206.205 172.351 209.805 172.351ZM209.805 182.191C211.945 182.191 213.185 180.411 213.185 177.931C213.185 175.431 211.945 173.671 209.805 173.671C207.665 173.671 206.425 175.431 206.425 177.931C206.425 180.411 207.665 182.191 209.805 182.191ZM225.824 172.631L221.804 183.231H219.704L215.684 172.631H217.584L220.824 181.971L224.004 172.631H225.824ZM233.498 183.231L233.318 181.711L232.738 182.851C232.018 183.351 231.098 183.511 230.078 183.511C228.158 183.511 226.658 182.451 226.658 180.491C226.658 178.091 228.458 176.851 232.618 176.851H233.298V176.571C233.298 176.111 233.298 175.691 233.258 175.291C233.178 174.311 232.618 173.671 231.198 173.671C229.758 173.671 229.038 174.451 228.918 175.911H227.118C227.278 173.651 228.858 172.351 231.198 172.351C233.718 172.351 234.778 173.411 234.958 175.151C234.998 175.571 235.018 176.091 235.018 176.551V180.531C235.018 181.331 235.058 182.051 235.218 183.231H233.498ZM230.658 182.191C232.258 182.191 233.298 181.131 233.298 179.211V178.131C230.378 177.911 228.538 178.531 228.538 180.351C228.538 181.631 229.358 182.191 230.658 182.191ZM247.303 168.531V183.231H245.583V181.531L244.783 182.671C244.183 183.171 243.063 183.511 241.983 183.511C238.883 183.511 237.163 181.191 237.163 178.091C237.163 174.171 239.603 172.351 242.343 172.351C243.223 172.351 244.343 172.611 244.883 173.051L245.583 174.091V168.531H247.303ZM242.243 182.191C244.003 182.191 245.583 181.071 245.583 178.031V177.451C245.583 174.711 243.863 173.671 242.343 173.671C240.483 173.671 239.043 175.111 239.043 177.891C239.043 180.291 240.123 182.191 242.243 182.191ZM254.727 172.351C258.327 172.351 259.987 174.931 259.987 177.931C259.987 180.911 258.327 183.511 254.727 183.511C251.127 183.511 249.467 180.911 249.467 177.931C249.467 174.931 251.127 172.351 254.727 172.351ZM254.727 182.191C256.867 182.191 258.107 180.411 258.107 177.931C258.107 175.431 256.867 173.671 254.727 173.671C252.587 173.671 251.347 175.431 251.347 177.931C251.347 180.411 252.587 182.191 254.727 182.191ZM271.702 172.351C274.802 172.351 276.522 174.671 276.522 177.771C276.522 181.691 274.082 183.511 271.342 183.511C270.462 183.511 269.342 183.251 268.802 182.811L268.102 181.771V187.151H266.382V172.631H268.102V174.331L268.902 173.191C269.502 172.691 270.622 172.351 271.702 172.351ZM271.342 182.191C273.202 182.191 274.642 180.751 274.642 177.971C274.642 175.571 273.562 173.671 271.442 173.671C269.682 173.671 268.102 174.791 268.102 177.831V178.411C268.102 181.151 269.822 182.191 271.342 182.191ZM282.989 172.351C286.589 172.351 288.249 174.931 288.249 177.931C288.249 180.911 286.589 183.511 282.989 183.511C279.389 183.511 277.729 180.911 277.729 177.931C277.729 174.931 279.389 172.351 282.989 172.351ZM282.989 182.191C285.129 182.191 286.369 180.411 286.369 177.931C286.369 175.431 285.129 173.671 282.989 173.671C280.849 173.671 279.609 175.431 279.609 177.931C279.609 180.411 280.849 182.191 282.989 182.191ZM294.488 172.391C294.768 172.391 295.008 172.431 295.208 172.531V173.831C293.408 173.711 292.048 174.771 292.048 177.191V183.231H290.328V172.631H292.048V174.291L293.008 172.871C293.448 172.571 293.988 172.391 294.488 172.391ZM303.466 181.831H310.226V183.231H300.966V182.251L305.966 177.151C307.586 175.491 308.366 174.491 308.366 173.151C308.366 171.731 307.546 170.511 305.886 170.511C304.106 170.511 303.246 171.611 303.046 173.551L303.026 173.751H301.306L301.326 173.551C301.606 170.671 303.326 169.151 306.086 169.151C308.906 169.151 310.286 170.891 310.286 172.951C310.286 174.831 309.266 176.111 306.926 178.411L303.466 181.831ZM317.167 169.151C320.967 169.151 322.147 172.311 322.147 176.331C322.147 180.331 320.967 183.511 317.167 183.511C313.367 183.511 312.187 180.331 312.187 176.331C312.187 172.311 313.367 169.151 317.167 169.151ZM317.167 182.151C319.367 182.151 320.227 179.931 320.227 176.331C320.227 172.711 319.367 170.511 317.167 170.511C314.967 170.511 314.107 172.711 314.107 176.331C314.107 179.931 314.967 182.151 317.167 182.151ZM334.845 183.231L334.665 181.711L334.085 182.851C333.365 183.351 332.445 183.511 331.425 183.511C329.505 183.511 328.005 182.451 328.005 180.491C328.005 178.091 329.805 176.851 333.965 176.851H334.645V176.571C334.645 176.111 334.645 175.691 334.605 175.291C334.525 174.311 333.965 173.671 332.545 173.671C331.105 173.671 330.385 174.451 330.265 175.911H328.465C328.625 173.651 330.205 172.351 332.545 172.351C335.065 172.351 336.125 173.411 336.305 175.151C336.345 175.571 336.365 176.091 336.365 176.551V180.531C336.365 181.331 336.405 182.051 336.565 183.231H334.845ZM332.005 182.191C333.605 182.191 334.645 181.131 334.645 179.211V178.131C331.725 177.911 329.885 178.531 329.885 180.351C329.885 181.631 330.705 182.191 332.005 182.191ZM348.31 175.451C348.35 175.991 348.35 176.411 348.35 177.271V183.231H346.63V177.391C346.63 176.851 346.63 176.411 346.59 175.871C346.49 174.631 345.81 173.711 344.17 173.711C342.51 173.711 341.11 174.951 341.11 178.571V183.231H339.39V172.631H341.11V174.451L341.77 173.231C342.67 172.531 343.45 172.351 344.53 172.351C346.85 172.351 348.15 173.591 348.31 175.451ZM355.626 172.351C359.226 172.351 360.886 174.931 360.886 177.931C360.886 180.911 359.226 183.511 355.626 183.511C352.026 183.511 350.366 180.911 350.366 177.931C350.366 174.931 352.026 172.351 355.626 172.351ZM355.626 182.191C357.766 182.191 359.006 180.411 359.006 177.931C359.006 175.431 357.766 173.671 355.626 173.671C353.486 173.671 352.246 175.431 352.246 177.931C352.246 180.411 353.486 182.191 355.626 182.191ZM366.044 172.351C368.424 172.351 369.724 173.711 369.944 175.651H368.144C367.904 174.411 367.144 173.671 365.904 173.671C364.704 173.671 364.144 174.331 364.144 175.251C364.144 176.311 365.024 176.731 366.464 177.111C368.904 177.751 370.064 178.711 370.064 180.511C370.064 182.511 368.364 183.511 366.124 183.511C363.944 183.511 362.284 182.511 361.964 180.111H363.764C364.044 181.651 365.024 182.191 366.244 182.191C367.384 182.191 368.304 181.671 368.304 180.651C368.304 179.631 367.584 179.091 365.804 178.611C363.904 178.091 362.384 177.311 362.384 175.451C362.384 173.511 363.864 172.351 366.044 172.351ZM385.72 172.631V187.151H384V181.531L383.2 182.671C382.6 183.171 381.48 183.511 380.4 183.511C377.3 183.511 375.58 181.191 375.58 178.091C375.58 174.171 378.02 172.351 380.76 172.351C381.64 172.351 382.76 172.611 383.3 173.051L384 174.091V172.631H385.72ZM380.66 182.191C382.42 182.191 384 181.071 384 178.031V177.451C384 174.711 382.28 173.671 380.76 173.671C378.9 173.671 377.46 175.111 377.46 177.891C377.46 180.291 378.54 182.191 380.66 182.191ZM397.565 172.631V183.231H395.845V181.431L395.185 182.671C394.285 183.331 393.505 183.511 392.425 183.511C390.225 183.511 388.945 182.271 388.705 180.811C388.625 180.271 388.605 179.851 388.605 178.991V172.631H390.325V178.671C390.325 179.011 390.345 179.591 390.405 180.131C390.565 181.331 391.425 182.151 392.865 182.151C394.525 182.151 395.845 180.911 395.845 177.291V172.631H397.565ZM409.301 177.631C409.301 177.791 409.301 178.071 409.261 178.451H401.581C401.741 181.251 403.061 182.191 404.621 182.191C406.001 182.191 407.121 181.331 407.361 179.811H409.161C408.741 182.371 406.721 183.511 404.541 183.511C401.781 183.511 399.721 181.711 399.721 177.971C399.721 174.531 401.861 172.351 404.761 172.351C407.681 172.351 409.301 174.531 409.301 177.631ZM404.721 173.671C403.041 173.671 401.801 174.871 401.601 177.131H407.561C407.401 174.931 406.461 173.671 404.721 173.671ZM429.994 174.931C430.074 175.471 430.094 175.891 430.094 176.751V183.231H428.374V177.551C428.374 176.611 428.354 176.031 428.294 175.491C428.134 174.291 427.374 173.711 426.174 173.711C424.834 173.711 423.854 174.771 423.854 177.991V183.231H422.134V177.551C422.134 176.611 422.114 176.031 422.054 175.491C421.894 174.291 421.134 173.711 419.934 173.711C418.594 173.711 417.614 174.771 417.614 177.991V183.231H415.894V172.631H417.614V174.171L418.294 172.971C418.834 172.531 419.594 172.351 420.534 172.351C422.154 172.351 423.194 173.171 423.594 174.331L424.534 172.971C425.074 172.531 425.834 172.351 426.774 172.351C428.674 172.351 429.754 173.471 429.994 174.931ZM437.383 172.351C440.983 172.351 442.643 174.931 442.643 177.931C442.643 180.911 440.983 183.511 437.383 183.511C433.783 183.511 432.123 180.911 432.123 177.931C432.123 174.931 433.783 172.351 437.383 172.351ZM437.383 182.191C439.523 182.191 440.763 180.411 440.763 177.931C440.763 175.431 439.523 173.671 437.383 173.671C435.243 173.671 434.003 175.431 434.003 177.931C434.003 180.411 435.243 182.191 437.383 182.191ZM447.802 172.351C450.182 172.351 451.482 173.711 451.702 175.651H449.902C449.662 174.411 448.902 173.671 447.662 173.671C446.462 173.671 445.902 174.331 445.902 175.251C445.902 176.311 446.782 176.731 448.222 177.111C450.662 177.751 451.822 178.711 451.822 180.511C451.822 182.511 450.122 183.511 447.882 183.511C445.702 183.511 444.042 182.511 443.722 180.111H445.522C445.802 181.651 446.782 182.191 448.002 182.191C449.142 182.191 450.062 181.671 450.062 180.651C450.062 179.631 449.342 179.091 447.562 178.611C445.662 178.091 444.142 177.311 444.142 175.451C444.142 173.511 445.622 172.351 447.802 172.351ZM455.962 174.031V180.131C455.962 180.491 455.962 180.671 455.982 180.951C456.062 181.971 456.482 182.191 457.822 182.031V183.291C457.322 183.371 456.842 183.391 456.362 183.391C455.042 183.391 454.362 182.851 454.262 181.531C454.242 181.251 454.242 180.811 454.242 180.211V174.031H452.822V172.711H454.242V170.251H455.962V172.711H457.942V174.031H455.962ZM464.331 172.391C464.611 172.391 464.851 172.431 465.051 172.531V173.831C463.251 173.711 461.891 174.771 461.891 177.191V183.231H460.171V172.631H461.891V174.291L462.851 172.871C463.291 172.571 463.831 172.391 464.331 172.391ZM472.853 183.231L472.673 181.711L472.093 182.851C471.373 183.351 470.453 183.511 469.433 183.511C467.513 183.511 466.013 182.451 466.013 180.491C466.013 178.091 467.813 176.851 471.973 176.851H472.653V176.571C472.653 176.111 472.653 175.691 472.613 175.291C472.533 174.311 471.973 173.671 470.553 173.671C469.113 173.671 468.393 174.451 468.273 175.911H466.473C466.633 173.651 468.213 172.351 470.553 172.351C473.073 172.351 474.133 173.411 474.313 175.151C474.353 175.571 474.373 176.091 474.373 176.551V180.531C474.373 181.331 474.413 182.051 474.573 183.231H472.853ZM470.013 182.191C471.613 182.191 472.653 181.131 472.653 179.211V178.131C469.733 177.911 467.893 178.531 467.893 180.351C467.893 181.631 468.713 182.191 470.013 182.191ZM5.58 196.351C8.12 196.351 9.74 197.871 10.06 200.191H8.26C7.88 198.491 6.96 197.671 5.54 197.671C3.88 197.671 2.48 198.971 2.48 201.831C2.48 204.911 3.84 206.191 5.42 206.191C6.82 206.191 7.8 205.391 8.16 203.851H9.96C9.44 206.311 7.68 207.511 5.32 207.511C2.64 207.511 0.6 205.831 0.6 201.951C0.6 198.371 2.92 196.351 5.58 196.351ZM16.4459 196.351C20.0459 196.351 21.7059 198.931 21.7059 201.931C21.7059 204.911 20.0459 207.511 16.4459 207.511C12.8459 207.511 11.1859 204.911 11.1859 201.931C11.1859 198.931 12.8459 196.351 16.4459 196.351ZM16.4459 206.191C18.5859 206.191 19.8259 204.411 19.8259 201.931C19.8259 199.431 18.5859 197.671 16.4459 197.671C14.3059 197.671 13.0659 199.431 13.0659 201.931C13.0659 204.411 14.3059 206.191 16.4459 206.191ZM37.8847 198.931C37.9647 199.471 37.9847 199.891 37.9847 200.751V207.231H36.2647V201.551C36.2647 200.611 36.2447 200.031 36.1847 199.491C36.0247 198.291 35.2647 197.711 34.0647 197.711C32.7247 197.711 31.7447 198.771 31.7447 201.991V207.231H30.0247V201.551C30.0247 200.611 30.0047 200.031 29.9447 199.491C29.7847 198.291 29.0247 197.711 27.8247 197.711C26.4847 197.711 25.5047 198.771 25.5047 201.991V207.231H23.7847V196.631H25.5047V198.171L26.1847 196.971C26.7247 196.531 27.4847 196.351 28.4247 196.351C30.0447 196.351 31.0847 197.171 31.4847 198.331L32.4247 196.971C32.9647 196.531 33.7247 196.351 34.6647 196.351C36.5647 196.351 37.6447 197.471 37.8847 198.931ZM45.2741 196.351C48.8741 196.351 50.5341 198.931 50.5341 201.931C50.5341 204.911 48.8741 207.511 45.2741 207.511C41.6741 207.511 40.0141 204.911 40.0141 201.931C40.0141 198.931 41.6741 196.351 45.2741 196.351ZM45.2741 206.191C47.4141 206.191 48.6541 204.411 48.6541 201.931C48.6541 199.431 47.4141 197.671 45.2741 197.671C43.1341 197.671 41.8941 199.431 41.8941 201.931C41.8941 204.411 43.1341 206.191 45.2741 206.191ZM66.1892 196.631V211.151H64.4692V205.531L63.6692 206.671C63.0692 207.171 61.9492 207.511 60.8692 207.511C57.7692 207.511 56.0492 205.191 56.0492 202.091C56.0492 198.171 58.4892 196.351 61.2292 196.351C62.1092 196.351 63.2292 196.611 63.7692 197.051L64.4692 198.091V196.631H66.1892ZM61.1292 206.191C62.8892 206.191 64.4692 205.071 64.4692 202.031V201.451C64.4692 198.711 62.7492 197.671 61.2292 197.671C59.3692 197.671 57.9292 199.111 57.9292 201.891C57.9292 204.291 59.0092 206.191 61.1292 206.191ZM78.0339 196.631V207.231H76.3139V205.431L75.6539 206.671C74.7539 207.331 73.9739 207.511 72.8939 207.511C70.6939 207.511 69.4139 206.271 69.1739 204.811C69.0939 204.271 69.0739 203.851 69.0739 202.991V196.631H70.7939V202.671C70.7939 203.011 70.8139 203.591 70.8739 204.131C71.0339 205.331 71.8939 206.151 73.3339 206.151C74.9939 206.151 76.3139 204.911 76.3139 201.291V196.631H78.0339ZM87.1498 207.231L86.9698 205.711L86.3898 206.851C85.6698 207.351 84.7498 207.511 83.7298 207.511C81.8098 207.511 80.3098 206.451 80.3098 204.491C80.3098 202.091 82.1098 200.851 86.2698 200.851H86.9498V200.571C86.9498 200.111 86.9498 199.691 86.9098 199.291C86.8298 198.311 86.2698 197.671 84.8498 197.671C83.4098 197.671 82.6898 198.451 82.5698 199.911H80.7698C80.9298 197.651 82.5098 196.351 84.8498 196.351C87.3698 196.351 88.4298 197.411 88.6098 199.151C88.6498 199.571 88.6698 200.091 88.6698 200.551V204.531C88.6698 205.331 88.7098 206.051 88.8698 207.231H87.1498ZM84.3098 206.191C85.9098 206.191 86.9498 205.131 86.9498 203.211V202.131C84.0298 201.911 82.1898 202.531 82.1898 204.351C82.1898 205.631 83.0098 206.191 84.3098 206.191ZM93.3348 192.531V204.191C93.3348 204.511 93.3348 204.851 93.3548 205.191C93.3948 205.871 93.7148 206.091 94.6548 205.991V207.231C94.2748 207.291 93.8348 207.311 93.4348 207.311C92.4348 207.311 91.6948 206.991 91.6348 205.651C91.6148 205.291 91.6148 204.831 91.6148 204.251V192.531H93.3348ZM105.896 196.631V211.151H104.176V205.531L103.376 206.671C102.776 207.171 101.656 207.511 100.576 207.511C97.4763 207.511 95.7563 205.191 95.7563 202.091C95.7563 198.171 98.1963 196.351 100.936 196.351C101.816 196.351 102.936 196.611 103.476 197.051L104.176 198.091V196.631H105.896ZM100.836 206.191C102.596 206.191 104.176 205.071 104.176 202.031V201.451C104.176 198.711 102.456 197.671 100.936 197.671C99.0763 197.671 97.6363 199.111 97.6363 201.891C97.6363 204.291 98.7163 206.191 100.836 206.191ZM117.741 196.631V207.231H116.021V205.431L115.361 206.671C114.461 207.331 113.681 207.511 112.601 207.511C110.401 207.511 109.121 206.271 108.881 204.811C108.801 204.271 108.781 203.851 108.781 202.991V196.631H110.501V202.671C110.501 203.011 110.521 203.591 110.581 204.131C110.741 205.331 111.601 206.151 113.041 206.151C114.701 206.151 116.021 204.911 116.021 201.291V196.631H117.741ZM129.477 201.631C129.477 201.791 129.477 202.071 129.437 202.451H121.757C121.917 205.251 123.237 206.191 124.797 206.191C126.177 206.191 127.297 205.331 127.537 203.811H129.337C128.917 206.371 126.897 207.511 124.717 207.511C121.957 207.511 119.897 205.711 119.897 201.971C119.897 198.531 122.037 196.351 124.937 196.351C127.857 196.351 129.477 198.531 129.477 201.631ZM124.897 197.671C123.217 197.671 121.977 198.871 121.777 201.131H127.737C127.577 198.931 126.637 197.671 124.897 197.671ZM135.913 196.391C136.193 196.391 136.433 196.431 136.633 196.531V197.831C134.833 197.711 133.473 198.771 133.473 201.191V207.231H131.753V196.631H133.473V198.291L134.433 196.871C134.873 196.571 135.413 196.391 135.913 196.391ZM147.991 196.351C151.091 196.351 152.811 198.671 152.811 201.771C152.811 205.691 150.371 207.511 147.631 207.511C146.751 207.511 145.631 207.251 145.091 206.811L144.391 205.771V211.151H142.671V196.631H144.391V198.331L145.191 197.191C145.791 196.691 146.911 196.351 147.991 196.351ZM147.631 206.191C149.491 206.191 150.931 204.751 150.931 201.971C150.931 199.571 149.851 197.671 147.731 197.671C145.971 197.671 144.391 198.791 144.391 201.831V202.411C144.391 205.151 146.111 206.191 147.631 206.191ZM163.598 201.631C163.598 201.791 163.598 202.071 163.558 202.451H155.878C156.038 205.251 157.358 206.191 158.918 206.191C160.298 206.191 161.418 205.331 161.658 203.811H163.458C163.038 206.371 161.018 207.511 158.838 207.511C156.078 207.511 154.018 205.711 154.018 201.971C154.018 198.531 156.158 196.351 159.058 196.351C161.978 196.351 163.598 198.531 163.598 201.631ZM159.018 197.671C157.338 197.671 156.098 198.871 155.898 201.131H161.858C161.698 198.931 160.758 197.671 159.018 197.671ZM168.955 196.351C171.335 196.351 172.635 197.711 172.855 199.651H171.055C170.815 198.411 170.055 197.671 168.815 197.671C167.615 197.671 167.055 198.331 167.055 199.251C167.055 200.311 167.935 200.731 169.375 201.111C171.815 201.751 172.975 202.711 172.975 204.511C172.975 206.511 171.275 207.511 169.035 207.511C166.855 207.511 165.195 206.511 164.875 204.111H166.675C166.955 205.651 167.935 206.191 169.155 206.191C170.295 206.191 171.215 205.671 171.215 204.651C171.215 203.631 170.495 203.091 168.715 202.611C166.815 202.091 165.295 201.311 165.295 199.451C165.295 197.511 166.775 196.351 168.955 196.351ZM178.134 196.351C180.514 196.351 181.814 197.711 182.034 199.651H180.234C179.994 198.411 179.234 197.671 177.994 197.671C176.794 197.671 176.234 198.331 176.234 199.251C176.234 200.311 177.114 200.731 178.554 201.111C180.994 201.751 182.154 202.711 182.154 204.511C182.154 206.511 180.454 207.511 178.214 207.511C176.034 207.511 174.374 206.511 174.054 204.111H175.854C176.134 205.651 177.114 206.191 178.334 206.191C179.474 206.191 180.394 205.671 180.394 204.651C180.394 203.631 179.674 203.091 177.894 202.611C175.994 202.091 174.474 201.311 174.474 199.451C174.474 197.511 175.954 196.351 178.134 196.351ZM188.614 196.351C192.214 196.351 193.874 198.931 193.874 201.931C193.874 204.911 192.214 207.511 188.614 207.511C185.014 207.511 183.354 204.911 183.354 201.931C183.354 198.931 185.014 196.351 188.614 196.351ZM188.614 206.191C190.754 206.191 191.994 204.411 191.994 201.931C191.994 199.431 190.754 197.671 188.614 197.671C186.474 197.671 185.234 199.431 185.234 201.931C185.234 204.411 186.474 206.191 188.614 206.191ZM202.033 207.231L201.853 205.711L201.273 206.851C200.553 207.351 199.633 207.511 198.613 207.511C196.693 207.511 195.193 206.451 195.193 204.491C195.193 202.091 196.993 200.851 201.153 200.851H201.833V200.571C201.833 200.111 201.833 199.691 201.793 199.291C201.713 198.311 201.153 197.671 199.733 197.671C198.293 197.671 197.573 198.451 197.453 199.911H195.653C195.813 197.651 197.393 196.351 199.733 196.351C202.253 196.351 203.313 197.411 203.493 199.151C203.533 199.571 203.553 200.091 203.553 200.551V204.531C203.553 205.331 203.593 206.051 203.753 207.231H202.033ZM199.193 206.191C200.793 206.191 201.833 205.131 201.833 203.211V202.131C198.913 201.911 197.073 202.531 197.073 204.351C197.073 205.631 197.893 206.191 199.193 206.191ZM207.898 205.431L206.098 209.631H204.478L206.038 205.231H207.898V205.431Z" fill="#FFDEA3"></path><path d="M230.069 198.931C230.149 199.471 230.169 199.951 230.169 200.811V207.231H227.969V201.611C227.969 200.811 227.949 200.231 227.889 199.691C227.749 198.551 227.049 197.951 225.909 197.951C224.629 197.951 223.769 199.011 223.769 201.891V207.231H221.589V201.611C221.589 200.811 221.569 200.231 221.509 199.691C221.349 198.551 220.669 197.951 219.529 197.951C218.229 197.951 217.389 199.011 217.389 201.891V207.231H215.189V196.611H217.389V198.191L218.109 196.951C218.669 196.511 219.409 196.331 220.369 196.331C222.049 196.331 223.109 197.171 223.509 198.351L224.489 196.951C225.069 196.511 225.809 196.331 226.749 196.331C228.709 196.331 229.829 197.471 230.069 198.931ZM241.985 201.651C241.985 201.851 241.985 202.151 241.945 202.531H234.325C234.505 205.071 235.665 205.911 237.105 205.911C238.385 205.911 239.385 205.131 239.605 203.791H241.825C241.365 206.311 239.345 207.511 237.025 207.511C234.185 207.511 232.045 205.711 232.045 201.951C232.045 198.591 234.185 196.331 237.245 196.331C240.325 196.331 241.985 198.651 241.985 201.651ZM237.165 197.931C235.665 197.931 234.585 198.951 234.345 200.991H239.725C239.565 199.031 238.705 197.931 237.165 197.931ZM247.495 196.331C249.935 196.331 251.295 197.711 251.535 199.651H249.295C249.075 198.531 248.415 197.871 247.335 197.871C246.295 197.871 245.795 198.451 245.795 199.251C245.795 200.211 246.575 200.611 248.155 201.031C250.475 201.631 251.695 202.551 251.695 204.431C251.695 206.491 249.875 207.511 247.555 207.511C245.195 207.511 243.455 206.451 243.155 204.051H245.375C245.635 205.411 246.535 205.951 247.635 205.951C248.655 205.951 249.475 205.511 249.475 204.591C249.475 203.671 248.755 203.171 246.955 202.691C245.015 202.191 243.575 201.371 243.575 199.511C243.575 197.531 245.135 196.331 247.495 196.331ZM268.467 198.931C268.547 199.471 268.567 199.951 268.567 200.811V207.231H266.367V201.611C266.367 200.811 266.347 200.231 266.287 199.691C266.147 198.551 265.447 197.951 264.307 197.951C263.027 197.951 262.167 199.011 262.167 201.891V207.231H259.987V201.611C259.987 200.811 259.967 200.231 259.907 199.691C259.747 198.551 259.067 197.951 257.927 197.951C256.627 197.951 255.787 199.011 255.787 201.891V207.231H253.587V196.611H255.787V198.191L256.507 196.951C257.067 196.511 257.807 196.331 258.767 196.331C260.447 196.331 261.507 197.171 261.907 198.351L262.887 196.951C263.467 196.511 264.207 196.331 265.147 196.331C267.107 196.331 268.227 197.471 268.467 198.931ZM275.823 196.331C279.383 196.331 281.203 198.811 281.203 201.911C281.203 205.011 279.383 207.511 275.823 207.511C272.243 207.511 270.443 205.011 270.443 201.911C270.443 198.811 272.243 196.331 275.823 196.331ZM275.823 205.911C277.743 205.911 278.863 204.311 278.863 201.911C278.863 199.511 277.743 197.931 275.823 197.931C273.883 197.931 272.763 199.511 272.763 201.911C272.763 204.311 273.883 205.911 275.823 205.911ZM297.019 196.611V211.151H294.819V205.551L294.019 206.711C293.419 207.191 292.319 207.511 291.239 207.511C288.199 207.511 286.459 205.211 286.459 202.091C286.459 198.211 288.859 196.331 291.599 196.331C292.479 196.331 293.579 196.571 294.119 196.991L294.819 198.051V196.611H297.019ZM291.739 205.911C293.399 205.911 294.819 204.871 294.819 202.031V201.471C294.819 198.891 293.259 197.931 291.839 197.931C290.099 197.931 288.779 199.271 288.779 201.911C288.779 204.211 289.839 205.911 291.739 205.911ZM309.097 196.611V207.231H306.917V205.411L306.177 206.731C305.337 207.331 304.557 207.511 303.497 207.511C301.297 207.511 300.017 206.271 299.777 204.811C299.697 204.271 299.677 203.791 299.677 202.931V196.611H301.857V202.491C301.857 202.831 301.877 203.411 301.937 203.951C302.097 205.111 302.857 205.871 304.217 205.871C305.757 205.871 306.917 204.691 306.917 201.611V196.611H309.097ZM321.047 201.651C321.047 201.851 321.047 202.151 321.007 202.531H313.387C313.567 205.071 314.727 205.911 316.167 205.911C317.447 205.911 318.447 205.131 318.667 203.791H320.887C320.427 206.311 318.407 207.511 316.087 207.511C313.247 207.511 311.107 205.711 311.107 201.951C311.107 198.591 313.247 196.331 316.307 196.331C319.387 196.331 321.047 198.651 321.047 201.651ZM316.227 197.931C314.727 197.931 313.647 198.951 313.407 200.991H318.787C318.627 199.031 317.767 197.931 316.227 197.931ZM337.019 192.531V207.231H334.819V205.551L334.019 206.711C333.419 207.191 332.319 207.511 331.239 207.511C328.199 207.511 326.459 205.211 326.459 202.091C326.459 198.211 328.859 196.331 331.599 196.331C332.479 196.331 333.579 196.571 334.119 196.991L334.819 198.051V192.531H337.019ZM331.739 205.911C333.399 205.911 334.819 204.871 334.819 202.031V201.471C334.819 198.891 333.259 197.931 331.839 197.931C330.099 197.931 328.779 199.271 328.779 201.911C328.779 204.211 329.839 205.911 331.739 205.911ZM344.417 196.331C347.977 196.331 349.797 198.811 349.797 201.911C349.797 205.011 347.977 207.511 344.417 207.511C340.837 207.511 339.037 205.011 339.037 201.911C339.037 198.811 340.837 196.331 344.417 196.331ZM344.417 205.911C346.337 205.911 347.457 204.311 347.457 201.911C347.457 199.511 346.337 197.931 344.417 197.931C342.477 197.931 341.357 199.511 341.357 201.911C341.357 204.311 342.477 205.911 344.417 205.911ZM363.453 205.651V207.231H354.953V205.711L360.933 198.271H355.353V196.691H363.373V198.271L357.433 205.651H363.453ZM374.329 201.651C374.329 201.851 374.329 202.151 374.289 202.531H366.669C366.849 205.071 368.009 205.911 369.449 205.911C370.729 205.911 371.729 205.131 371.949 203.791H374.169C373.709 206.311 371.689 207.511 369.369 207.511C366.529 207.511 364.389 205.711 364.389 201.951C364.389 198.591 366.529 196.331 369.589 196.331C372.669 196.331 374.329 198.651 374.329 201.651ZM369.509 197.931C368.009 197.931 366.929 198.951 366.689 200.991H372.069C371.909 199.031 371.049 197.931 369.509 197.931ZM381.159 196.351C381.459 196.351 381.679 196.391 381.899 196.471V198.191C379.879 198.051 378.619 199.091 378.619 201.711V207.231H376.419V196.611H378.619V198.411L379.519 196.951C379.999 196.571 380.619 196.351 381.159 196.351ZM387.874 196.331C391.434 196.331 393.254 198.811 393.254 201.911C393.254 205.011 391.434 207.511 387.874 207.511C384.294 207.511 382.494 205.011 382.494 201.911C382.494 198.811 384.294 196.331 387.874 196.331ZM387.874 205.911C389.794 205.911 390.914 204.311 390.914 201.911C390.914 199.511 389.794 197.931 387.874 197.931C385.934 197.931 384.814 199.511 384.814 201.911C384.814 204.311 385.934 205.911 387.874 205.911ZM397.009 205.071L395.129 209.651H393.209L394.789 204.871H397.009V205.071ZM409.738 196.331C412.778 196.331 414.518 198.631 414.518 201.731C414.518 205.631 412.118 207.511 409.378 207.511C408.498 207.511 407.398 207.271 406.858 206.851L406.158 205.791V211.151H403.958V196.611H406.158V198.271L406.958 197.131C407.558 196.631 408.658 196.331 409.738 196.331ZM409.118 205.911C410.878 205.911 412.198 204.571 412.198 201.931C412.198 199.631 411.138 197.931 409.218 197.931C407.578 197.931 406.158 198.971 406.158 201.811V202.351C406.158 204.951 407.718 205.911 409.118 205.911ZM421.058 196.331C424.618 196.331 426.438 198.811 426.438 201.911C426.438 205.011 424.618 207.511 421.058 207.511C417.478 207.511 415.678 205.011 415.678 201.911C415.678 198.811 417.478 196.331 421.058 196.331ZM421.058 205.911C422.978 205.911 424.098 204.311 424.098 201.911C424.098 199.511 422.978 197.931 421.058 197.931C419.118 197.931 417.998 199.511 417.998 201.911C417.998 204.311 419.118 205.911 421.058 205.911ZM438.132 192.531V207.231H435.932V205.551L435.132 206.711C434.532 207.191 433.432 207.511 432.352 207.511C429.312 207.511 427.572 205.211 427.572 202.091C427.572 198.211 429.972 196.331 432.712 196.331C433.592 196.331 434.692 196.571 435.232 196.991L435.932 198.051V192.531H438.132ZM432.852 205.911C434.512 205.911 435.932 204.871 435.932 202.031V201.471C435.932 198.891 434.372 197.931 432.952 197.931C431.212 197.931 429.892 199.271 429.892 201.911C429.892 204.211 430.952 205.911 432.852 205.911ZM450.09 201.651C450.09 201.851 450.09 202.151 450.05 202.531H442.43C442.61 205.071 443.77 205.911 445.21 205.911C446.49 205.911 447.49 205.131 447.71 203.791H449.93C449.47 206.311 447.45 207.511 445.13 207.511C442.29 207.511 440.15 205.711 440.15 201.951C440.15 198.591 442.29 196.331 445.35 196.331C448.43 196.331 450.09 198.651 450.09 201.651ZM445.27 197.931C443.77 197.931 442.69 198.951 442.45 200.991H447.83C447.67 199.031 446.81 197.931 445.27 197.931ZM460.642 196.331C463.322 196.331 465.022 197.951 465.282 200.291H463.062C462.742 198.671 461.882 197.931 460.582 197.931C459.042 197.931 457.822 199.151 457.822 201.811C457.822 204.691 459.022 205.911 460.502 205.911C461.762 205.911 462.662 205.151 462.982 203.711H465.222C464.722 206.251 462.882 207.511 460.382 207.511C457.602 207.511 455.502 205.751 455.502 201.971C455.502 198.351 457.862 196.331 460.642 196.331ZM476.561 199.371C476.601 199.911 476.621 200.391 476.621 201.251V207.231H474.421V201.491C474.421 200.991 474.421 200.531 474.381 199.991C474.281 198.791 473.641 197.931 472.141 197.951C470.621 197.991 469.381 199.151 469.381 202.471V207.231H467.181V192.431H469.381V198.371L470.101 197.151C470.941 196.511 471.721 196.331 472.781 196.331C475.061 196.331 476.361 197.511 476.561 199.371ZM488.45 201.651C488.45 201.851 488.45 202.151 488.41 202.531H480.79C480.97 205.071 482.13 205.911 483.57 205.911C484.85 205.911 485.85 205.131 486.07 203.791H488.29C487.83 206.311 485.81 207.511 483.49 207.511C480.65 207.511 478.51 205.711 478.51 201.951C478.51 198.591 480.65 196.331 483.71 196.331C486.79 196.331 488.45 198.651 488.45 201.651ZM483.63 197.931C482.13 197.931 481.05 198.951 480.81 200.991H486.19C486.03 199.031 485.17 197.931 483.63 197.931ZM500.3 196.611V204.591C500.3 205.251 500.3 206.071 500.28 206.651C500.16 209.871 498.16 211.491 494.96 211.491C491.9 211.491 490.28 210.211 490.06 207.931L490.04 207.731H492.2L492.22 207.911C492.36 209.051 493.34 209.831 494.98 209.831C496.9 209.831 498 208.791 498.08 206.891C498.1 206.431 498.1 206.051 498.1 205.671V205.451L497.3 206.611C496.7 207.091 495.66 207.411 494.58 207.411C491.52 207.411 489.74 205.171 489.74 202.051C489.74 198.171 492.14 196.331 494.88 196.331C495.76 196.331 496.86 196.571 497.4 196.991L498.1 198.051V196.611H500.3ZM495.02 205.811C496.68 205.811 498.1 204.771 498.1 201.931V201.471C498.1 198.891 496.54 197.931 495.12 197.931C493.38 197.931 492.06 199.211 492.06 201.851C492.06 204.151 493.12 205.811 495.02 205.811ZM509.238 207.231L509.038 205.691L508.498 206.831C507.778 207.331 506.858 207.511 505.858 207.511C503.978 207.511 502.438 206.431 502.438 204.451C502.438 202.091 504.318 200.811 508.338 200.811H509.018V200.551C509.018 200.151 509.018 199.791 508.978 199.391C508.918 198.531 508.378 197.931 507.118 197.931C505.838 197.931 505.178 198.651 505.058 199.971H502.858C502.998 197.651 504.738 196.331 507.158 196.331C509.898 196.331 510.978 197.491 511.158 199.291C511.198 199.731 511.218 200.291 511.218 200.791V204.531C511.218 205.331 511.258 206.051 511.418 207.231H509.238ZM506.658 205.911C508.038 205.911 509.018 204.971 509.018 203.251V202.271C506.438 202.071 504.758 202.651 504.758 204.271C504.758 205.391 505.498 205.911 506.658 205.911ZM518.757 196.351C519.057 196.351 519.277 196.391 519.497 196.471V198.191C517.477 198.051 516.217 199.091 516.217 201.711V207.231H514.017V196.611H516.217V198.411L517.117 196.951C517.597 196.571 518.217 196.351 518.757 196.351ZM3.5 216.531V227.991C3.5 228.351 3.5 228.671 3.52 228.991C3.56 229.591 3.84 229.791 4.78 229.711V231.251C4.34 231.311 3.84 231.351 3.34 231.351C2.18 231.351 1.4 230.931 1.32 229.571C1.3 229.171 1.3 228.691 1.3 228.051V216.531H3.5ZM11.5264 219.671H10.2064L11.5864 217.391H13.5864L11.5264 219.671ZM13.0664 231.231L12.8664 229.691L12.3264 230.831C11.6064 231.331 10.6864 231.511 9.68641 231.511C7.80641 231.511 6.26641 230.431 6.26641 228.451C6.26641 226.091 8.14641 224.811 12.1664 224.811H12.8464V224.551C12.8464 224.151 12.8464 223.791 12.8064 223.391C12.7464 222.531 12.2064 221.931 10.9464 221.931C9.66641 221.931 9.00641 222.651 8.88641 223.971H6.68641C6.82641 221.651 8.56641 220.331 10.9864 220.331C13.7264 220.331 14.8064 221.491 14.9864 223.291C15.0264 223.731 15.0464 224.291 15.0464 224.791V228.531C15.0464 229.331 15.0864 230.051 15.2464 231.231H13.0664ZM10.4864 229.911C11.8664 229.911 12.8464 228.971 12.8464 227.251V226.271C10.2664 226.071 8.58641 226.651 8.58641 228.271C8.58641 229.391 9.32641 229.911 10.4864 229.911ZM26.3059 220.331C28.9859 220.331 30.6859 221.951 30.9459 224.291H28.7259C28.4059 222.671 27.5459 221.931 26.2459 221.931C24.7059 221.931 23.4859 223.151 23.4859 225.811C23.4859 228.691 24.6859 229.911 26.1659 229.911C27.4259 229.911 28.3259 229.151 28.6459 227.711H30.8859C30.3859 230.251 28.5459 231.511 26.0459 231.511C23.2659 231.511 21.1659 229.751 21.1659 225.971C21.1659 222.351 23.5259 220.331 26.3059 220.331ZM37.4248 220.331C40.9848 220.331 42.8048 222.811 42.8048 225.911C42.8048 229.011 40.9848 231.511 37.4248 231.511C33.8448 231.511 32.0448 229.011 32.0448 225.911C32.0448 222.811 33.8448 220.331 37.4248 220.331ZM37.4248 229.911C39.3448 229.911 40.4648 228.311 40.4648 225.911C40.4648 223.511 39.3448 221.931 37.4248 221.931C35.4848 221.931 34.3648 223.511 34.3648 225.911C34.3648 228.311 35.4848 229.911 37.4248 229.911ZM59.6194 222.931C59.6994 223.471 59.7194 223.951 59.7194 224.811V231.231H57.5194V225.611C57.5194 224.811 57.4994 224.231 57.4394 223.691C57.2994 222.551 56.5994 221.951 55.4594 221.951C54.1794 221.951 53.3194 223.011 53.3194 225.891V231.231H51.1394V225.611C51.1394 224.811 51.1194 224.231 51.0594 223.691C50.8994 222.551 50.2194 221.951 49.0794 221.951C47.7794 221.951 46.9394 223.011 46.9394 225.891V231.231H44.7394V220.611H46.9394V222.191L47.6594 220.951C48.2194 220.511 48.9594 220.331 49.9194 220.331C51.5994 220.331 52.6594 221.171 53.0594 222.351L54.0394 220.951C54.6194 220.511 55.3594 220.331 56.2994 220.331C58.2594 220.331 59.3794 221.471 59.6194 222.931ZM69.9367 220.331C72.3767 220.331 73.7367 221.711 73.9767 223.651H71.7367C71.5167 222.531 70.8567 221.871 69.7767 221.871C68.7367 221.871 68.2367 222.451 68.2367 223.251C68.2367 224.211 69.0167 224.611 70.5967 225.031C72.9167 225.631 74.1367 226.551 74.1367 228.431C74.1367 230.491 72.3167 231.511 69.9967 231.511C67.6367 231.511 65.8967 230.451 65.5967 228.051H67.8167C68.0767 229.411 68.9767 229.951 70.0767 229.951C71.0967 229.951 71.9167 229.511 71.9167 228.591C71.9167 227.671 71.1967 227.171 69.3967 226.691C67.4567 226.191 66.0167 225.371 66.0167 223.511C66.0167 221.531 67.5767 220.331 69.9367 220.331ZM85.1684 225.651C85.1684 225.851 85.1684 226.151 85.1284 226.531H77.5084C77.6884 229.071 78.8484 229.911 80.2884 229.911C81.5684 229.911 82.5684 229.131 82.7884 227.791H85.0084C84.5484 230.311 82.5284 231.511 80.2084 231.511C77.3684 231.511 75.2284 229.711 75.2284 225.951C75.2284 222.591 77.3684 220.331 80.4284 220.331C83.5084 220.331 85.1684 222.651 85.1684 225.651ZM80.3484 221.931C78.8484 221.931 77.7684 222.951 77.5284 224.991H82.9084C82.7484 223.031 81.8884 221.931 80.3484 221.931ZM97.0189 220.611V228.591C97.0189 229.251 97.0189 230.071 96.9989 230.651C96.8789 233.871 94.8789 235.491 91.6789 235.491C88.6189 235.491 86.9989 234.211 86.7789 231.931L86.7589 231.731H88.9189L88.9389 231.911C89.0789 233.051 90.0589 233.831 91.6989 233.831C93.6189 233.831 94.7189 232.791 94.7989 230.891C94.8189 230.431 94.8189 230.051 94.8189 229.671V229.451L94.0189 230.611C93.4189 231.091 92.3789 231.411 91.2989 231.411C88.2389 231.411 86.4589 229.171 86.4589 226.051C86.4589 222.171 88.8589 220.331 91.5989 220.331C92.4789 220.331 93.5789 220.571 94.1189 220.991L94.8189 222.051V220.611H97.0189ZM91.7389 229.811C93.3989 229.811 94.8189 228.771 94.8189 225.931V225.471C94.8189 222.891 93.2589 221.931 91.8389 221.931C90.0989 221.931 88.7789 223.211 88.7789 225.851C88.7789 228.151 89.8389 229.811 91.7389 229.811ZM109.097 220.611V231.231H106.917V229.411L106.177 230.731C105.337 231.331 104.557 231.511 103.497 231.511C101.297 231.511 100.017 230.271 99.777 228.811C99.697 228.271 99.677 227.791 99.677 226.931V220.611H101.857V226.491C101.857 226.831 101.877 227.411 101.937 227.951C102.097 229.111 102.857 229.871 104.217 229.871C105.757 229.871 106.917 228.691 106.917 225.611V220.611H109.097ZM116.647 220.351C116.947 220.351 117.167 220.391 117.387 220.471V222.191C115.367 222.051 114.107 223.091 114.107 225.711V231.231H111.907V220.611H114.107V222.411L115.007 220.951C115.487 220.571 116.107 220.351 116.647 220.351ZM125.078 231.231L124.878 229.691L124.338 230.831C123.618 231.331 122.698 231.511 121.698 231.511C119.818 231.511 118.278 230.431 118.278 228.451C118.278 226.091 120.158 224.811 124.178 224.811H124.858V224.551C124.858 224.151 124.858 223.791 124.818 223.391C124.758 222.531 124.218 221.931 122.958 221.931C121.678 221.931 121.018 222.651 120.898 223.971H118.698C118.838 221.651 120.578 220.331 122.998 220.331C125.738 220.331 126.818 221.491 126.998 223.291C127.038 223.731 127.058 224.291 127.058 224.791V228.531C127.058 229.331 127.098 230.051 127.258 231.231H125.078ZM122.498 229.911C123.878 229.911 124.858 228.971 124.858 227.251V226.271C122.278 226.071 120.598 226.651 120.598 228.271C120.598 229.391 121.338 229.911 122.498 229.911ZM139.237 223.371C139.277 223.911 139.297 224.391 139.297 225.251V231.231H137.097V225.491C137.097 224.991 137.097 224.531 137.057 223.991C136.957 222.791 136.317 221.951 134.817 221.951C133.297 221.951 132.057 223.151 132.057 226.471V231.231H129.857V220.611H132.057V222.371L132.777 221.151C133.617 220.511 134.397 220.331 135.457 220.331C137.737 220.331 139.037 221.511 139.237 223.371ZM146.185 229.911C147.445 229.911 148.345 229.151 148.665 227.711H150.905C150.425 230.111 148.765 231.371 146.465 231.491L146.185 232.051C147.285 232.191 147.865 232.751 147.865 233.671C147.865 234.851 146.745 235.431 145.185 235.431C144.805 235.431 144.445 235.391 144.145 235.271V234.251C144.505 234.411 144.845 234.451 145.225 234.451C146.065 234.451 146.465 234.151 146.465 233.671C146.465 233.051 145.945 232.751 144.545 232.851L145.265 231.451C142.885 231.151 141.185 229.391 141.185 225.971C141.185 222.351 143.545 220.331 146.325 220.331C149.005 220.331 150.705 221.951 150.965 224.291H148.745C148.425 222.671 147.565 221.931 146.265 221.931C144.725 221.931 143.505 223.151 143.505 225.811C143.505 228.691 144.705 229.911 146.185 229.911ZM158.984 231.231L158.784 229.691L158.244 230.831C157.524 231.331 156.604 231.511 155.604 231.511C153.724 231.511 152.184 230.431 152.184 228.451C152.184 226.091 154.064 224.811 158.084 224.811H158.764V224.551C158.764 224.151 158.764 223.791 158.724 223.391C158.664 222.531 158.124 221.931 156.864 221.931C155.584 221.931 154.924 222.651 154.804 223.971H152.604C152.744 221.651 154.484 220.331 156.904 220.331C159.644 220.331 160.724 221.491 160.904 223.291C160.944 223.731 160.964 224.291 160.964 224.791V228.531C160.964 229.331 161.004 230.051 161.164 231.231H158.984ZM156.404 229.911C157.784 229.911 158.764 228.971 158.764 227.251V226.271C156.184 226.071 154.504 226.651 154.504 228.271C154.504 229.391 155.244 229.911 156.404 229.911ZM164.603 228.591C165.443 228.591 166.063 229.191 166.063 230.051C166.063 230.891 165.443 231.511 164.603 231.511C163.743 231.511 163.143 230.891 163.143 230.051C163.143 229.191 163.743 228.591 164.603 228.591Z" fill="#FFEDCC"></path></svg>