<svg xmlns="http://www.w3.org/2000/svg" width="442" height="125" viewBox="0 0 442 125" fill="none"><path d="M40.9354 48.228C41.5341 48.2945 41.8667 48.7601 41.6672 49.3588L39.0063 56.8757C38.6072 58.0066 37.6759 59.0709 36.4785 59.5365C32.5538 61.1996 27.0991 62.1309 22.9083 62.1309C7.74147 62.1309 0.956328 51.421 3.55065 37.0524C6.14496 22.8835 17.8527 13.2379 31.6225 13.2379C36.3455 13.2379 41.0685 14.5684 45.1263 16.2979C46.1241 16.697 46.6562 17.6283 46.5897 18.7592L45.9245 25.7439C45.9245 26.276 45.4589 26.6752 44.9267 26.6752C44.5276 26.6752 44.2615 26.4091 44.195 26.01C44.195 18.0274 38.8068 15.167 31.3564 15.167C18.3183 15.167 9.80362 25.0121 7.60843 36.8529C5.14715 50.4897 11.4666 60.3348 24.3717 60.3348C32.3542 60.3348 37.0107 56.144 39.8711 48.9597C40.0707 48.5606 40.4698 48.228 40.9354 48.228ZM86.1463 38.9816C87.8759 28.4712 83.2194 15.3001 69.7156 15.4996C56.744 15.6992 49.2272 26.276 47.5642 36.3207C45.8346 46.831 50.358 59.8026 63.5957 59.8026C75.9686 59.8026 84.2172 50.6892 86.1463 38.9816ZM90.6032 37.4516C88.275 50.2901 75.9021 62.1309 62.3318 62.1309C49.2272 62.1309 40.8455 50.7558 43.2403 37.9172C45.5685 25.0787 57.7419 13.2379 71.4452 13.2379C84.4833 13.2379 92.9315 24.7461 90.6032 37.4516ZM119.627 52.4188C119.094 55.6783 118.429 58.4722 122.554 58.8713C123.285 58.9378 123.618 59.47 123.485 60.0022C123.352 60.6009 122.753 61.0665 121.955 61.0665C118.23 61.0665 114.571 61.0665 110.846 61.0665C110.114 61.0665 109.648 60.6009 109.715 60.0022C109.782 59.47 110.314 58.9378 111.045 58.8713C115.17 58.4057 115.369 55.4122 115.968 52.4188L121.356 21.0874C121.423 20.6883 120.891 20.6218 120.624 20.9544L110.048 36.4538C109.782 36.8529 109.316 37.0524 108.917 37.0524C108.451 37.0524 108.052 36.8529 107.919 36.5203L101.799 22.1517C101.666 21.8191 101.067 21.9522 101.001 22.3513L94.9474 52.6184C94.5482 54.6805 93.75 58.0731 96.5439 58.8048C97.1425 59.0044 97.3421 59.4035 97.2756 59.9357C97.076 60.6674 96.4108 61.0665 95.6126 61.0665C94.6813 61 93.1513 61 91.5548 61C89.6257 61 88.3618 61 86.8318 61.0665C86.0335 61.0665 85.5679 60.5344 85.7009 59.9357C85.834 59.4035 86.2331 58.9378 86.9648 58.8713C91.4883 58.3392 91.8874 55.7448 92.6856 52.4188L98.8056 21.9522C99.2047 19.8235 99.4043 17.0296 96.6104 16.564C96.0782 16.4309 95.7456 16.0318 95.8121 15.4996C95.9452 14.8344 96.6104 14.3688 97.4086 14.4353C98.1404 14.4353 99.0051 14.4353 99.8034 14.4353C100.469 14.4353 101.333 14.4353 102.132 14.3688C102.73 14.3688 103.196 14.5684 103.396 14.901L110.38 32.0634C110.447 32.2629 110.846 32.2629 110.979 32.0634L122.487 14.901C122.753 14.5684 123.285 14.3688 123.817 14.3688C124.749 14.5018 125.68 14.5018 126.478 14.5018C127.144 14.5018 128.141 14.5018 128.873 14.4353C129.738 14.3688 130.203 14.8344 130.07 15.4996C129.937 16.0318 129.538 16.4309 128.94 16.564C125.813 17.0296 125.148 19.6905 124.749 21.8857L119.627 52.4188ZM149.434 36.3207C147.704 46.831 152.228 59.8026 165.465 59.8026C177.838 59.8026 186.087 50.6892 188.016 38.9816C189.745 28.4712 185.089 15.3001 171.585 15.4996C158.68 15.6992 151.097 26.276 149.434 36.3207ZM190.677 64.7917C190.943 64.9247 190.943 65.1908 190.81 65.4569C188.615 68.7164 184.69 71.1112 180.898 71.1112C178.038 71.1112 175.776 70.1134 173.847 68.6499C170.987 66.5212 167.661 62.1309 164.002 62.1309C151.03 61.9978 142.782 50.6892 145.11 37.9172C147.505 25.0787 159.611 13.2379 173.381 13.2379C186.353 13.2379 194.801 24.7461 192.473 37.4516C190.411 48.9597 180.299 59.6696 168.459 61.7317C168.193 61.7983 168.126 62.0643 168.326 62.1974C171.053 62.9956 173.049 64.6587 175.244 65.9891C177.24 67.1199 178.903 67.7851 181.43 67.7851C184.956 67.7851 187.75 66.5212 190.145 64.8582C190.344 64.7917 190.544 64.7252 190.677 64.7917ZM225.101 15.4996C224.968 16.0318 224.569 16.4309 223.903 16.4975C220.777 17.0296 220.644 20.0231 220.178 22.2183L215.788 46.4319C214.657 52.4853 211.93 62.1309 201.952 62.1309C191.707 62.1309 192.439 52.6849 193.703 45.6337L197.96 22.4178C198.426 19.757 199.224 17.0296 195.765 16.4975C195.166 16.4309 194.834 16.0318 194.967 15.4331C195.1 14.7679 195.699 14.3023 196.563 14.3023C198.293 14.4353 199.623 14.4353 201.353 14.4353C202.683 14.4353 204.479 14.3688 206.076 14.3023C206.874 14.3023 207.34 14.7679 207.273 15.4331C207.14 16.0318 206.608 16.4309 206.009 16.4975C202.284 17.0962 202.151 19.8235 201.619 22.4178L197.694 43.9041C196.63 49.891 194.701 59.8691 203.615 59.8691C210.932 59.8691 212.928 50.2901 213.593 46.3654L217.983 22.4843C218.515 19.6905 219.247 17.0962 216.187 16.6305C215.588 16.4975 215.256 16.0983 215.389 15.4996C215.455 14.8344 216.121 14.3023 216.985 14.3688C218.183 14.3688 219.447 14.3688 220.577 14.3688C221.575 14.3688 222.839 14.3688 223.903 14.3688C224.768 14.3023 225.234 14.8344 225.101 15.4996ZM239.51 50.4897C240.109 50.4897 240.375 50.9553 240.175 51.421C239.377 53.4831 237.647 58.0731 236.916 60.1352C236.716 60.7339 236.051 61.133 235.319 61.133C231.86 61.0665 230.729 61 227.204 61C223.811 61 220.285 61.0665 216.893 61.133C216.161 61.133 215.762 60.6674 215.895 60.0687C215.961 59.5365 216.427 59.0709 217.092 59.0044C220.086 58.5387 220.684 56.0774 221.217 53.2836L226.937 22.0852C227.403 19.4909 228.068 16.8301 224.942 16.4975C224.343 16.4309 224.011 15.9653 224.077 15.4331C224.21 14.7679 224.809 14.3023 225.474 14.3023C228.401 14.4353 231.195 14.4353 234.388 14.4353C237.714 14.4353 241.106 14.3688 244.233 14.3023C244.965 14.3023 245.231 14.7014 245.164 15.2336L243.568 24.0143C243.501 24.3469 243.102 24.7461 242.57 24.7461C242.038 24.7461 241.772 24.3469 241.838 24.0143C242.237 20.0231 243.169 16.3644 237.115 16.3644H233.124C232.259 16.3644 231.594 16.8966 231.461 17.6948L228.334 34.8573C228.201 35.4559 228.467 35.9216 229.266 35.9216H234.388C237.514 35.9216 238.046 32.9281 238.446 30.866C238.512 30.5334 238.911 30.2008 239.443 30.2008C239.976 30.2008 240.242 30.5334 240.175 30.866L237.847 43.3719C237.78 43.7045 237.381 44.0371 236.849 44.0371C236.317 44.0371 236.051 43.7045 236.117 43.3054C236.583 41.1102 237.448 37.6511 233.989 37.6511H228.933C228.201 37.6511 227.736 38.1168 227.603 38.7155L225.075 52.6849C224.077 58.0066 225.075 59.2705 229.332 59.2705C235.452 59.2705 236.783 55.2792 238.446 51.1549C238.579 50.8223 238.978 50.4897 239.51 50.4897ZM272.69 52.4188C272.158 55.6783 271.492 58.4722 275.617 58.8713C276.349 58.9378 276.681 59.47 276.548 60.0022C276.415 60.6009 275.816 61.0665 275.018 61.0665C271.293 61.0665 267.634 61.0665 263.909 61.0665C263.177 61.0665 262.712 60.6009 262.778 60.0022C262.845 59.47 263.377 58.9378 264.109 58.8713C268.233 58.4057 268.433 55.4122 269.031 52.4188L274.419 21.0874C274.486 20.6883 273.954 20.6218 273.688 20.9544L263.111 36.4538C262.845 36.8529 262.379 37.0524 261.98 37.0524C261.514 37.0524 261.115 36.8529 260.982 36.5203L254.862 22.1517C254.729 21.8191 254.131 21.9522 254.064 22.3513L248.011 52.6184C247.611 54.6805 246.813 58.0731 249.607 58.8048C250.206 59.0044 250.405 59.4035 250.339 59.9357C250.139 60.6674 249.474 61.0665 248.676 61.0665C247.744 61 246.215 61 244.618 61C242.689 61 241.425 61 239.895 61.0665C239.097 61.0665 238.631 60.5344 238.764 59.9357C238.897 59.4035 239.296 58.9378 240.028 58.8713C244.551 58.3392 244.951 55.7448 245.749 52.4188L251.869 21.9522C252.268 19.8235 252.467 17.0296 249.674 16.564C249.141 16.4309 248.809 16.0318 248.875 15.4996C249.008 14.8344 249.674 14.3688 250.472 14.4353C251.204 14.4353 252.068 14.4353 252.867 14.4353C253.532 14.4353 254.397 14.4353 255.195 14.3688C255.794 14.3688 256.259 14.5684 256.459 14.901L263.443 32.0634C263.51 32.2629 263.909 32.2629 264.042 32.0634L275.55 14.901C275.816 14.5684 276.349 14.3688 276.881 14.3688C277.812 14.5018 278.743 14.5018 279.542 14.5018C280.207 14.5018 281.205 14.5018 281.936 14.4353C282.801 14.3688 283.267 14.8344 283.134 15.4996C283.001 16.0318 282.601 16.4309 282.003 16.564C278.876 17.0296 278.211 19.6905 277.812 21.8857L272.69 52.4188ZM333.03 14.5018C333.828 14.4353 334.294 14.9675 334.227 15.5662C334.094 16.0318 333.695 16.4975 333.097 16.564C331.434 16.8966 330.569 18.094 329.904 19.4244C329.438 20.2226 328.972 21.287 328.374 22.6174L310.746 61.5987C310.613 61.9313 310.213 62.1974 309.814 62.1974C309.349 62.1974 309.083 61.9313 309.083 61.5987L305.49 23.083C305.424 21.7526 305.291 20.6218 305.091 19.757C304.825 18.094 304.293 16.8966 302.364 16.564C301.699 16.4975 301.433 16.0983 301.566 15.4996C301.632 14.901 302.297 14.3688 303.096 14.4353C304.559 14.5018 306.422 14.4353 307.486 14.4353C308.883 14.4353 310.546 14.4353 312.009 14.3688C312.874 14.3688 313.34 14.901 313.207 15.5662C313.14 16.0983 312.675 16.564 311.943 16.697C310.014 16.8966 309.415 17.6948 309.415 19.5574C309.415 20.3557 309.415 21.42 309.548 22.817L311.943 52.5518C311.943 52.951 312.542 52.951 312.741 52.5518L326.311 22.1517C326.844 20.8878 327.176 19.89 327.442 19.1583C327.974 17.3622 327.509 16.8301 325.912 16.6305C325.181 16.564 324.915 16.0983 324.981 15.4996C325.114 14.8344 325.846 14.3688 326.644 14.3688C327.708 14.4353 328.839 14.5018 329.904 14.5018C330.569 14.5018 331.899 14.5018 333.03 14.5018ZM369.728 38.9816C371.458 28.4712 366.801 15.3001 353.298 15.4996C340.326 15.6992 332.809 26.276 331.146 36.3207C329.417 46.831 333.94 59.8026 347.178 59.8026C359.551 59.8026 367.799 50.6892 369.728 38.9816ZM374.185 37.4516C371.857 50.2901 359.484 62.1309 345.914 62.1309C332.809 62.1309 324.428 50.7558 326.822 37.9172C329.151 25.0787 341.324 13.2379 355.027 13.2379C368.065 13.2379 376.513 24.7461 374.185 37.4516ZM412.806 48.228C413.405 48.2945 413.737 48.7601 413.538 49.3588L410.877 56.8757C410.478 58.0066 409.546 59.0709 408.349 59.5365C404.424 61.1996 398.97 62.1309 394.779 62.1309C379.612 62.1309 372.827 51.421 375.421 37.0524C378.015 22.8835 389.723 13.2379 403.493 13.2379C408.216 13.2379 412.939 14.5684 416.997 16.2979C417.995 16.697 418.527 17.6283 418.46 18.7592L417.795 25.7439C417.795 26.276 417.329 26.6752 416.797 26.6752C416.398 26.6752 416.132 26.4091 416.065 26.01C416.065 18.0274 410.677 15.167 403.227 15.167C390.189 15.167 381.674 25.0121 379.479 36.8529C377.018 50.4897 383.337 60.3348 396.242 60.3348C404.225 60.3348 408.881 56.144 411.742 48.9597C411.941 48.5606 412.34 48.228 412.806 48.228ZM435.645 50.4897C436.244 50.4897 436.51 50.9553 436.311 51.421C435.512 53.4831 433.783 58.0731 433.051 60.1352C432.852 60.7339 432.186 61.133 431.455 61.133C427.996 61.0665 426.865 61 423.339 61C419.947 61 416.421 61.0665 413.028 61.133C412.297 61.133 411.897 60.6674 412.031 60.0687C412.097 59.5365 412.563 59.0709 413.228 59.0044C416.221 58.5387 416.82 56.0774 417.352 53.2836L423.073 22.0852C423.539 19.4909 424.204 16.8301 421.077 16.4975C420.479 16.4309 420.146 15.9653 420.213 15.4331C420.346 14.7679 420.944 14.3023 421.61 14.3023C424.536 14.4353 427.33 14.4353 430.523 14.4353C433.849 14.4353 437.242 14.3688 440.368 14.3023C441.1 14.3023 441.366 14.7014 441.3 15.2336L439.703 24.0143C439.637 24.3469 439.238 24.7461 438.705 24.7461C438.173 24.7461 437.907 24.3469 437.974 24.0143C438.373 20.0231 439.304 16.3644 433.251 16.3644H429.259C428.395 16.3644 427.729 16.8966 427.596 17.6948L424.47 34.8573C424.337 35.4559 424.603 35.9216 425.401 35.9216H430.523C433.65 35.9216 434.182 32.9281 434.581 30.866C434.648 30.5334 435.047 30.2008 435.579 30.2008C436.111 30.2008 436.377 30.5334 436.311 30.866L433.982 43.3719C433.916 43.7045 433.517 44.0371 432.985 44.0371C432.452 44.0371 432.186 43.7045 432.253 43.3054C432.719 41.1102 433.583 37.6511 430.124 37.6511H425.069C424.337 37.6511 423.871 38.1168 423.738 38.7155L421.21 52.6849C420.213 58.0066 421.21 59.2705 425.468 59.2705C431.588 59.2705 432.918 55.2792 434.581 51.1549C434.714 50.8223 435.113 50.4897 435.645 50.4897ZM429.459 5.72106C428.794 6.18671 428.129 5.38846 428.794 4.78977L433.45 0.86503C433.916 0.399382 434.581 0.399382 434.847 0.86503L438.107 4.78977C438.506 5.25541 437.907 5.8541 437.442 5.8541C437.308 5.8541 437.175 5.78758 437.042 5.72106L433.982 3.39283C433.849 3.25979 433.583 3.25979 433.384 3.39283L429.459 5.72106ZM81.638 74.5018C82.4362 74.4353 82.9019 74.9675 82.8353 75.5662C82.7023 76.0318 82.3032 76.4975 81.7045 76.564C80.0415 76.8966 79.1767 78.094 78.5115 79.4244C78.0458 80.2226 77.5802 81.287 76.9815 82.6174L59.3534 121.599C59.2204 121.931 58.8213 122.197 58.4221 122.197C57.9565 122.197 57.6904 121.931 57.6904 121.599L54.0983 83.083C54.0317 81.7526 53.8987 80.6218 53.6991 79.757C53.4331 78.094 52.9009 76.8966 50.9718 76.564C50.3066 76.4975 50.0405 76.0983 50.1735 75.4996C50.2401 74.901 50.9053 74.3688 51.7035 74.4353C53.167 74.5018 55.0296 74.4353 56.0939 74.4353C57.4908 74.4353 59.1539 74.4353 60.6173 74.3688C61.4821 74.3688 61.9477 74.901 61.8147 75.5662C61.7482 76.0983 61.2825 76.564 60.5508 76.697C58.6217 76.8966 58.023 77.6948 58.023 79.5574C58.023 80.3557 58.023 81.42 58.1561 82.817L60.5508 112.552C60.5508 112.951 61.1495 112.951 61.3491 112.552L74.9193 82.1517C75.4515 80.8878 75.7841 79.89 76.0502 79.1583C76.5824 77.3622 76.1167 76.8301 74.5202 76.6305C73.7885 76.564 73.5224 76.0983 73.5889 75.4996C73.722 74.8344 74.4537 74.3688 75.2519 74.3688C76.3163 74.4353 77.4471 74.5018 78.5115 74.5018C79.1767 74.5018 80.5071 74.5018 81.638 74.5018ZM90.7586 102.84L89.3617 80.9544L80.1818 102.84C80.0487 103.172 80.1818 103.438 80.5809 103.438H90.1599C90.559 103.438 90.7586 103.172 90.7586 102.84ZM92.6212 74.1692L94.8829 113.483C95.016 115.878 95.149 117.874 98.209 118.738C98.8076 118.938 99.0072 119.403 98.8076 119.936C98.6746 120.534 97.9429 121 97.1446 121C94.1512 121 91.2243 121 88.2308 121C87.4991 121 87.1 120.534 87.233 119.936C87.2995 119.403 87.7652 118.938 88.4969 118.871C89.4282 118.805 90.426 118.539 90.8917 117.74C91.4903 116.61 91.2908 113.749 91.2243 112.552L90.8251 105.833C90.8251 105.501 90.6256 105.235 90.1599 105.235H79.7826C79.317 105.235 78.9844 105.434 78.8514 105.833L75.9244 112.685C75.1927 114.481 74.5275 116.344 74.7271 117.408C74.8601 118.206 75.6583 118.672 76.7892 118.805C77.4544 118.938 77.787 119.337 77.654 119.869C77.5209 120.534 76.8557 121 76.124 121C75.1927 120.933 73.1305 120.933 72.1327 120.933C70.6028 120.933 69.6049 120.933 68.5406 121C67.6758 121 67.2102 120.468 67.2767 119.803C67.4097 119.27 67.8089 118.805 68.5406 118.605C71.6671 118.007 72.7314 114.547 73.6627 112.419L90.0934 74.1692C90.3595 73.6371 90.8917 73.2379 91.5569 73.2379C92.1555 73.2379 92.5547 73.6371 92.6212 74.1692ZM104.98 112.884L110.634 82.3513C111.1 79.757 111.632 76.8966 108.373 76.4975C107.707 76.4309 107.375 75.9653 107.508 75.4331C107.641 74.7679 108.24 74.3023 109.038 74.3688C110.568 74.4353 112.43 74.4353 113.894 74.4353C115.357 74.4353 117.22 74.4353 118.816 74.3688C119.615 74.3023 120.014 74.8344 119.947 75.4331C119.814 76.0318 119.282 76.4309 118.617 76.4975C115.291 76.8966 114.825 79.757 114.36 82.3513L108.705 112.884C108.24 115.479 107.707 118.472 110.9 118.871C111.566 119.004 111.832 119.403 111.765 119.936C111.632 120.667 110.9 121.067 110.235 121.067C108.705 120.933 106.843 121 105.379 121C103.916 121 102.053 121 100.523 121.067C99.6584 121.133 99.1927 120.601 99.3258 120.002C99.4588 119.47 99.8579 119.004 100.59 118.871C103.982 118.472 104.514 115.545 104.98 112.884ZM153.13 102.84L151.733 80.9544L142.553 102.84C142.42 103.172 142.553 103.438 142.952 103.438H152.531C152.93 103.438 153.13 103.172 153.13 102.84ZM154.992 74.1692L157.254 113.483C157.387 115.878 157.52 117.874 160.58 118.738C161.179 118.938 161.378 119.403 161.179 119.936C161.046 120.534 160.314 121 159.516 121C156.522 121 153.595 121 150.602 121C149.87 121 149.471 120.534 149.604 119.936C149.671 119.403 150.136 118.938 150.868 118.871C151.799 118.805 152.797 118.539 153.263 117.74C153.862 116.61 153.662 113.749 153.595 112.552L153.196 105.833C153.196 105.501 152.997 105.235 152.531 105.235H142.154C141.688 105.235 141.356 105.434 141.223 105.833L138.296 112.685C137.564 114.481 136.899 116.344 137.098 117.408C137.231 118.206 138.03 118.672 139.16 118.805C139.826 118.938 140.158 119.337 140.025 119.869C139.892 120.534 139.227 121 138.495 121C137.564 120.933 135.502 120.933 134.504 120.933C132.974 120.933 131.976 120.933 130.912 121C130.047 121 129.581 120.468 129.648 119.803C129.781 119.27 130.18 118.805 130.912 118.605C134.038 118.007 135.103 114.547 136.034 112.419L152.465 74.1692C152.731 73.6371 153.263 73.2379 153.928 73.2379C154.527 73.2379 154.926 73.6371 154.992 74.1692ZM176.997 77.6283L173.538 96.3872C173.072 98.8485 175.334 99.8463 177.662 99.8463C183.183 99.8463 186.443 92.9947 187.308 88.3382C188.106 83.7483 187.64 75.9653 181.055 75.9653C180.456 75.9653 179.658 76.0318 178.859 76.0983C177.729 76.2314 177.13 76.8301 176.997 77.6283ZM172.473 102.108L170.478 112.951C170.012 115.678 169.413 118.472 172.673 118.938C173.338 119.071 173.671 119.47 173.538 120.002C173.471 120.601 172.806 121.133 172.008 121.067C170.677 121 168.948 121 167.152 121C165.555 121 163.493 121 162.362 121.133C161.497 121.2 160.965 120.667 161.098 120.002C161.231 119.47 161.63 119.071 162.362 118.938C165.821 118.472 166.287 115.678 166.753 112.951L172.407 82.1517C172.939 79.2913 173.604 76.8966 170.212 76.4975C169.48 76.4309 169.214 75.9653 169.347 75.3666C169.48 74.8344 170.145 74.3688 170.877 74.3688C173.139 74.5018 173.937 74.5018 176.465 74.5018C177.928 74.4353 180.589 74.3023 182.252 74.3023C190.434 74.3023 192.496 81.6196 191.365 87.7395C190.234 94.059 186.11 101.576 176.598 101.576C175.999 101.576 174.735 101.509 173.538 101.376C173.006 101.31 172.606 101.642 172.473 102.108ZM200.251 97.7177C205.706 97.7177 208.965 91.7973 209.897 87.0743C210.761 82.4178 210.495 75.9653 203.444 75.9653C202.845 75.9653 201.981 76.0318 201.448 76.0983C200.318 76.2314 199.918 76.8301 199.785 77.5618L196.659 94.6577C196.26 96.7864 198.189 97.7177 200.251 97.7177ZM213.954 119.004C214.62 119.071 214.952 119.47 214.886 120.002C214.753 120.601 214.154 121.067 213.489 121.067C212.757 121 211.959 121 211.227 121C210.362 121 209.298 121 208.433 121.067C207.901 121.133 207.435 120.867 207.302 120.468L200.584 99.9128C200.451 99.5802 200.118 99.3807 199.719 99.4472C198.655 99.4472 197.723 99.3807 196.659 99.2476C196.193 99.1811 195.728 99.5137 195.661 99.9128L193.266 112.951C192.801 115.678 192.136 118.406 195.528 118.871C196.127 119.004 196.459 119.403 196.393 119.936C196.26 120.534 195.661 121.067 194.796 121.067C193.133 121 191.736 121 189.874 121C188.743 121 186.88 120.933 185.151 121.067C184.286 121.133 183.754 120.601 183.887 120.002C184.02 119.47 184.486 119.004 185.151 118.938C188.743 118.406 189.076 115.612 189.608 112.884L195.195 82.1517C195.728 79.2913 196.393 76.8966 193 76.4975C192.335 76.4309 192.002 75.8988 192.136 75.3666C192.335 74.7679 192.934 74.3688 193.666 74.3688C195.927 74.4353 196.326 74.4353 198.854 74.4353C200.318 74.4353 202.579 74.3023 204.575 74.3023C213.09 74.3023 214.952 81.287 213.954 86.4756C213.09 91.1986 210.562 96.2542 204.974 98.3163C204.508 98.5159 204.309 98.915 204.375 99.3142L210.362 116.809C210.961 118.339 212.225 118.871 213.954 119.004ZM238.182 110.49C238.781 110.49 239.047 110.955 238.847 111.421C238.049 113.483 236.32 118.073 235.588 120.135C235.388 120.734 234.723 121.133 233.991 121.133C230.532 121.067 229.401 121 225.876 121C222.483 121 218.958 121.067 215.565 121.133C214.833 121.133 214.434 120.667 214.567 120.069C214.634 119.537 215.099 119.071 215.765 119.004C218.758 118.539 219.357 116.077 219.889 113.284L225.61 82.0852C226.075 79.4909 226.74 76.8301 223.614 76.4975C223.015 76.4309 222.683 75.9653 222.749 75.4331C222.882 74.7679 223.481 74.3023 224.146 74.3023C227.073 74.4353 229.867 74.4353 233.06 74.4353C236.386 74.4353 239.779 74.3688 242.905 74.3023C243.637 74.3023 243.903 74.7014 243.836 75.2336L242.24 84.0143C242.173 84.3469 241.774 84.7461 241.242 84.7461C240.71 84.7461 240.444 84.3469 240.51 84.0143C240.909 80.0231 241.841 76.3644 235.787 76.3644H231.796C230.931 76.3644 230.266 76.8966 230.133 77.6948L227.007 94.8573C226.874 95.4559 227.14 95.9216 227.938 95.9216H233.06C236.186 95.9216 236.719 92.9281 237.118 90.866C237.184 90.5334 237.583 90.2008 238.116 90.2008C238.648 90.2008 238.914 90.5334 238.847 90.866L236.519 103.372C236.453 103.705 236.053 104.037 235.521 104.037C234.989 104.037 234.723 103.705 234.79 103.305C235.255 101.11 236.12 97.6511 232.661 97.6511H227.605C226.874 97.6511 226.408 98.1168 226.275 98.7155L223.747 112.685C222.749 118.007 223.747 119.27 228.004 119.27C234.124 119.27 235.455 115.279 237.118 111.155C237.251 110.822 237.65 110.49 238.182 110.49ZM280.742 75.4331C280.675 75.9653 280.209 76.4309 279.478 76.564C275.619 76.9631 275.553 79.8235 275.087 82.5509L269.499 112.884C269.034 115.545 267.903 118.472 271.695 118.871C272.426 119.004 272.692 119.47 272.559 120.002C272.426 120.667 271.695 121.067 271.029 121.067C270.032 121 268.768 121 267.371 121C265.774 121 264.377 121 262.714 121.067C261.916 121.067 261.384 120.601 261.45 120.002C261.517 119.47 261.983 118.938 262.714 118.871C266.439 118.339 266.639 115.878 267.171 113.017L270.564 94.6577C270.63 94.2586 270.497 93.7929 270.098 93.5268L253.667 79.9566C253.401 79.6905 252.803 79.8235 252.736 80.3557L246.816 112.618C246.284 115.479 245.286 118.406 248.944 118.871C249.61 119.004 249.876 119.403 249.809 119.936C249.676 120.601 249.011 121.067 248.279 121.067C247.281 121 245.552 121 243.955 121C242.093 121 240.895 121 239.365 121.067C238.634 121.067 238.102 120.601 238.235 119.936C238.301 119.403 238.833 119.004 239.498 118.871C243.756 118.472 243.955 115.678 244.554 112.552L250.075 82.6174C250.674 79.1583 250.275 76.8301 246.417 76.4975C245.818 76.4309 245.485 76.0318 245.618 75.4331C245.685 74.901 246.284 74.4353 247.082 74.4353C247.88 74.5018 249.011 74.4353 249.543 74.4353C250.474 74.4353 251.472 74.4353 252.47 74.3688C252.869 74.3023 253.268 74.4353 253.534 74.6349L270.763 89.1364C271.029 89.4025 271.562 89.203 271.628 88.8038L272.826 82.4178C273.291 79.5574 274.023 77.0962 270.497 76.564C269.832 76.4309 269.499 76.0318 269.632 75.4331C269.832 74.7679 270.431 74.3688 271.229 74.3688C272.227 74.4353 273.424 74.4353 274.888 74.4353C276.551 74.4353 277.881 74.4353 279.544 74.3688C280.342 74.3688 280.875 74.7679 280.742 75.4331ZM289.206 119.47C303.907 119.47 313.486 111.687 316.08 97.5181C318.608 84.0143 310.426 76.2979 297.321 76.2979C295.592 76.2979 292.931 76.3644 291.135 76.564C289.938 76.6305 288.74 77.3622 288.541 78.6927L282.288 112.618C281.157 118.539 283.551 119.47 289.206 119.47ZM298.785 74.5018C312.754 74.5018 322.799 83.083 320.138 97.6511C317.278 113.217 303.973 121.2 289.272 121.2C287.543 121.2 283.352 121.133 280.758 121.133C278.496 121.133 276.168 121.2 273.839 121.266C273.241 121.266 272.775 120.8 272.908 120.135C273.041 119.537 273.573 119.071 274.106 119.004C277.032 118.672 277.831 116.809 278.496 113.35L284.217 82.1517C284.749 79.0253 284.882 76.8966 281.888 76.564C281.356 76.564 281.024 76.0983 281.09 75.5662C281.223 74.9675 281.822 74.4353 282.421 74.5018C284.416 74.5684 286.545 74.5684 288.94 74.5684C290.935 74.5684 296.057 74.5018 298.785 74.5018ZM339.271 110.49C339.869 110.49 340.135 110.955 339.936 111.421C339.138 113.483 337.408 118.073 336.676 120.135C336.477 120.734 335.811 121.133 335.08 121.133C331.621 121.067 330.49 121 326.964 121C323.572 121 320.046 121.067 316.653 121.133C315.922 121.133 315.523 120.667 315.656 120.069C315.722 119.537 316.188 119.071 316.853 119.004C319.846 118.539 320.445 116.077 320.977 113.284L326.698 82.0852C327.164 79.4909 327.829 76.8301 324.702 76.4975C324.104 76.4309 323.771 75.9653 323.838 75.4331C323.971 74.7679 324.569 74.3023 325.235 74.3023C328.162 74.4353 330.955 74.4353 334.148 74.4353C337.475 74.4353 340.867 74.3688 343.994 74.3023C344.725 74.3023 344.991 74.7014 344.925 75.2336L343.328 84.0143C343.262 84.3469 342.863 84.7461 342.331 84.7461C341.798 84.7461 341.532 84.3469 341.599 84.0143C341.998 80.0231 342.929 76.3644 336.876 76.3644H332.885C332.02 76.3644 331.355 76.8966 331.222 77.6948L328.095 94.8573C327.962 95.4559 328.228 95.9216 329.026 95.9216H334.148C337.275 95.9216 337.807 92.9281 338.206 90.866C338.273 90.5334 338.672 90.2008 339.204 90.2008C339.736 90.2008 340.002 90.5334 339.936 90.866L337.608 103.372C337.541 103.705 337.142 104.037 336.61 104.037C336.078 104.037 335.811 103.705 335.878 103.305C336.344 101.11 337.208 97.6511 333.749 97.6511H328.694C327.962 97.6511 327.496 98.1168 327.363 98.7155L324.836 112.685C323.838 118.007 324.836 119.27 329.093 119.27C335.213 119.27 336.543 115.279 338.206 111.155C338.339 110.822 338.738 110.49 339.271 110.49ZM354.224 97.7177C359.679 97.7177 362.938 91.7973 363.869 87.0743C364.734 82.4178 364.468 75.9653 357.417 75.9653C356.818 75.9653 355.953 76.0318 355.421 76.0983C354.29 76.2314 353.891 76.8301 353.758 77.5618L350.632 94.6577C350.233 96.7864 352.162 97.7177 354.224 97.7177ZM367.927 119.004C368.592 119.071 368.925 119.47 368.858 120.002C368.725 120.601 368.127 121.067 367.461 121.067C366.73 121 365.931 121 365.2 121C364.335 121 363.271 121 362.406 121.067C361.874 121.133 361.408 120.867 361.275 120.468L354.556 99.9128C354.423 99.5802 354.091 99.3807 353.692 99.4472C352.627 99.4472 351.696 99.3807 350.632 99.2476C350.166 99.1811 349.7 99.5137 349.634 99.9128L347.239 112.951C346.773 115.678 346.108 118.406 349.501 118.871C350.099 119.004 350.432 119.403 350.366 119.936C350.233 120.534 349.634 121.067 348.769 121.067C347.106 121 345.709 121 343.847 121C342.716 121 340.853 120.933 339.124 121.067C338.259 121.133 337.727 120.601 337.86 120.002C337.993 119.47 338.458 119.004 339.124 118.938C342.716 118.406 343.048 115.612 343.58 112.884L349.168 82.1517C349.7 79.2913 350.366 76.8966 346.973 76.4975C346.308 76.4309 345.975 75.8988 346.108 75.3666C346.308 74.7679 346.906 74.3688 347.638 74.3688C349.9 74.4353 350.299 74.4353 352.827 74.4353C354.29 74.4353 356.552 74.3023 358.548 74.3023C367.062 74.3023 368.925 81.287 367.927 86.4756C367.062 91.1986 364.535 96.2542 358.947 98.3163C358.481 98.5159 358.282 98.915 358.348 99.3142L364.335 116.809C364.934 118.339 366.198 118.871 367.927 119.004ZM381.711 120.867C381.378 122.663 379.649 124.06 377.919 124.06C376.19 124.06 374.992 122.663 375.325 120.867C375.658 119.137 377.321 117.74 379.117 117.74C380.846 117.74 381.977 119.137 381.711 120.867ZM387.166 73.1714C394.616 73.1714 396.346 78.4266 395.281 84.0809C394.55 88.2052 390.957 92.0634 388.496 95.589C384.837 100.578 382.509 105.966 381.378 111.421C381.245 111.887 380.713 112.286 380.114 112.286C379.449 112.286 379.117 111.82 379.25 111.354C380.114 106.033 382.376 100.445 385.702 95.1899C388.03 91.5977 390.226 88.3382 391.024 84.0809C391.49 81.5531 391.955 75.2336 386.434 75.2336C382.243 75.2336 379.981 78.4266 379.449 81.5531C379.117 83.2161 381.179 84.1474 380.78 86.3426C380.447 87.8725 378.984 88.8704 377.52 88.8704C375.059 88.8704 374.859 86.4091 375.125 84.9456C375.857 80.6218 379.582 73.1714 387.166 73.1714Z" fill="white"></path></svg>