<svg xmlns="http://www.w3.org/2000/svg" width="253" height="51" viewBox="0 0 253 51" fill="none"><rect y="0.0961914" width="253" height="50.4231" rx="8.84615" fill="#8D7D5F"></rect><path d="M45.6895 36.4807H43.1339V15.9761H45.6895V36.4807ZM70.2259 15.9761V36.4807H67.6702V25.9312C67.6702 23.3756 67.6702 20.5228 67.7297 18.294C67.0462 20.5228 66.0953 23.4053 65.2335 25.9015L61.608 36.4807H58.3986L54.7137 25.8421C53.8816 23.4053 52.9307 20.5525 52.2769 18.3534C52.3364 20.5822 52.3364 23.4053 52.3364 25.9312V36.4807H49.7807V15.9761H54.0005L60.0627 34.3114L66.0953 15.9761H70.2259ZM83.367 16.095C86.6359 16.511 88.6863 18.5615 88.6863 22.0383C88.6863 25.5152 86.3387 27.5954 83.367 27.9817C82.4458 28.1006 81.7326 28.1006 80.6925 28.1006H76.8887V36.4807H74.3331V15.9761H80.6925C81.7326 15.9761 82.4458 15.9761 83.367 16.095ZM83.2184 25.8124C84.6745 25.4855 85.9524 24.4157 85.9524 22.0383C85.9524 19.661 84.6745 18.5912 83.2184 18.2643C82.6538 18.1454 81.8514 18.1157 80.9302 18.1157H76.8887V25.961H80.9302C81.8514 25.961 82.6538 25.9312 83.2184 25.8124ZM99.0176 15.5601C105.258 15.5601 108.705 19.9581 108.705 26.2284C108.705 32.4689 105.258 36.8967 99.0176 36.8967C92.777 36.8967 89.3299 32.4689 89.3299 26.2284C89.3299 19.9581 92.777 15.5601 99.0176 15.5601ZM99.0176 34.876C103.326 34.876 105.852 31.5477 105.852 26.2284C105.852 20.8794 103.326 17.5808 99.0176 17.5808C94.7086 17.5808 92.1827 20.8794 92.1827 26.2284C92.1827 31.5477 94.7086 34.876 99.0176 34.876ZM125.118 31.102C125.356 33.7765 125.653 35.3812 126.485 36.4807H123.662C123.097 35.1732 122.83 33.8656 122.562 31.3397C122.325 29.2298 121.522 27.8331 119.502 27.6845C119.026 27.6548 118.521 27.6548 118.045 27.6548H114.182V36.4807H111.627V15.9761H118.343C119.383 15.9761 120.096 15.9761 121.017 16.095C123.989 16.4813 126.128 18.1157 126.128 21.5629C126.128 24.2671 124.375 25.8124 122.473 26.4067C124.137 27.1793 124.94 29.0515 125.118 31.102ZM114.182 25.5746H118.105C119.026 25.5746 119.531 25.5746 120.096 25.5152C121.998 25.3369 123.394 24.1185 123.394 21.8006C123.394 19.5124 122.295 18.4723 120.393 18.1751C119.828 18.086 119.264 18.0563 118.343 18.0563H114.182V25.5746ZM144.052 18.0563H136.741V36.4807H134.186V18.0563H126.875V15.9761H144.052V18.0563ZM154.624 29.2298H147.076L144.669 36.4807H141.935L149.304 15.9761H152.752L159.824 36.4807H157.061L154.624 29.2298ZM147.789 27.1496H153.94L150.969 17.9968L147.789 27.1496ZM177.882 36.4807H173.96L164.302 18.4723C164.361 20.8794 164.391 23.8213 164.391 26.2284V36.4807H161.835V15.9761H165.758L175.416 33.9845C175.356 31.5774 175.327 28.6355 175.327 26.2284V15.9761H177.823L177.882 36.4807ZM197.192 18.0563H189.881V36.4807H187.326V18.0563H180.015V15.9761H197.192V18.0563ZM212.624 34.4005V36.4807H198.984V15.9761H212.326V18.0563H201.539V25.1883H211.435V27.2685H201.539V34.4005H212.624Z" fill="white"></path></svg>