<svg xmlns="http://www.w3.org/2000/svg" width="312" height="38" viewBox="0 0 312 38" fill="none"><path d="M50.496 4.024C53.056 4.328 54.944 6.008 54.944 9.352C54.944 12.648 52.992 14.616 50.432 14.936C49.872 15 49.616 15 49.024 15H45.52V3.96H49.088C49.68 3.96 49.936 3.96 50.496 4.024ZM50.128 13.528C51.904 13.272 53.056 11.8 53.056 9.352C53.056 7.032 51.952 5.688 50.192 5.432C49.84 5.368 49.456 5.352 48.928 5.352H47.28V13.592H48.864C49.408 13.592 49.776 13.592 50.128 13.528ZM57.324 3.544C57.916 3.544 58.364 3.976 58.364 4.552C58.364 5.144 57.916 5.576 57.324 5.576C56.732 5.576 56.3 5.144 56.3 4.552C56.3 3.976 56.732 3.544 57.324 3.544ZM58.204 15H56.444V6.504H58.204V15ZM65.1956 15L65.0356 13.768L64.6036 14.68C64.0276 15.08 63.2916 15.224 62.4916 15.224C60.9876 15.224 59.7556 14.36 59.7556 12.776C59.7556 10.888 61.2596 9.864 64.4756 9.864H65.0196V9.656C65.0196 9.336 65.0196 9.048 64.9876 8.728C64.9396 8.04 64.5076 7.56 63.4996 7.56C62.4756 7.56 61.9476 8.136 61.8516 9.192H60.0916C60.2036 7.336 61.5956 6.28 63.5316 6.28C65.7236 6.28 66.5876 7.208 66.7316 8.648C66.7636 9 66.7796 9.448 66.7796 9.848V12.84C66.7796 13.48 66.8116 14.056 66.9396 15H65.1956ZM63.1316 13.944C64.2356 13.944 65.0196 13.192 65.0196 11.816V11.032C62.9556 10.872 61.6116 11.336 61.6116 12.632C61.6116 13.528 62.2036 13.944 63.1316 13.944ZM74.4753 13.592H79.5473V15H71.8513V14.104L75.7073 10.216C77.0993 8.84 77.7073 8.04 77.7073 6.984C77.7073 5.912 77.0993 5.064 75.8993 5.064C74.6353 5.064 74.0113 5.864 73.8673 7.32L73.8513 7.48H72.0913L72.1073 7.32C72.3313 4.984 73.7553 3.72 76.0913 3.72C78.4273 3.72 79.6113 5.08 79.6113 6.824C79.6113 8.28 78.8433 9.304 76.9073 11.192L74.4753 13.592ZM89.4286 12.296H88.0366V15H86.2926V12.296H80.8846V11.384L86.2286 3.96H88.0366V10.888H89.4286V12.296ZM86.2926 10.888V6.104C86.0526 6.52 85.7966 6.952 85.4606 7.4L82.9486 10.888H86.2926ZM101.839 3.24V15H100.079V13.656L99.4389 14.584C98.9589 14.968 98.0789 15.224 97.2149 15.224C94.7829 15.224 93.3909 13.384 93.3909 10.888C93.3909 7.784 95.3109 6.28 97.5029 6.28C98.2069 6.28 99.0869 6.472 99.5189 6.808L100.079 7.656V3.24H101.839ZM97.6149 13.944C98.9429 13.944 100.079 13.112 100.079 10.84V10.392C100.079 8.328 98.8309 7.56 97.6949 7.56C96.3029 7.56 95.2469 8.632 95.2469 10.744C95.2469 12.584 96.0949 13.944 97.6149 13.944ZM111.245 10.536C111.245 10.696 111.245 10.936 111.213 11.24H105.117C105.261 13.272 106.189 13.944 107.341 13.944C108.365 13.944 109.165 13.32 109.341 12.248H111.117C110.749 14.264 109.133 15.224 107.277 15.224C105.005 15.224 103.293 13.784 103.293 10.776C103.293 8.088 105.005 6.28 107.453 6.28C109.917 6.28 111.245 8.136 111.245 10.536ZM107.389 7.56C106.189 7.56 105.325 8.376 105.133 10.008H109.437C109.309 8.44 108.621 7.56 107.389 7.56ZM127.719 3.96V15H125.975V9.576C125.975 8.312 125.975 6.792 126.007 5.624C125.687 6.792 125.223 8.312 124.807 9.56L123.031 15H120.999L119.207 9.544C118.807 8.312 118.343 6.808 118.039 5.64C118.071 6.824 118.071 8.312 118.071 9.576V15H116.311V3.96H119.143L122.055 13.432L124.967 3.96H127.719ZM134.709 15L134.549 13.768L134.117 14.68C133.541 15.08 132.805 15.224 132.005 15.224C130.501 15.224 129.269 14.36 129.269 12.776C129.269 10.888 130.773 9.864 133.989 9.864H134.533V9.656C134.533 9.336 134.533 9.048 134.501 8.728C134.453 8.04 134.021 7.56 133.013 7.56C131.989 7.56 131.461 8.136 131.365 9.192H129.605C129.717 7.336 131.109 6.28 133.045 6.28C135.237 6.28 136.101 7.208 136.245 8.648C136.277 9 136.293 9.448 136.293 9.848V12.84C136.293 13.48 136.325 14.056 136.453 15H134.709ZM132.645 13.944C133.749 13.944 134.533 13.192 134.533 11.816V11.032C132.469 10.872 131.125 11.336 131.125 12.632C131.125 13.528 131.717 13.944 132.645 13.944ZM142.164 6.296C142.404 6.296 142.58 6.328 142.756 6.392V7.768C141.14 7.656 140.132 8.488 140.132 10.584V15H138.372V6.504H140.132V7.944L140.852 6.776C141.236 6.472 141.732 6.296 142.164 6.296ZM147.071 13.944C148.079 13.944 148.799 13.336 149.055 12.184H150.847C150.463 14.104 149.135 15.112 147.295 15.208L147.071 15.656C147.951 15.768 148.415 16.216 148.415 16.952C148.415 17.896 147.519 18.36 146.271 18.36C145.967 18.36 145.679 18.328 145.439 18.232V17.416C145.727 17.544 145.999 17.576 146.303 17.576C146.975 17.576 147.295 17.336 147.295 16.952C147.295 16.456 146.879 16.216 145.759 16.296L146.335 15.176C144.431 14.936 143.071 13.528 143.071 10.792C143.071 7.896 144.959 6.28 147.183 6.28C149.327 6.28 150.687 7.576 150.895 9.448H149.119C148.863 8.152 148.175 7.56 147.135 7.56C145.903 7.56 144.927 8.536 144.927 10.664C144.927 12.968 145.887 13.944 147.071 13.944ZM155.919 6.28C158.767 6.28 160.223 8.264 160.223 10.744C160.223 13.224 158.767 15.224 155.919 15.224C153.055 15.224 151.615 13.224 151.615 10.744C151.615 8.264 153.055 6.28 155.919 6.28ZM155.919 13.944C157.455 13.944 158.351 12.664 158.351 10.744C158.351 8.824 157.455 7.56 155.919 7.56C154.367 7.56 153.471 8.824 153.471 10.744C153.471 12.664 154.367 13.944 155.919 13.944ZM163.066 13.272L161.562 16.936H160.026L161.29 13.112H163.066V13.272ZM171.138 5.752L169.506 3.928H171.106L172.194 5.752H171.138ZM173.202 15L173.042 13.768L172.61 14.68C172.034 15.08 171.298 15.224 170.498 15.224C168.994 15.224 167.762 14.36 167.762 12.776C167.762 10.888 169.266 9.864 172.482 9.864H173.026V9.656C173.026 9.336 173.026 9.048 172.994 8.728C172.946 8.04 172.514 7.56 171.506 7.56C170.482 7.56 169.954 8.136 169.858 9.192H168.098C168.21 7.336 169.602 6.28 171.538 6.28C173.73 6.28 174.594 7.208 174.738 8.648C174.77 9 174.786 9.448 174.786 9.848V12.84C174.786 13.48 174.818 14.056 174.946 15H173.202ZM171.138 13.944C172.242 13.944 173.026 13.192 173.026 11.816V11.032C170.962 10.872 169.618 11.336 169.618 12.632C169.618 13.528 170.21 13.944 171.138 13.944ZM179.601 6.28C181.553 6.28 182.641 7.384 182.833 8.936H181.041C180.865 8.04 180.337 7.512 179.473 7.512C178.641 7.512 178.241 7.976 178.241 8.616C178.241 9.384 178.865 9.704 180.129 10.04C181.985 10.52 182.961 11.256 182.961 12.76C182.961 14.408 181.505 15.224 179.649 15.224C177.761 15.224 176.369 14.376 176.129 12.456H177.905C178.113 13.544 178.833 13.976 179.713 13.976C180.529 13.976 181.185 13.624 181.185 12.888C181.185 12.152 180.609 11.752 179.169 11.368C177.617 10.968 176.465 10.312 176.465 8.824C176.465 7.24 177.713 6.28 179.601 6.28ZM189.931 13.592H195.003V15H187.307V14.104L191.163 10.216C192.555 8.84 193.163 8.04 193.163 6.984C193.163 5.912 192.555 5.064 191.355 5.064C190.091 5.064 189.467 5.864 189.323 7.32L189.307 7.48H187.547L187.563 7.32C187.787 4.984 189.211 3.72 191.547 3.72C193.883 3.72 195.067 5.08 195.067 6.824C195.067 8.28 194.299 9.304 192.363 11.192L189.931 13.592ZM200.596 3.736C203.684 3.736 204.724 6.136 204.724 9.48C204.724 12.792 203.684 15.224 200.596 15.224C197.524 15.224 196.468 12.792 196.468 9.48C196.468 6.136 197.524 3.736 200.596 3.736ZM200.596 13.88C202.18 13.88 202.82 12.312 202.82 9.48C202.82 6.616 202.18 5.08 200.596 5.08C199.028 5.08 198.372 6.616 198.372 9.48C198.372 12.312 199.028 13.88 200.596 13.88ZM213.854 8.712C213.886 9.144 213.902 9.528 213.902 10.216V15H212.142V10.408C212.142 10.008 212.142 9.64 212.11 9.208C212.03 8.248 211.518 7.56 210.318 7.576C209.102 7.608 208.11 8.536 208.11 11.192V15H206.35V3.16H208.11V7.912L208.686 6.936C209.358 6.424 209.982 6.28 210.83 6.28C212.654 6.28 213.694 7.224 213.854 8.712ZM220.63 18.2H219.478V2.2H220.63V18.2ZM233.76 8.712C233.792 9.144 233.808 9.528 233.808 10.216V15H232.048V10.408C232.048 10.008 232.048 9.64 232.016 9.208C231.936 8.248 231.424 7.576 230.224 7.576C229.008 7.576 228.016 8.536 228.016 11.192V15H226.256V6.504H228.016V7.912L228.592 6.936C229.264 6.424 229.888 6.28 230.736 6.28C232.56 6.28 233.6 7.224 233.76 8.712ZM239.464 6.28C242.312 6.28 243.768 8.264 243.768 10.744C243.768 13.224 242.312 15.224 239.464 15.224C236.6 15.224 235.16 13.224 235.16 10.744C235.16 8.264 236.6 6.28 239.464 6.28ZM239.464 13.944C241 13.944 241.896 12.664 241.896 10.744C241.896 8.824 241 7.56 239.464 7.56C237.912 7.56 237.016 8.824 237.016 10.744C237.016 12.664 237.912 13.944 239.464 13.944ZM253.124 10.68V15H251.38V10.68L247.476 3.96H249.476L252.324 9.064L255.076 3.96H257.028L253.124 10.68ZM260.155 6.28C263.003 6.28 264.459 8.264 264.459 10.744C264.459 13.224 263.003 15.224 260.155 15.224C257.291 15.224 255.851 13.224 255.851 10.744C255.851 8.264 257.291 6.28 260.155 6.28ZM260.155 13.944C261.691 13.944 262.587 12.664 262.587 10.744C262.587 8.824 261.691 7.56 260.155 7.56C258.603 7.56 257.707 8.824 257.707 10.744C257.707 12.664 258.603 13.944 260.155 13.944ZM273.255 6.504V15H271.511V13.544L270.919 14.6C270.247 15.08 269.623 15.224 268.775 15.224C267.015 15.224 265.991 14.232 265.799 13.064C265.735 12.632 265.719 12.248 265.719 11.56V6.504H267.463V11.208C267.463 11.48 267.479 11.944 267.527 12.376C267.655 13.304 268.263 13.912 269.351 13.912C270.583 13.912 271.511 12.968 271.511 10.504V6.504H273.255ZM284.159 5.352H280.303V15H278.559V5.352H274.703V3.96H284.159V5.352ZM291.779 6.504V15H290.035V13.544L289.443 14.6C288.771 15.08 288.147 15.224 287.299 15.224C285.539 15.224 284.515 14.232 284.323 13.064C284.259 12.632 284.243 12.248 284.243 11.56V6.504H285.987V11.208C285.987 11.48 286.003 11.944 286.051 12.376C286.179 13.304 286.787 13.912 287.875 13.912C289.107 13.912 290.035 12.968 290.035 10.504V6.504H291.779ZM298.491 6.28C300.923 6.28 302.315 8.12 302.315 10.6C302.315 13.72 300.395 15.224 298.203 15.224C297.499 15.224 296.619 15.032 296.187 14.696L295.627 13.848V15H293.867V3.24H295.627V7.832L296.267 6.92C296.747 6.52 297.627 6.28 298.491 6.28ZM297.995 13.944C299.403 13.944 300.459 12.872 300.459 10.76C300.459 8.92 299.611 7.56 298.075 7.56C296.763 7.56 295.627 8.392 295.627 10.664V11.096C295.627 13.176 296.875 13.944 297.995 13.944ZM311.035 10.536C311.035 10.696 311.035 10.936 311.003 11.24H304.907C305.051 13.272 305.979 13.944 307.131 13.944C308.155 13.944 308.955 13.32 309.131 12.248H310.907C310.539 14.264 308.923 15.224 307.067 15.224C304.795 15.224 303.083 13.784 303.083 10.776C303.083 8.088 304.795 6.28 307.243 6.28C309.707 6.28 311.035 8.136 311.035 10.536ZM307.179 7.56C305.979 7.56 305.115 8.376 304.923 10.008H309.227C309.099 8.44 308.411 7.56 307.179 7.56ZM53.152 32.592V34H45.52V22.96H52.992V24.352H47.28V27.776H52.544V29.168H47.28V32.592H53.152ZM61.9938 25.504L58.7458 34H56.6978L53.4498 25.504H55.3858L57.7698 32.704L60.1218 25.504H61.9938ZM70.096 29.536C70.096 29.696 70.096 29.936 70.064 30.24H63.968C64.112 32.272 65.04 32.944 66.192 32.944C67.216 32.944 68.016 32.32 68.192 31.248H69.968C69.6 33.264 67.984 34.224 66.128 34.224C63.856 34.224 62.144 32.784 62.144 29.776C62.144 27.088 63.856 25.28 66.304 25.28C68.768 25.28 70.096 27.136 70.096 29.536ZM66.24 26.56C65.04 26.56 64.176 27.376 63.984 29.008H68.288C68.16 27.44 67.472 26.56 66.24 26.56ZM79.1124 27.712C79.1444 28.144 79.1604 28.528 79.1604 29.216V34H77.4004V29.408C77.4004 29.008 77.4004 28.64 77.3684 28.208C77.2884 27.248 76.7764 26.576 75.5764 26.576C74.3604 26.576 73.3684 27.536 73.3684 30.192V34H71.6084V25.504H73.3684V26.912L73.9444 25.936C74.6164 25.424 75.2404 25.28 76.0884 25.28C77.9124 25.28 78.9524 26.224 79.1124 27.712ZM83.2475 26.8V31.248C83.2475 31.536 83.2475 31.728 83.2635 31.952C83.3275 32.784 83.6475 32.96 84.7995 32.848V34.064C84.3515 34.128 83.9355 34.16 83.5035 34.16C82.1755 34.16 81.5995 33.664 81.5195 32.544C81.5035 32.256 81.5035 31.888 81.5035 31.408V26.8H80.3035V25.568H81.5035V23.536H83.2475V25.568H84.9115V26.8H83.2475ZM89.8274 25.28C92.6754 25.28 94.1314 27.264 94.1314 29.744C94.1314 32.224 92.6754 34.224 89.8274 34.224C86.9634 34.224 85.5234 32.224 85.5234 29.744C85.5234 27.264 86.9634 25.28 89.8274 25.28ZM89.8274 32.944C91.3634 32.944 92.2594 31.664 92.2594 29.744C92.2594 27.824 91.3634 26.56 89.8274 26.56C88.2754 26.56 87.3794 27.824 87.3794 29.744C87.3794 31.664 88.2754 32.944 89.8274 32.944ZM104.464 22.96V34H102.704V24.8L99.5839 26.592V24.864L102.016 23.376C102.528 23.072 102.992 22.96 103.488 22.96H104.464ZM111.801 22.736C114.889 22.736 115.929 25.136 115.929 28.48C115.929 31.792 114.889 34.224 111.801 34.224C108.729 34.224 107.673 31.792 107.673 28.48C107.673 25.136 108.729 22.736 111.801 22.736ZM111.801 32.88C113.385 32.88 114.025 31.312 114.025 28.48C114.025 25.616 113.385 24.08 111.801 24.08C110.233 24.08 109.577 25.616 109.577 28.48C109.577 31.312 110.233 32.88 111.801 32.88ZM121.251 22.736C124.339 22.736 125.379 25.136 125.379 28.48C125.379 31.792 124.339 34.224 121.251 34.224C118.179 34.224 117.123 31.792 117.123 28.48C117.123 25.136 118.179 22.736 121.251 22.736ZM121.251 32.88C122.835 32.88 123.475 31.312 123.475 28.48C123.475 25.616 122.835 24.08 121.251 24.08C119.683 24.08 119.027 25.616 119.027 28.48C119.027 31.312 119.683 32.88 121.251 32.88ZM128.94 22.784C130.412 22.784 131.356 23.76 131.356 25.36C131.356 26.96 130.412 27.952 128.94 27.952C127.452 27.952 126.524 26.96 126.524 25.36C126.524 23.76 127.452 22.784 128.94 22.784ZM129.116 34H127.58L134.748 22.96H136.284L129.116 34ZM128.94 23.84C128.332 23.84 127.964 24.368 127.964 25.36C127.964 26.352 128.332 26.896 128.94 26.896C129.532 26.896 129.916 26.352 129.916 25.36C129.916 24.368 129.532 23.84 128.94 23.84ZM134.876 29.056C136.364 29.056 137.292 30.032 137.292 31.632C137.292 33.232 136.364 34.224 134.876 34.224C133.404 34.224 132.46 33.232 132.46 31.632C132.46 30.032 133.404 29.056 134.876 29.056ZM134.876 30.112C134.284 30.112 133.9 30.64 133.9 31.632C133.9 32.624 134.284 33.168 134.876 33.168C135.484 33.168 135.852 32.624 135.852 31.632C135.852 30.64 135.484 30.112 134.876 30.112ZM147.005 22.736C150.381 22.736 152.317 25.056 152.317 28.48C152.317 31.888 150.381 34.224 147.005 34.224C143.613 34.224 141.677 31.888 141.677 28.48C141.677 25.056 143.613 22.736 147.005 22.736ZM147.005 32.88C149.149 32.88 150.429 31.216 150.429 28.48C150.429 25.728 149.149 24.08 147.005 24.08C144.845 24.08 143.565 25.728 143.565 28.48C143.565 31.216 144.845 32.88 147.005 32.88ZM161.34 27.712C161.372 28.144 161.388 28.528 161.388 29.216V34H159.628V29.408C159.628 29.008 159.628 28.64 159.596 28.208C159.516 27.248 159.004 26.576 157.804 26.576C156.588 26.576 155.596 27.536 155.596 30.192V34H153.836V25.504H155.596V26.912L156.172 25.936C156.844 25.424 157.468 25.28 158.316 25.28C160.14 25.28 161.18 26.224 161.34 27.712ZM165.076 22.24V31.408C165.076 31.696 165.076 31.952 165.092 32.208C165.124 32.688 165.348 32.848 166.1 32.784V34.016C165.748 34.064 165.348 34.096 164.948 34.096C164.02 34.096 163.396 33.76 163.332 32.672C163.316 32.352 163.316 31.968 163.316 31.456V22.24H165.076ZM168.287 22.544C168.879 22.544 169.327 22.976 169.327 23.552C169.327 24.144 168.879 24.576 168.287 24.576C167.695 24.576 167.263 24.144 167.263 23.552C167.263 22.976 167.695 22.544 168.287 22.544ZM169.167 34H167.407V25.504H169.167V34ZM178.767 27.712C178.799 28.144 178.815 28.528 178.815 29.216V34H177.055V29.408C177.055 29.008 177.055 28.64 177.023 28.208C176.943 27.248 176.431 26.576 175.231 26.576C174.015 26.576 173.023 27.536 173.023 30.192V34H171.263V25.504H173.023V26.912L173.599 25.936C174.271 25.424 174.895 25.28 175.743 25.28C177.567 25.28 178.607 26.224 178.767 27.712ZM188.118 29.536C188.118 29.696 188.118 29.936 188.086 30.24H181.99C182.134 32.272 183.062 32.944 184.214 32.944C185.238 32.944 186.038 32.32 186.214 31.248H187.99C187.622 33.264 186.006 34.224 184.15 34.224C181.878 34.224 180.166 32.784 180.166 29.776C180.166 27.088 181.878 25.28 184.326 25.28C186.79 25.28 188.118 27.136 188.118 29.536ZM184.262 26.56C183.062 26.56 182.198 27.376 182.006 29.008H186.31C186.182 27.44 185.494 26.56 184.262 26.56ZM200.079 29.536C200.079 29.696 200.079 29.936 200.047 30.24H193.951C194.095 32.272 195.023 32.944 196.175 32.944C197.199 32.944 197.999 32.32 198.175 31.248H199.951C199.583 33.264 197.967 34.224 196.111 34.224C193.839 34.224 192.127 32.784 192.127 29.776C192.127 27.088 193.839 25.28 196.287 25.28C198.751 25.28 200.079 27.136 200.079 29.536ZM196.223 26.56C195.023 26.56 194.159 27.376 193.967 29.008H198.271C198.143 27.44 197.455 26.56 196.223 26.56ZM210.056 28.528H214.232V34H212.76L212.696 32.128L212.2 33.2C211.576 33.872 210.648 34.224 209.416 34.224C206.264 34.224 204.408 31.888 204.408 28.528C204.408 25.056 206.616 22.736 209.72 22.736C212.616 22.736 214.12 24.336 214.344 26.512L214.36 26.672H212.6L212.568 26.512C212.28 25.024 211.368 24.08 209.688 24.08C207.64 24.08 206.312 25.84 206.312 28.448C206.312 31.184 207.64 32.88 209.608 32.88C211.24 32.88 212.424 31.712 212.52 29.936H210.056V28.528ZM219.907 25.296C220.147 25.296 220.323 25.328 220.499 25.392V26.768C218.883 26.656 217.875 27.488 217.875 29.584V34H216.115V25.504H217.875V26.944L218.595 25.776C218.979 25.472 219.475 25.296 219.907 25.296ZM226.492 34L226.332 32.768L225.9 33.68C225.324 34.08 224.588 34.224 223.788 34.224C222.284 34.224 221.052 33.36 221.052 31.776C221.052 29.888 222.556 28.864 225.772 28.864H226.316V28.656C226.316 28.336 226.316 28.048 226.284 27.728C226.236 27.04 225.804 26.56 224.796 26.56C223.772 26.56 223.244 27.136 223.148 28.192H221.388C221.5 26.336 222.892 25.28 224.828 25.28C227.02 25.28 227.884 26.208 228.028 27.648C228.06 28 228.076 28.448 228.076 28.848V31.84C228.076 32.48 228.108 33.056 228.236 34H226.492ZM224.428 32.944C225.532 32.944 226.316 32.192 226.316 30.816V30.032C224.252 29.872 222.908 30.336 222.908 31.632C222.908 32.528 223.5 32.944 224.428 32.944ZM232.251 26.8V31.248C232.251 31.536 232.251 31.728 232.267 31.952C232.331 32.784 232.651 32.96 233.803 32.848V34.064C233.355 34.128 232.939 34.16 232.507 34.16C231.179 34.16 230.603 33.664 230.523 32.544C230.507 32.256 230.507 31.888 230.507 31.408V26.8H229.307V25.568H230.507V23.536H232.251V25.568H233.915V26.8H232.251ZM242.762 25.504V34H241.018V32.544L240.426 33.6C239.754 34.08 239.13 34.224 238.282 34.224C236.522 34.224 235.498 33.232 235.306 32.064C235.242 31.632 235.226 31.248 235.226 30.56V25.504H236.97V30.208C236.97 30.48 236.986 30.944 237.034 31.376C237.162 32.304 237.77 32.912 238.858 32.912C240.09 32.912 241.018 31.968 241.018 29.504V25.504H242.762ZM245.73 22.544C246.322 22.544 246.77 22.976 246.77 23.552C246.77 24.144 246.322 24.576 245.73 24.576C245.138 24.576 244.706 24.144 244.706 23.552C244.706 22.976 245.138 22.544 245.73 22.544ZM246.61 34H244.85V25.504H246.61V34ZM250.802 26.8V31.248C250.802 31.536 250.802 31.728 250.818 31.952C250.882 32.784 251.202 32.96 252.354 32.848V34.064C251.906 34.128 251.49 34.16 251.058 34.16C249.73 34.16 249.154 33.664 249.074 32.544C249.058 32.256 249.058 31.888 249.058 31.408V26.8H247.858V25.568H249.058V23.536H250.802V25.568H252.466V26.8H250.802ZM257.382 25.28C260.23 25.28 261.686 27.264 261.686 29.744C261.686 32.224 260.23 34.224 257.382 34.224C254.518 34.224 253.078 32.224 253.078 29.744C253.078 27.264 254.518 25.28 257.382 25.28ZM257.382 32.944C258.918 32.944 259.814 31.664 259.814 29.744C259.814 27.824 258.918 26.56 257.382 26.56C255.83 26.56 254.934 27.824 254.934 29.744C254.934 31.664 255.83 32.944 257.382 32.944ZM263.745 31.888C264.417 31.888 264.913 32.368 264.913 33.056C264.913 33.728 264.417 34.224 263.745 34.224C263.057 34.224 262.577 33.728 262.577 33.056C262.577 32.368 263.057 31.888 263.745 31.888Z" fill="white"></path><mask id="mask0_204_44" style="mask-type:alpha" maskUnits="userSpaceOnUse" x="0" y="2" width="34" height="34"><rect y="2" width="34" height="34" fill="#D9D9D9"></rect></mask><g mask="url(#mask0_204_44)"><path d="M13.4583 23.9583L23.375 17.5833L13.4583 11.2083V23.9583ZM11.3333 31.75V28.9167H5.66666C4.88749 28.9167 4.22048 28.6392 3.66562 28.0844C3.11076 27.5295 2.83333 26.8625 2.83333 26.0833V9.08333C2.83333 8.30417 3.11076 7.63715 3.66562 7.08229C4.22048 6.52743 4.88749 6.25 5.66666 6.25H28.3333C29.1125 6.25 29.7795 6.52743 30.3344 7.08229C30.8892 7.63715 31.1667 8.30417 31.1667 9.08333V26.0833C31.1667 26.8625 30.8892 27.5295 30.3344 28.0844C29.7795 28.6392 29.1125 28.9167 28.3333 28.9167H22.6667V31.75H11.3333ZM5.66666 26.0833H28.3333V9.08333H5.66666V26.0833Z" fill="#FFDEA3"></path></g></svg>