<svg xmlns="http://www.w3.org/2000/svg" width="332" height="123" viewBox="0 0 332 123" fill="none"><path d="M70.3371 29.675C72.2871 17.825 67.0371 2.975 51.8121 3.2C37.1871 3.425 28.7121 15.35 26.8371 26.675C24.8871 38.525 29.9871 53.15 44.9121 53.15C58.8621 53.15 68.1621 42.875 70.3371 29.675ZM75.3621 27.95C72.7371 42.425 58.7871 55.775 43.4871 55.775C28.7121 55.775 19.2621 42.95 21.9621 28.475C24.5871 14 38.3121 0.649996 53.7621 0.649996C68.4621 0.649996 77.9871 13.625 75.3621 27.95ZM108.914 51.275C114.539 51.275 118.664 40.925 119.939 35L120.539 31.85C121.214 27.875 120.464 22.4 115.964 22.4C106.589 22.4 104.264 38.225 104.564 43.7C104.714 47 105.614 51.275 108.914 51.275ZM126.389 22.325L118.364 64.7C117.839 67.4 117.614 69.05 120.539 69.35C121.364 69.425 121.739 69.95 121.589 70.55C121.514 71.225 120.764 71.825 119.864 71.75C118.439 71.75 116.864 71.675 115.439 71.675C114.014 71.675 112.364 71.675 110.939 71.75C110.039 71.75 109.439 71.225 109.589 70.55C109.739 69.95 110.189 69.425 111.014 69.275C113.489 68.975 113.939 67.1 114.389 64.7L117.989 46.775C118.064 46.325 117.464 46.175 117.239 46.475C115.139 50.825 111.689 55.775 106.814 55.775C100.814 55.775 100.139 49.7 99.9891 46.025C99.6141 38.525 104.414 20.075 115.214 20.075C118.964 20.075 120.989 21.95 121.889 24.35C122.114 24.725 122.714 24.8 122.939 24.425L123.989 21.95C124.289 21.275 124.664 21.05 125.339 21.05C126.014 21.05 126.539 21.65 126.389 22.325ZM127.964 30.65C127.514 30.425 127.289 29.975 127.514 29.675L130.439 25.25C131.789 23.375 134.114 20.075 136.889 20.075C138.089 20.075 138.914 21.575 139.139 23.075C139.289 23.9 139.214 24.8 139.139 25.7C138.989 27.275 134.864 47.525 134.864 47.525C134.564 48.8 134.489 51.275 136.964 51.275C144.539 51.275 149.114 37.325 150.314 30.95L151.889 22.175C151.964 21.725 152.339 21.35 153.014 21.35H154.664C155.489 21.35 155.939 21.95 155.864 22.55C154.514 29.975 151.964 44.375 150.539 51.65C150.464 52.175 151.214 52.4 151.514 52.025L156.989 45.425C157.289 45.125 157.814 44.975 158.264 45.2C158.714 45.425 158.864 45.95 158.639 46.25L155.789 50.6C154.439 52.475 151.739 55.775 148.964 55.775C147.839 55.775 147.014 54.35 146.789 52.775C146.639 51.95 146.714 51.05 146.789 50.15C146.864 49.775 147.539 46.175 147.689 44.975C147.764 44.6 147.239 44.525 147.089 44.825C145.064 49.325 140.789 55.775 135.314 55.775C129.614 55.775 130.364 50.15 130.964 47.15L135.539 24.2C135.689 23.675 134.939 23.45 134.639 23.825L129.164 30.425C128.939 30.725 128.414 30.8 127.964 30.65ZM174.069 22.7C168.744 22.7 166.119 30.95 165.144 35.375C165.069 35.825 165.444 36.2 165.969 36.125C172.269 35 177.744 32.375 177.519 26.675C177.369 24.65 176.619 22.7 174.069 22.7ZM178.719 46.4C179.244 46.625 179.319 47.15 179.094 47.525C177.069 50.75 172.869 55.775 168.069 55.775C159.744 55.775 159.894 43.625 160.794 38.9C161.769 33.575 165.744 20.075 174.819 20.075C179.394 20.075 181.644 23.225 181.794 26.6C182.169 34.175 173.394 36.875 165.294 37.625C164.619 37.775 164.544 38.3 164.544 38.9C164.094 42.2 163.794 51.125 169.869 51.125C173.094 51.125 175.569 48.95 177.294 46.85C177.669 46.475 178.194 46.175 178.719 46.4ZM226.042 20.15C229.942 20.15 233.092 23.9 233.092 31.775C232.867 43.775 225.592 55.85 217.267 55.85C211.117 55.85 208.942 51.575 210.592 44.375L214.867 24.275C215.017 23.75 214.267 23.525 213.892 23.9L208.492 30.425C208.267 30.8 207.667 30.95 207.217 30.725C206.767 30.425 206.692 29.975 206.917 29.6L209.767 25.325C211.042 23.45 213.667 20.15 216.142 20.15C217.342 20.15 218.167 21.5 218.467 22.925C218.617 23.75 218.617 24.65 218.542 25.55C218.467 26.3 214.942 42.8 214.942 42.8C213.742 48.425 213.967 51.35 217.717 51.35C224.917 51.35 231.142 41.3 231.142 31.925C231.142 26.45 229.492 23.75 227.917 23.75C225.592 23.75 225.292 25.925 223.417 25.925C222.367 25.925 221.092 24.725 221.617 22.7C222.067 20.9 224.092 20.15 226.042 20.15ZM260.837 37.85C259.787 43.25 254.537 55.85 245.462 55.85C235.487 55.85 234.962 44 236.087 38.15C237.062 32.675 242.012 20.15 251.312 20.15C261.437 20.15 261.887 31.925 260.837 37.85ZM256.187 38.375C256.712 34.475 257.237 22.25 250.337 22.4C243.662 22.625 241.262 33.8 240.737 37.625C240.212 41.45 239.762 53.675 246.587 53.45C253.112 53.3 255.662 42.2 256.187 38.375ZM283.037 46.85C283.487 47.15 283.487 47.675 283.187 48.05C280.712 51.125 276.062 55.775 271.262 55.775C263.687 55.775 262.937 44.15 263.762 39.875C264.962 33.425 270.137 20.075 280.412 20.075C285.062 20.075 287.312 23.75 286.487 27.05C286.112 28.475 285.137 29.825 283.337 29.825C281.687 29.825 280.562 28.4 281.012 27.575C282.362 25.175 282.137 22.4 278.612 22.4C273.362 22.4 269.162 31.25 268.187 36.5C267.437 40.55 266.387 51.125 274.262 51.125C276.962 51.125 279.587 48.95 281.387 47.15C281.837 46.7 282.437 46.475 283.037 46.85ZM301.95 22.7C296.625 22.7 294 30.95 293.025 35.375C292.95 35.825 293.325 36.2 293.85 36.125C300.15 35 305.625 32.375 305.4 26.675C305.25 24.65 304.5 22.7 301.95 22.7ZM306.6 46.4C307.125 46.625 307.2 47.15 306.975 47.525C304.95 50.75 300.75 55.775 295.95 55.775C287.625 55.775 287.775 43.625 288.675 38.9C289.65 33.575 293.625 20.075 302.7 20.075C307.275 20.075 309.525 23.225 309.675 26.6C310.05 34.175 301.275 36.875 293.175 37.625C292.5 37.775 292.425 38.3 292.425 38.9C291.975 42.2 291.675 51.125 297.75 51.125C300.975 51.125 303.45 48.95 305.175 46.85C305.55 46.475 306.075 46.175 306.6 46.4ZM303.975 9.65L299.55 12.275C298.8 12.8 298.05 11.9 298.8 11.225L304.05 6.8C304.575 6.275 305.325 6.275 305.625 6.8L309.3 11.225C309.75 11.75 309.075 12.425 308.55 12.425C308.4 12.425 308.25 12.35 308.1 12.275L304.65 9.65C304.5 9.5 304.2 9.5 303.975 9.65ZM20.122 87.15C24.022 87.15 27.172 90.9 27.172 98.775C26.947 110.775 19.672 122.85 11.347 122.85C5.19697 122.85 3.02197 118.575 4.67197 111.375L8.94697 91.275C9.09697 90.75 8.34697 90.525 7.97197 90.9L2.57197 97.425C2.34697 97.8 1.74697 97.95 1.29697 97.725C0.846973 97.425 0.771973 96.975 0.996973 96.6L3.84697 92.325C5.12197 90.45 7.74697 87.15 10.222 87.15C11.422 87.15 12.247 88.5 12.547 89.925C12.697 90.75 12.697 91.65 12.622 92.55C12.547 93.3 9.02197 109.8 9.02197 109.8C7.82197 115.425 8.04697 118.35 11.797 118.35C18.997 118.35 25.222 108.3 25.222 98.925C25.222 93.45 23.572 90.75 21.997 90.75C19.672 90.75 19.372 92.925 17.497 92.925C16.447 92.925 15.172 91.725 15.697 89.7C16.147 87.9 18.172 87.15 20.122 87.15ZM49.0772 100.95L49.3772 99.15C49.8272 96.675 50.2772 89.625 44.6522 89.625C36.9272 89.625 33.4022 104.85 33.7022 111.225C33.7772 113.025 34.1522 118.2 37.7522 118.2C43.3772 118.2 48.2522 105.6 49.0772 100.95ZM57.1772 112.275C57.7022 112.5 57.8522 113.025 57.6272 113.325C56.1272 116.025 51.6272 122.85 48.4772 122.85C47.3522 122.85 46.6022 121.65 46.3022 119.85C46.1522 118.5 46.2272 116.55 46.6022 114.525C46.6772 114.075 46.0022 113.925 45.7772 114.3C43.6022 118.35 40.3772 122.85 35.8772 122.85C30.1022 122.85 29.2772 116.175 29.0522 112.65C28.7522 106.125 34.1522 87.15 44.8772 87.15C48.2522 87.15 50.2022 88.65 51.1772 91.35C51.2522 91.65 51.7772 91.8 52.0022 91.425L53.3522 89.175C53.5772 88.875 53.9522 88.65 54.4022 88.725C54.9272 88.8 55.2272 89.25 55.1522 89.625L49.6022 118.5C49.4522 119.175 50.4272 119.475 50.8022 118.95L55.9772 112.575C56.2022 112.2 56.7272 112.05 57.1772 112.275ZM76.0872 72.6C75.8622 74.475 74.0622 75.975 72.1122 75.975C70.0872 75.975 68.6622 74.475 68.8122 72.6C69.0372 70.725 70.7622 69.225 72.7872 69.225C74.8122 69.225 76.2372 70.725 76.0872 72.6ZM74.7372 112.2C75.1872 112.5 75.3372 112.875 75.1122 113.325L72.1122 117.6C70.6122 119.55 67.8372 122.775 65.5122 122.775C64.0122 122.775 63.2622 121.275 63.1872 119.775C63.1122 118.875 63.2622 118.05 63.3372 117.15C63.8622 114.45 66.2622 101.625 66.7872 99.075L68.2872 91.2C68.3622 90.75 67.6872 90.45 67.3122 90.825L61.9122 97.425C61.6872 97.725 61.0122 97.875 60.6372 97.65C60.1872 97.35 60.0372 96.975 60.3372 96.525L63.2622 92.25C64.7622 90.3 67.6122 87.075 69.9372 87.075C71.3622 87.075 72.1122 88.575 72.2622 90.15C72.3372 91.05 72.1872 91.875 72.0372 92.7C71.8872 93.675 71.2122 97.275 70.9122 99.075L67.0872 118.65C67.0122 119.175 67.7622 119.4 68.0622 119.025L73.4622 112.425C73.6872 112.125 74.2872 111.975 74.7372 112.2ZM119.602 101.85L119.977 99.9C120.502 96.9 120.427 89.325 115.252 89.325C106.777 89.325 104.152 104.775 104.452 111.15C104.602 113.7 104.977 118.275 108.427 118.275C114.127 118.275 118.702 106.05 119.602 101.85ZM129.652 64.65C130.327 64.875 130.477 65.4 130.327 65.85C129.802 68.25 129.352 70.2 128.902 72.6L120.577 118.35C120.427 119.025 121.402 119.25 121.777 118.8L126.952 112.5C127.177 112.125 127.777 111.9 128.302 112.2C128.752 112.425 128.902 112.875 128.677 113.25C128.227 113.85 126.577 116.55 125.452 117.975C123.577 120.525 121.102 122.775 119.227 122.775C117.802 122.775 117.052 121.35 116.827 119.4C116.752 118.125 116.752 116.1 117.052 114.375C117.127 114 116.602 113.85 116.377 114.15C114.502 118.275 111.427 122.775 106.702 122.775C101.077 122.775 99.8774 117.15 99.7274 112.875C99.3524 106.35 104.377 87.075 115.402 87.075C118.027 87.075 120.127 88.425 121.027 90.825C121.177 91.05 121.552 91.125 121.627 90.75L122.752 84.975L124.552 75C125.002 72.75 125.752 70.2 122.302 69.9C121.777 69.825 121.477 69.6 121.402 69.15C121.252 68.775 121.477 68.25 121.852 67.95C123.577 66.525 126.352 64.95 128.677 64.575C128.977 64.5 129.352 64.5 129.652 64.65ZM144.589 89.7C139.264 89.7 136.639 97.95 135.664 102.375C135.589 102.825 135.964 103.2 136.489 103.125C142.789 102 148.264 99.375 148.039 93.675C147.889 91.65 147.139 89.7 144.589 89.7ZM149.239 113.4C149.764 113.625 149.839 114.15 149.614 114.525C147.589 117.75 143.389 122.775 138.589 122.775C130.264 122.775 130.414 110.625 131.314 105.9C132.289 100.575 136.264 87.075 145.339 87.075C149.914 87.075 152.164 90.225 152.314 93.6C152.689 101.175 143.914 103.875 135.814 104.625C135.139 104.775 135.064 105.3 135.064 105.9C134.614 109.2 134.314 118.125 140.389 118.125C143.614 118.125 146.089 115.95 147.814 113.85C148.189 113.475 148.714 113.175 149.239 113.4ZM154.675 111.075C155.2 111.075 155.5 111.375 155.5 111.825C155.35 114.75 155.425 120.225 159.625 120.225C163.3 120.225 164.8 117.525 165.25 115.2C165.925 111.375 164.35 109.5 161.35 106.8C157.825 103.8 156.025 101.1 156.85 96.75C157.525 93.075 160.825 87.075 166.675 87.075C168.625 87.075 170.275 87.825 171.55 88.725C172 89.025 172.15 89.475 172.075 90L171.175 96.525C171.175 96.975 170.725 97.275 170.2 97.275C169.75 97.275 169.45 96.975 169.45 96.6C169.6 94.125 169.6 89.7 165.7 89.7C162.475 89.7 160.75 92.4 160.375 94.35C159.7 98.25 162.175 100.725 165.1 103.125C168.85 106.2 170.275 108 169.45 112.5C168.625 116.7 165.475 122.775 158.8 122.775C156.7 122.775 154.825 121.95 153.475 120.9C153.025 120.525 152.8 120 152.875 119.475L153.625 111.9C153.7 111.525 154 111.075 154.675 111.075ZM192.839 113.85C193.289 114.15 193.289 114.675 192.989 115.05C190.514 118.125 185.864 122.775 181.064 122.775C173.489 122.775 172.739 111.15 173.564 106.875C174.764 100.425 179.939 87.075 190.214 87.075C194.864 87.075 197.114 90.75 196.289 94.05C195.914 95.475 194.939 96.825 193.139 96.825C191.489 96.825 190.364 95.4 190.814 94.575C192.164 92.175 191.939 89.4 188.414 89.4C183.164 89.4 178.964 98.25 177.989 103.5C177.239 107.55 176.189 118.125 184.064 118.125C186.764 118.125 189.389 115.95 191.189 114.15C191.639 113.7 192.239 113.475 192.839 113.85ZM223.227 104.85C222.177 110.25 216.927 122.85 207.852 122.85C197.877 122.85 197.352 111 198.477 105.15C199.452 99.675 204.402 87.15 213.702 87.15C223.827 87.15 224.277 98.925 223.227 104.85ZM218.577 105.375C219.102 101.475 219.627 89.25 212.727 89.4C206.052 89.625 203.652 100.8 203.127 104.625C202.602 108.45 202.152 120.675 208.977 120.45C215.502 120.3 218.052 109.2 218.577 105.375ZM234.812 120.525C244.187 120.525 246.512 104.7 246.212 99.225C246.062 95.85 245.237 91.725 241.937 91.725C236.237 91.725 232.562 100.875 231.062 107.175L230.237 111.075C229.562 115.05 230.312 120.525 234.812 120.525ZM243.887 87.15C249.962 87.15 250.637 93.225 250.787 96.9C251.162 104.4 246.362 122.775 235.562 122.775C231.887 122.775 229.937 120.975 228.962 118.65C228.737 118.2 228.062 118.125 227.837 118.575L226.787 120.975C226.487 121.65 226.037 121.8 225.437 121.8C224.687 121.8 224.237 121.2 224.387 120.6L233.012 75.075C233.387 72.825 234.137 70.2 230.762 69.975C230.237 69.9 229.937 69.6 229.862 69.225C229.712 68.775 229.862 68.325 230.312 67.95C231.962 66.525 235.037 64.95 237.137 64.575C237.512 64.5 237.887 64.575 238.187 64.65C238.712 64.875 239.012 65.325 238.862 65.85C238.337 68.175 237.887 70.2 237.437 72.6L235.112 85.05L232.787 96.075C232.712 96.525 233.462 96.675 233.612 96.3C235.712 91.95 239.237 87.15 243.887 87.15ZM275.218 87.225C278.218 87.225 278.518 89.4 278.293 90.975C278.068 92.4 277.018 94.05 275.068 94.05C272.818 94.05 273.193 91.5 271.468 91.5C266.518 91.5 262.843 103.575 261.418 109.875L259.318 120.675C259.243 121.125 258.868 121.5 258.193 121.5H256.843C256.018 121.5 255.568 120.9 255.643 120.3C256.318 116.55 259.318 100.125 259.318 100.125L261.043 91.2C261.118 90.675 260.368 90.375 260.068 90.825L254.593 97.35C254.293 97.725 253.768 97.875 253.318 97.575C252.868 97.35 252.718 96.9 252.943 96.525L255.793 92.25C257.143 90.375 259.393 87.075 262.168 87.075C263.368 87.075 264.118 88.5 264.418 90.075C264.568 90.9 264.493 91.8 264.418 92.7C264.418 92.85 263.668 96.75 263.593 97.125C263.518 97.5 264.043 97.65 264.193 97.35C268.243 88.575 273.118 87.225 275.218 87.225ZM294.056 72.6C293.831 74.475 292.031 75.975 290.081 75.975C288.056 75.975 286.631 74.475 286.781 72.6C287.006 70.725 288.731 69.225 290.756 69.225C292.781 69.225 294.206 70.725 294.056 72.6ZM292.706 112.2C293.156 112.5 293.306 112.875 293.081 113.325L290.081 117.6C288.581 119.55 285.806 122.775 283.481 122.775C281.981 122.775 281.231 121.275 281.156 119.775C281.081 118.875 281.231 118.05 281.306 117.15C281.831 114.45 284.231 101.625 284.756 99.075L286.256 91.2C286.331 90.75 285.656 90.45 285.281 90.825L279.881 97.425C279.656 97.725 278.981 97.875 278.606 97.65C278.156 97.35 278.006 96.975 278.306 96.525L281.231 92.25C282.731 90.3 285.581 87.075 287.906 87.075C289.331 87.075 290.081 88.575 290.231 90.15C290.306 91.05 290.156 91.875 290.006 92.7C289.856 93.675 289.181 97.275 288.881 99.075L285.056 118.65C284.981 119.175 285.731 119.4 286.031 119.025L291.431 112.425C291.656 112.125 292.256 111.975 292.706 112.2ZM317.039 87.225C320.039 87.225 320.339 89.4 320.114 90.975C319.889 92.4 318.839 94.05 316.889 94.05C314.639 94.05 315.014 91.5 313.289 91.5C308.339 91.5 304.664 103.575 303.239 109.875L301.139 120.675C301.064 121.125 300.689 121.5 300.014 121.5H298.664C297.839 121.5 297.389 120.9 297.464 120.3C298.139 116.55 301.139 100.125 301.139 100.125L302.864 91.2C302.939 90.675 302.189 90.375 301.889 90.825L296.414 97.35C296.114 97.725 295.589 97.875 295.139 97.575C294.689 97.35 294.539 96.9 294.764 96.525L297.614 92.25C298.964 90.375 301.214 87.075 303.989 87.075C305.189 87.075 305.939 88.5 306.239 90.075C306.389 90.9 306.314 91.8 306.239 92.7C306.239 92.85 305.489 96.75 305.414 97.125C305.339 97.5 305.864 97.65 306.014 97.35C310.064 88.575 314.939 87.225 317.039 87.225ZM330.955 85.275C330.58 87.225 328.705 88.8 326.68 88.8C324.73 88.8 323.38 87.225 323.755 85.275C324.13 83.25 326.08 81.675 328.03 81.675C329.98 81.675 331.33 83.25 330.955 85.275ZM325.18 116.625C324.805 118.575 322.93 120.225 320.98 120.225C318.955 120.225 317.68 118.575 318.055 116.625C318.355 114.675 320.305 113.025 322.255 113.025C324.28 113.025 325.555 114.675 325.18 116.625Z" fill="#6B593B"></path></svg>