<svg xmlns="http://www.w3.org/2000/svg" width="420" height="100" viewBox="0 0 420 100" fill="none"><path d="M22.7774 0.72211C29.6664 0.72211 33.7248 5.8036 33.7248 12.9654C33.7248 20.0591 29.6664 25.2087 22.7774 25.2087C15.9225 25.2087 11.8641 20.0591 11.8641 12.9654C11.8641 5.8036 15.9225 0.72211 22.7774 0.72211ZM22.7774 23.5036C27.8589 23.5036 31.3716 19.5475 31.3716 12.9654C31.3716 6.34926 27.8589 2.42731 22.7774 2.42731C17.73 2.42731 14.2173 6.34926 14.2173 12.9654C14.2173 19.5475 17.73 23.5036 22.7774 23.5036ZM52.2991 1.33598C55.846 1.81344 58.2673 3.92788 58.2673 7.91804C58.2673 11.9423 55.6072 14.1932 52.2991 14.6365C51.2419 14.7729 50.3211 14.7729 49.1275 14.7729H44.7281V24.7313H42.6136V1.19956H49.1275C50.3211 1.19956 51.2419 1.19956 52.2991 1.33598ZM52.1286 12.7949C54.2772 12.4539 55.9824 11.0215 55.9824 7.91804C55.9824 4.9169 54.2772 3.51863 52.1286 3.1776C51.3442 3.04118 50.4234 3.00708 49.298 3.00708H44.7281V12.9654H49.298C50.4234 12.9654 51.3442 12.9313 52.1286 12.7949ZM75.9105 22.992V24.7313H60.6661V1.19956H62.7805V22.992H75.9105ZM90.8318 16.103H81.4532L78.418 24.7313H76.1671L84.8636 1.19956H87.6943L96.1861 24.7313H93.9012L90.8318 16.103ZM82.0671 14.3296H90.2179L86.2278 2.90476L82.0671 14.3296ZM116.065 24.7313H112.825L100.582 3.2458C100.65 6.14464 100.684 9.65735 100.684 12.5903V24.7313H98.5694V1.19956H101.775L114.053 22.6851C113.984 19.7521 113.95 16.2735 113.95 13.3406V1.19956H116.031L116.065 24.7313ZM129.893 0.72211C136.782 0.72211 140.84 5.8036 140.84 12.9654C140.84 20.0591 136.782 25.2087 129.893 25.2087C123.038 25.2087 118.98 20.0591 118.98 12.9654C118.98 5.8036 123.038 0.72211 129.893 0.72211ZM129.893 23.5036C134.975 23.5036 138.487 19.5475 138.487 12.9654C138.487 6.34926 134.975 2.42731 129.893 2.42731C124.846 2.42731 121.333 6.34926 121.333 12.9654C121.333 19.5475 124.846 23.5036 129.893 23.5036ZM159.415 1.33598C162.962 1.81344 165.383 3.92788 165.383 7.91804C165.383 11.9423 162.723 14.1932 159.415 14.6365C158.358 14.7729 157.437 14.7729 156.243 14.7729H151.844V24.7313H149.729V1.19956H156.243C157.437 1.19956 158.358 1.19956 159.415 1.33598ZM159.244 12.7949C161.393 12.4539 163.098 11.0215 163.098 7.91804C163.098 4.9169 161.393 3.51863 159.244 3.1776C158.46 3.04118 157.539 3.00708 156.414 3.00708H151.844V12.9654H156.414C157.539 12.9654 158.46 12.9313 159.244 12.7949ZM179.062 16.103H169.684L166.649 24.7313H164.398L173.094 1.19956H175.925L184.417 24.7313H182.132L179.062 16.103ZM170.298 14.3296H178.449L174.458 2.90476L170.298 14.3296ZM201.533 18.4562C201.874 21.696 202.283 23.4012 203.102 24.7313H200.749C200.169 23.2307 199.76 21.7642 199.419 18.6949C199.112 16.2053 198.088 14.2614 195.565 14.125C194.951 14.0909 194.269 14.0909 193.723 14.0909H188.915V24.7313H186.8V1.19956H193.723C194.917 1.19956 195.838 1.19956 196.929 1.33598C200.408 1.77933 202.727 3.68915 202.727 7.44059C202.727 10.544 200.749 12.4198 198.293 13.0336C200.305 13.8521 201.294 16.0007 201.533 18.4562ZM188.915 12.3175H193.757C194.78 12.3175 195.36 12.3175 196.145 12.2492C198.736 12.0446 200.442 10.3735 200.442 7.61111C200.442 4.84869 198.975 3.48453 196.417 3.10939C195.599 3.00708 194.849 2.97297 193.723 2.97297H188.915V12.3175ZM218.298 16.103H208.919L205.884 24.7313H203.633L212.33 1.19956H215.16L223.652 24.7313H221.367L218.298 16.103ZM209.533 14.3296H217.684L213.694 2.90476L209.533 14.3296ZM240.84 0.72211C247.729 0.72211 251.788 5.8036 251.788 12.9654C251.788 20.0591 247.729 25.2087 240.84 25.2087C233.985 25.2087 229.927 20.0591 229.927 12.9654C229.927 5.8036 233.985 0.72211 240.84 0.72211ZM240.84 23.5036C245.922 23.5036 249.434 19.5475 249.434 12.9654C249.434 6.34926 245.922 2.42731 240.84 2.42731C235.793 2.42731 232.28 6.34926 232.28 12.9654C232.28 19.5475 235.793 23.5036 240.84 23.5036Z" fill="white"></path><path d="M21.7347 41.5835L17.2567 65.8683C16.6538 69.0546 19.5818 70.3463 22.5959 70.3463C29.7435 70.3463 33.9632 61.4763 35.0827 55.4482C36.1161 49.5062 35.5133 39.4305 26.9878 39.4305C26.2128 39.4305 25.1794 39.5167 24.146 39.6028C22.682 39.775 21.9069 40.5501 21.7347 41.5835ZM15.8788 73.2743L13.2953 87.3112C12.6925 90.842 11.9174 94.4589 16.1371 95.0617C16.9983 95.2339 17.4289 95.7506 17.2567 96.4395C17.1705 97.2146 16.3094 97.9035 15.276 97.8174C13.5537 97.7313 11.3146 97.7313 8.98949 97.7313C6.9227 97.7313 4.2531 97.7313 2.78912 97.9035C1.66961 97.9896 0.980675 97.3007 1.15291 96.4395C1.32514 95.7506 1.84184 95.2339 2.78912 95.0617C7.26717 94.4589 7.86998 90.842 8.4728 87.3112L15.7927 47.4394C16.4816 43.7364 17.3428 40.6362 12.9508 40.1195C12.0036 40.0334 11.6591 39.4305 11.8313 38.6555C12.0036 37.9666 12.8647 37.3638 13.812 37.3638C16.74 37.536 17.7734 37.536 21.0458 37.536C22.9403 37.4499 26.385 37.2776 28.5379 37.2776C39.1302 37.2776 41.7998 46.7504 40.3358 54.6731C38.8719 62.8542 33.5326 72.5853 21.218 72.5853C20.443 72.5853 18.8068 72.4992 17.2567 72.327C16.5677 72.2409 16.051 72.6714 15.8788 73.2743ZM60.6727 58.3761C64.1174 58.3761 64.4619 60.8735 64.2035 62.682C63.9452 64.3182 62.7395 66.2127 60.5005 66.2127C57.917 66.2127 58.3476 63.2848 56.3669 63.2848C50.6832 63.2848 46.4635 77.1495 44.8273 84.3833L42.4161 96.784C42.33 97.3007 41.8994 97.7313 41.1243 97.7313H39.5742C38.627 97.7313 38.1103 97.0424 38.1964 96.3534C38.9714 92.0476 42.4161 73.1881 42.4161 73.1881L44.3968 62.9403C44.4829 62.3375 43.6217 61.993 43.2772 62.5097L36.9908 70.0018C36.6463 70.4324 36.0435 70.6047 35.5268 70.2602C35.0101 70.0018 34.8378 69.4851 35.0962 69.0546L38.3686 64.1459C39.9187 61.993 42.5022 58.2039 45.6885 58.2039C47.0664 58.2039 47.9275 59.8401 48.272 61.6486C48.4442 62.5958 48.3581 63.6292 48.272 64.6626C48.272 64.8349 47.4108 69.3129 47.3247 69.7435C47.2386 70.1741 47.8414 70.3463 48.0136 70.0018C52.6639 59.9262 58.2615 58.3761 60.6727 58.3761ZM78.8581 41.5835C78.5997 43.7364 76.5329 45.4587 74.2939 45.4587C71.9688 45.4587 70.3326 43.7364 70.5048 41.5835C70.7631 39.4305 72.7438 37.7082 75.069 37.7082C77.3941 37.7082 79.0303 39.4305 78.8581 41.5835ZM77.308 87.0529C77.8247 87.3973 77.9969 87.8279 77.7386 88.3446L74.2939 93.2532C72.5716 95.4923 69.3853 99.1953 66.7157 99.1953C64.9934 99.1953 64.1322 97.4729 64.0461 95.7506C63.96 94.7172 64.1322 93.7699 64.2183 92.7365C64.8211 89.6364 67.5768 74.9105 68.1797 71.9825L69.902 62.9403C69.9881 62.4236 69.2131 62.0791 68.7825 62.5097L62.5821 70.088C62.3237 70.4324 61.5487 70.6047 61.1181 70.3463C60.6014 70.0018 60.4292 69.5713 60.7737 69.0546L64.1322 64.1459C65.8545 61.9069 69.1269 58.2039 71.7965 58.2039C73.4328 58.2039 74.2939 59.9262 74.4661 61.7347C74.5523 62.7681 74.38 63.7153 74.2078 64.6626C74.0356 65.7821 73.2605 69.9157 72.9161 71.9825L68.5241 94.4589C68.438 95.0617 69.2992 95.32 69.6436 94.8895L75.844 87.3112C76.1024 86.9668 76.7913 86.7945 77.308 87.0529ZM130.652 86.9668C131.255 87.3112 131.341 87.8279 131.083 88.2585L127.208 94.2005C125.744 96.2673 122.988 99.1953 120.232 99.1953C118.079 99.1953 117.132 96.2673 117.649 93.4255C117.735 92.5643 122.816 67.6767 122.816 67.6767C122.902 66.9878 122.988 66.385 122.988 65.7821C122.902 64.1459 121.782 63.2848 119.888 63.2848C116.615 63.2848 113.946 66.385 112.31 68.4517C108.09 74.0493 106.023 80.508 104.904 86.9668L103.009 96.6979C102.923 97.3007 102.406 97.7313 101.631 97.7313H99.8227C98.7893 97.7313 98.2726 96.9562 98.3587 96.1812L103.784 68.1073C104.042 66.7294 104.559 63.3709 100.942 63.3709C98.0143 63.3709 94.9141 66.385 93.1917 68.624C89.3165 73.9632 86.8191 80.3358 85.6135 86.4501L83.6328 96.6979C83.5467 97.3007 83.03 97.7313 82.255 97.7313H80.6188C79.6715 97.7313 79.0687 96.9562 79.2409 96.2673L84.0634 70.2602L85.5274 63.0264C85.6135 62.4236 84.7523 62.1653 84.4079 62.5958L78.0353 70.088C77.7769 70.4324 77.088 70.6908 76.5713 70.3463C76.1407 70.088 75.9685 69.5713 76.2268 69.1407L79.4992 64.1459C81.0493 61.993 84.0634 58.29 87.2497 58.29C88.6276 58.29 89.4887 59.9262 89.8332 61.7347C90.0054 62.682 89.9193 63.7153 89.8332 64.6626C89.8332 64.8349 89.3165 67.4183 89.0582 68.7962C89.0582 69.0546 88.7137 70.2602 88.7137 70.4324C88.6276 70.863 89.2304 71.0352 89.4026 70.6908C91.9861 65.8683 96.5503 58.2039 102.923 58.2039C107.315 58.2039 108.434 61.6486 108.52 64.4043C108.607 65.8683 108.176 68.624 107.745 70.4324C107.659 70.863 108.348 71.0352 108.52 70.6908C109.898 68.2795 111.276 65.6099 113.085 63.1986C114.979 60.6152 118.424 58.2039 122.127 58.2039C129.188 58.2039 127.897 65.7821 127.466 68.2795L122.041 94.2866C121.868 94.8895 122.816 95.1478 123.16 94.7172L129.188 87.3112C129.533 86.9668 130.136 86.7084 130.652 86.9668ZM145.999 61.218C139.884 61.218 136.87 70.6908 135.751 75.7716C135.665 76.2883 136.095 76.7189 136.698 76.6328C143.932 75.341 150.218 72.327 149.96 65.7821C149.788 63.457 148.926 61.218 145.999 61.218ZM151.338 88.4307C151.941 88.6891 152.027 89.2919 151.768 89.7225C149.443 93.4255 144.621 99.1953 139.109 99.1953C129.55 99.1953 129.723 85.2444 130.756 79.8191C131.875 73.7048 136.44 58.2039 146.86 58.2039C152.113 58.2039 154.696 61.8208 154.869 65.696C155.299 74.3938 145.223 77.494 135.923 78.3551C135.148 78.5274 135.062 79.1302 135.062 79.8191C134.545 83.6082 134.201 93.8561 141.176 93.8561C144.879 93.8561 147.721 91.3587 149.702 88.9474C150.132 88.5168 150.735 88.1724 151.338 88.4307ZM172.133 41.5835C171.874 43.7364 169.808 45.4587 167.569 45.4587C165.244 45.4587 163.607 43.7364 163.78 41.5835C164.038 39.4305 166.019 37.7082 168.344 37.7082C170.669 37.7082 172.305 39.4305 172.133 41.5835ZM170.583 87.0529C171.099 87.3973 171.272 87.8279 171.013 88.3446L167.569 93.2532C165.846 95.4923 162.66 99.1953 159.99 99.1953C158.268 99.1953 157.407 97.4729 157.321 95.7506C157.235 94.7172 157.407 93.7699 157.493 92.7365C158.096 89.6364 160.852 74.9105 161.454 71.9825L163.177 62.9403C163.263 62.4236 162.488 62.0791 162.057 62.5097L155.857 70.088C155.598 70.4324 154.823 70.6047 154.393 70.3463C153.876 70.0018 153.704 69.5713 154.048 69.0546L157.407 64.1459C159.129 61.9069 162.402 58.2039 165.071 58.2039C166.707 58.2039 167.569 59.9262 167.741 61.7347C167.827 62.7681 167.655 63.7153 167.483 64.6626C167.31 65.7821 166.535 69.9157 166.191 71.9825L161.799 94.4589C161.713 95.0617 162.574 95.32 162.918 94.8895L169.119 87.3112C169.377 86.9668 170.066 86.7945 170.583 87.0529ZM195.078 58.3761C198.523 58.3761 198.867 60.8735 198.609 62.682C198.351 64.3182 197.145 66.2127 194.906 66.2127C192.322 66.2127 192.753 63.2848 190.772 63.2848C185.089 63.2848 180.869 77.1495 179.233 84.3833L176.821 96.784C176.735 97.3007 176.305 97.7313 175.53 97.7313H173.98C173.032 97.7313 172.516 97.0424 172.602 96.3534C173.377 92.0476 176.821 73.1881 176.821 73.1881L178.802 62.9403C178.888 62.3375 178.027 61.993 177.683 62.5097L171.396 70.0018C171.052 70.4324 170.449 70.6047 169.932 70.2602C169.415 70.0018 169.243 69.4851 169.502 69.0546L172.774 64.1459C174.324 61.993 176.908 58.2039 180.094 58.2039C181.472 58.2039 182.333 59.8401 182.677 61.6486C182.85 62.5958 182.763 63.6292 182.677 64.6626C182.677 64.8349 181.816 69.3129 181.73 69.7435C181.644 70.1741 182.247 70.3463 182.419 70.0018C187.069 59.9262 192.667 58.3761 195.078 58.3761ZM222.174 78.6135C220.968 84.8138 214.94 99.2814 204.52 99.2814C193.066 99.2814 192.464 85.675 193.755 78.9579C194.875 72.6714 200.559 58.29 211.237 58.29C222.863 58.29 223.379 71.8103 222.174 78.6135ZM216.835 79.2163C217.437 74.7382 218.04 60.7013 210.118 60.8735C202.453 61.1319 199.697 73.9632 199.095 78.3551C198.492 82.7471 197.975 96.784 205.812 96.5257C213.304 96.3534 216.232 83.6082 216.835 79.2163ZM285.539 86.6223C284.85 90.842 283.988 94.4589 289.328 94.9756C290.275 95.0617 290.706 95.7506 290.533 96.4395C290.361 97.2146 289.586 97.8174 288.553 97.8174C283.73 97.8174 278.994 97.8174 274.171 97.8174C273.224 97.8174 272.621 97.2146 272.707 96.4395C272.793 95.7506 273.482 95.0617 274.43 94.9756C279.769 94.3728 280.027 90.4975 280.802 86.6223L287.778 46.0615C287.864 45.5448 287.175 45.4587 286.83 45.8893L273.138 65.9544C272.793 66.4711 272.191 66.7294 271.674 66.7294C271.071 66.7294 270.554 66.4711 270.382 66.0405L262.459 47.4394C262.287 47.0088 261.512 47.181 261.426 47.6977L253.589 86.8806C253.073 89.5502 252.039 93.9422 255.656 94.8895C256.431 95.1478 256.69 95.6645 256.604 96.3534C256.345 97.3007 255.484 97.8174 254.451 97.8174C253.245 97.7313 251.264 97.7313 249.197 97.7313C246.7 97.7313 245.064 97.7313 243.083 97.8174C242.05 97.8174 241.447 97.1285 241.619 96.3534C241.791 95.6645 242.308 95.0617 243.255 94.9756C249.111 94.2866 249.628 90.9281 250.661 86.6223L258.584 47.181C259.101 44.4253 259.359 40.8084 255.742 40.2056C255.053 40.0334 254.623 39.5167 254.709 38.8277C254.881 37.9666 255.742 37.3638 256.776 37.4499C257.723 37.4499 258.843 37.4499 259.876 37.4499C260.737 37.4499 261.857 37.4499 262.89 37.3638C263.665 37.3638 264.268 37.6221 264.526 38.0527L273.568 60.2707C273.655 60.529 274.171 60.529 274.343 60.2707L289.242 38.0527C289.586 37.6221 290.275 37.3638 290.964 37.3638C292.17 37.536 293.375 37.536 294.409 37.536C295.27 37.536 296.561 37.536 297.509 37.4499C298.628 37.3638 299.231 37.9666 299.059 38.8277C298.887 39.5167 298.37 40.0334 297.595 40.2056C293.547 40.8084 292.686 44.2531 292.17 47.0949L285.539 86.6223ZM312.173 41.5835C311.914 43.7364 309.848 45.4587 307.609 45.4587C305.283 45.4587 303.647 43.7364 303.819 41.5835C304.078 39.4305 306.058 37.7082 308.384 37.7082C310.709 37.7082 312.345 39.4305 312.173 41.5835ZM310.623 87.0529C311.139 87.3973 311.312 87.8279 311.053 88.3446L307.609 93.2532C305.886 95.4923 302.7 99.1953 300.03 99.1953C298.308 99.1953 297.447 97.4729 297.361 95.7506C297.275 94.7172 297.447 93.7699 297.533 92.7365C298.136 89.6364 300.892 74.9105 301.494 71.9825L303.217 62.9403C303.303 62.4236 302.528 62.0791 302.097 62.5097L295.897 70.088C295.638 70.4324 294.863 70.6047 294.433 70.3463C293.916 70.0018 293.744 69.5713 294.088 69.0546L297.447 64.1459C299.169 61.9069 302.442 58.2039 305.111 58.2039C306.747 58.2039 307.609 59.9262 307.781 61.7347C307.867 62.7681 307.695 63.7153 307.522 64.6626C307.35 65.7821 306.575 69.9157 306.231 71.9825L301.839 94.4589C301.753 95.0617 302.614 95.32 302.958 94.8895L309.159 87.3112C309.417 86.9668 310.106 86.7945 310.623 87.0529ZM327.698 32.4551C328.301 32.7135 328.645 33.2302 328.559 33.833C327.87 36.5026 327.353 38.8277 326.837 41.5835L316.847 94.4589C316.761 95.0617 317.622 95.32 317.967 94.8895L324.081 87.3112C324.425 86.9668 325.028 86.7084 325.545 87.0529C326.148 87.3973 326.234 87.914 325.976 88.3446L322.703 93.2532C321.239 95.4062 318.053 99.1953 315.211 99.1953C313.747 99.1953 312.541 97.4729 312.283 95.7506C312.111 94.7172 312.283 93.7699 312.455 92.8227C313.489 86.9668 321.498 44.4253 321.498 44.4253C321.928 41.7557 322.789 38.8277 318.914 38.4833C318.311 38.3971 317.967 38.0527 317.881 37.6221C317.708 37.1915 317.881 36.5887 318.397 36.2442C320.292 34.608 323.909 32.7135 326.492 32.369C326.837 32.2829 327.353 32.2829 327.698 32.4551ZM349.694 58.29C357.272 58.29 359.167 66.1266 357.53 75.0827C356.411 85.2444 347.799 99.1953 340.738 99.1953C338.499 99.1953 337.724 97.7313 338.068 95.7506C338.413 94.0283 339.963 92.5643 341.513 92.5643C343.407 92.5643 342.805 94.6311 344.871 94.6311C347.885 94.6311 352.019 85.5028 352.88 75.341C353.914 68.7101 352.277 63.1986 347.972 63.1986C341.857 63.1986 336.776 71.4658 334.193 83.7804L331.868 96.6979C331.696 97.3007 331.179 97.8174 330.318 97.8174H328.94C327.906 97.8174 327.304 97.0424 327.39 96.2673C327.734 94.4589 329.801 83.1776 330.404 80.1636L336.949 44.4253C337.465 41.8418 338.154 38.9138 334.365 38.5694C333.762 38.4833 333.418 38.1388 333.332 37.7082C333.16 37.1915 333.418 36.7609 333.848 36.3304C335.829 34.6941 339.188 32.7996 341.685 32.369C342.03 32.369 342.546 32.369 342.977 32.5412C343.58 32.7135 343.924 33.3163 343.752 33.833C343.063 36.5026 342.632 38.8277 342.116 41.6696L337.035 68.3656C336.863 69.0546 337.81 69.2268 338.068 68.7101C341.254 61.7347 344.699 58.29 349.694 58.29ZM380.069 74.1354L380.413 72.0686C380.93 69.2268 381.447 61.1319 374.988 61.1319C366.118 61.1319 362.07 78.6135 362.415 85.9334C362.501 88.0001 362.932 93.9422 367.065 93.9422C373.524 93.9422 379.121 79.4746 380.069 74.1354ZM389.369 87.139C389.972 87.3973 390.144 88.0001 389.886 88.3446C388.164 91.4448 382.997 99.2814 379.38 99.2814C378.088 99.2814 377.227 97.9035 376.882 95.8367C376.71 94.2866 376.796 92.0476 377.227 89.7225C377.313 89.2058 376.538 89.0335 376.28 89.4641C373.782 94.1144 370.079 99.2814 364.912 99.2814C358.281 99.2814 357.334 91.617 357.076 87.5696C356.731 80.0774 362.932 58.29 375.246 58.29C379.121 58.29 381.36 60.0123 382.48 63.1125C382.566 63.457 383.169 63.6292 383.427 63.1986L384.977 60.6152C385.236 60.2707 385.666 60.0123 386.183 60.0985C386.786 60.1846 387.13 60.7013 387.044 61.1319L380.672 94.2866C380.499 95.0617 381.619 95.4062 382.049 94.8033L387.991 87.4835C388.25 87.0529 388.853 86.8806 389.369 87.139ZM377.744 42.2724C380.241 42.2724 381.016 46.406 382.566 46.406C383.858 46.406 384.805 45.4587 385.408 43.8225C385.494 43.5641 385.666 43.3919 386.011 43.3919C386.355 43.3919 386.527 43.6502 386.441 43.9947C385.666 46.4921 383.944 49.0756 381.619 49.0756C379.38 49.0756 378.777 44.942 376.71 44.942C375.332 44.942 374.213 46.2337 373.782 47.6977C373.696 47.9561 373.438 48.1283 373.179 48.1283C372.835 48.1283 372.663 47.8699 372.749 47.6116C373.61 44.5975 375.591 42.2724 377.744 42.2724ZM418.23 78.6135C417.024 84.8138 410.996 99.2814 400.576 99.2814C389.122 99.2814 388.52 85.675 389.811 78.9579C390.931 72.6714 396.614 58.29 407.293 58.29C418.919 58.29 419.435 71.8103 418.23 78.6135ZM412.89 79.2163C413.493 74.7382 414.096 60.7013 406.173 60.8735C398.509 61.1319 395.753 73.9632 395.151 78.3551C394.548 82.7471 394.031 96.784 401.868 96.5257C409.36 96.3534 412.288 83.6082 412.89 79.2163Z" fill="#FFDEA3"></path></svg>