<svg xmlns="http://www.w3.org/2000/svg" width="575" height="166" viewBox="0 0 575 166" fill="none"><path d="M14.409 4.488L11.497 20.28C11.105 22.352 13.009 23.192 14.969 23.192C19.617 23.192 22.361 17.424 23.089 13.504C23.761 9.64 23.369 3.088 17.825 3.088C17.321 3.088 16.649 3.144 15.977 3.2C15.025 3.312 14.521 3.816 14.409 4.488ZM10.601 25.096L8.921 34.224C8.529 36.52 8.025 38.872 10.769 39.264C11.329 39.376 11.609 39.712 11.497 40.16C11.441 40.664 10.881 41.112 10.209 41.056C9.089 41 7.633 41 6.121 41C4.777 41 3.041 41 2.089 41.112C1.361 41.168 0.913 40.72 1.025 40.16C1.137 39.712 1.473 39.376 2.089 39.264C5.001 38.872 5.393 36.52 5.785 34.224L10.545 8.296C10.993 5.888 11.553 3.872 8.697 3.536C8.081 3.48 7.857 3.088 7.969 2.584C8.081 2.136 8.641 1.744 9.257 1.744C11.161 1.856 11.833 1.856 13.961 1.856C15.193 1.8 17.433 1.688 18.833 1.688C25.721 1.688 27.457 7.848 26.505 13C25.553 18.32 22.081 24.648 14.073 24.648C13.569 24.648 12.505 24.592 11.497 24.48C11.049 24.424 10.713 24.704 10.601 25.096ZM36.2254 21.4C40.8174 21.4 43.5614 16.416 44.3454 12.44C45.0734 8.52 44.8494 3.088 38.9134 3.088C38.4094 3.088 37.6814 3.144 37.2334 3.2C36.2814 3.312 35.9454 3.816 35.8334 4.432L33.2014 18.824C32.8654 20.616 34.4894 21.4 36.2254 21.4ZM47.7614 39.32C48.3214 39.376 48.6014 39.712 48.5454 40.16C48.4334 40.664 47.9294 41.056 47.3694 41.056C46.7534 41 46.0814 41 45.4654 41C44.7374 41 43.8414 41 43.1134 41.056C42.6654 41.112 42.2734 40.888 42.1614 40.552L36.5054 23.248C36.3934 22.968 36.1134 22.8 35.7774 22.856C34.8814 22.856 34.0974 22.8 33.2014 22.688C32.8094 22.632 32.4174 22.912 32.3614 23.248L30.3454 34.224C29.9534 36.52 29.3934 38.816 32.2494 39.208C32.7534 39.32 33.0334 39.656 32.9774 40.104C32.8654 40.608 32.3614 41.056 31.6334 41.056C30.2334 41 29.0574 41 27.4894 41C26.5374 41 24.9694 40.944 23.5134 41.056C22.7854 41.112 22.3374 40.664 22.4494 40.16C22.5614 39.712 22.9534 39.32 23.5134 39.264C26.5374 38.816 26.8174 36.464 27.2654 34.168L31.9694 8.296C32.4174 5.888 32.9774 3.872 30.1214 3.536C29.5614 3.48 29.2814 3.032 29.3934 2.584C29.5614 2.08 30.0654 1.744 30.6814 1.744C32.5854 1.8 32.9214 1.8 35.0494 1.8C36.2814 1.8 38.1854 1.688 39.8654 1.688C47.0334 1.688 48.6014 7.568 47.7614 11.936C47.0334 15.912 44.9054 20.168 40.2014 21.904C39.8094 22.072 39.6414 22.408 39.6974 22.744L44.7374 37.472C45.2414 38.76 46.3054 39.208 47.7614 39.32ZM70.3972 32.152C70.9012 32.152 71.1252 32.544 70.9572 32.936C70.2852 34.672 68.8292 38.536 68.2132 40.272C68.0452 40.776 67.4852 41.112 66.8692 41.112C63.9572 41.056 63.0052 41 60.0372 41C57.1812 41 54.2132 41.056 51.3572 41.112C50.7412 41.112 50.4052 40.72 50.5172 40.216C50.5732 39.768 50.9652 39.376 51.5252 39.32C54.0452 38.928 54.5492 36.856 54.9972 34.504L59.8132 8.24C60.2052 6.056 60.7652 3.816 58.1332 3.536C57.6292 3.48 57.3492 3.088 57.4052 2.64C57.5172 2.08 58.0212 1.688 58.5812 1.688C61.0452 1.8 63.3972 1.8 66.0852 1.8C68.8852 1.8 71.7412 1.744 74.3732 1.688C74.9892 1.688 75.2132 2.024 75.1572 2.472L73.8132 9.864C73.7572 10.144 73.4212 10.48 72.9732 10.48C72.5252 10.48 72.3012 10.144 72.3572 9.864C72.6932 6.504 73.4772 3.424 68.3812 3.424H65.0212C64.2932 3.424 63.7332 3.872 63.6212 4.544L60.9892 18.992C60.8772 19.496 61.1012 19.888 61.7732 19.888H66.0852C68.7172 19.888 69.1652 17.368 69.5012 15.632C69.5572 15.352 69.8932 15.072 70.3412 15.072C70.7892 15.072 71.0132 15.352 70.9572 15.632L68.9972 26.16C68.9412 26.44 68.6052 26.72 68.1572 26.72C67.7092 26.72 67.4852 26.44 67.5412 26.104C67.9332 24.256 68.6612 21.344 65.7492 21.344H61.4932C60.8772 21.344 60.4852 21.736 60.3732 22.24L58.2452 34C57.4052 38.48 58.2452 39.544 61.8292 39.544C66.9812 39.544 68.1012 36.184 69.5012 32.712C69.6132 32.432 69.9492 32.152 70.3972 32.152ZM91.8894 32.152C92.3934 32.152 92.6174 32.544 92.4494 32.936C91.7774 34.672 90.3214 38.536 89.7054 40.272C89.5374 40.776 88.9774 41.112 88.3614 41.112C85.4494 41.056 84.4974 41 81.5294 41C78.6734 41 75.7054 41.056 72.8494 41.112C72.2334 41.112 71.8974 40.72 72.0094 40.216C72.0654 39.768 72.4574 39.376 73.0174 39.32C75.5374 38.928 76.0414 36.856 76.4894 34.504L81.3054 8.24C81.6974 6.056 82.2574 3.816 79.6254 3.536C79.1214 3.48 78.8414 3.088 78.8974 2.64C79.0094 2.08 79.5134 1.688 80.0734 1.688C82.5374 1.8 84.8894 1.8 87.5774 1.8C90.3774 1.8 93.2334 1.744 95.8654 1.688C96.4814 1.688 96.7054 2.024 96.6494 2.472L95.3054 9.864C95.2494 10.144 94.9134 10.48 94.4654 10.48C94.0174 10.48 93.7934 10.144 93.8494 9.864C94.1854 6.504 94.9694 3.424 89.8734 3.424H86.5134C85.7854 3.424 85.2254 3.872 85.1134 4.544L82.4814 18.992C82.3694 19.496 82.5934 19.888 83.2654 19.888H87.5774C90.2094 19.888 90.6574 17.368 90.9934 15.632C91.0494 15.352 91.3854 15.072 91.8334 15.072C92.2814 15.072 92.5054 15.352 92.4494 15.632L90.4894 26.16C90.4334 26.44 90.0974 26.72 89.6494 26.72C89.2014 26.72 88.9774 26.44 89.0334 26.104C89.4254 24.256 90.1534 21.344 87.2414 21.344H82.9854C82.3694 21.344 81.9774 21.736 81.8654 22.24L79.7374 34C78.8974 38.48 79.7374 39.544 83.3214 39.544C88.4734 39.544 89.5934 36.184 90.9934 32.712C91.1054 32.432 91.4414 32.152 91.8894 32.152ZM129.958 2.64C129.902 3.088 129.51 3.48 128.894 3.592C125.646 3.928 125.59 6.336 125.198 8.632L120.494 34.168C120.102 36.408 119.15 38.872 122.342 39.208C122.958 39.32 123.182 39.712 123.07 40.16C122.958 40.72 122.342 41.056 121.782 41.056C120.942 41 119.878 41 118.702 41C117.358 41 116.182 41 114.782 41.056C114.11 41.056 113.662 40.664 113.718 40.16C113.774 39.712 114.166 39.264 114.782 39.208C117.918 38.76 118.086 36.688 118.534 34.28L121.39 18.824C121.446 18.488 121.334 18.096 120.998 17.872L107.166 6.448C106.942 6.224 106.438 6.336 106.382 6.784L101.398 33.944C100.95 36.352 100.11 38.816 103.19 39.208C103.75 39.32 103.974 39.656 103.918 40.104C103.806 40.664 103.246 41.056 102.63 41.056C101.79 41 100.334 41 98.9896 41C97.4216 41 96.4136 41 95.1256 41.056C94.5096 41.056 94.0616 40.664 94.1736 40.104C94.2296 39.656 94.6776 39.32 95.2376 39.208C98.8216 38.872 98.9896 36.52 99.4936 33.888L104.142 8.688C104.646 5.776 104.31 3.816 101.062 3.536C100.558 3.48 100.278 3.144 100.39 2.64C100.446 2.192 100.95 1.8 101.622 1.8C102.294 1.856 103.246 1.8 103.694 1.8C104.478 1.8 105.318 1.8 106.158 1.744C106.494 1.688 106.83 1.8 107.054 1.968L121.558 14.176C121.782 14.4 122.23 14.232 122.286 13.896L123.294 8.52C123.686 6.112 124.302 4.04 121.334 3.592C120.774 3.48 120.494 3.144 120.606 2.64C120.774 2.08 121.278 1.744 121.95 1.744C122.79 1.8 123.798 1.8 125.03 1.8C126.43 1.8 127.55 1.8 128.95 1.744C129.622 1.744 130.07 2.08 129.958 2.64ZM159.453 30.248C159.957 30.304 160.237 30.696 160.069 31.2L157.829 37.528C157.493 38.48 156.709 39.376 155.701 39.768C152.397 41.168 147.805 41.952 144.277 41.952C131.509 41.952 125.797 32.936 127.981 20.84C130.165 8.912 140.021 0.791997 151.613 0.791997C155.589 0.791997 159.565 1.912 162.981 3.368C163.821 3.704 164.269 4.488 164.213 5.44L163.653 11.32C163.653 11.768 163.261 12.104 162.813 12.104C162.477 12.104 162.253 11.88 162.197 11.544C162.197 4.824 157.661 2.416 151.389 2.416C140.413 2.416 133.245 10.704 131.397 20.672C129.325 32.152 134.645 40.44 145.509 40.44C152.229 40.44 156.149 36.912 158.557 30.864C158.725 30.528 159.061 30.248 159.453 30.248ZM187.305 39.208C187.865 39.32 188.089 39.656 188.033 40.104C187.921 40.664 187.361 41.056 186.689 41.056C185.401 40.944 183.889 41 182.601 41C181.369 41 179.857 41 178.457 41.056C177.785 41.056 177.393 40.552 177.561 40.048C177.729 39.6 178.065 39.32 178.625 39.208C181.537 38.872 181.929 36.352 182.321 34.168L184.561 21.904C184.673 21.456 184.449 21.064 183.833 21.064H172.241C171.625 21.064 171.289 21.456 171.233 21.904L168.937 34.168C168.545 36.352 168.097 38.872 170.785 39.208C171.345 39.32 171.569 39.656 171.513 40.104C171.401 40.664 170.897 41.056 170.225 41.056C168.937 40.944 167.369 41 166.137 41C164.905 41 163.337 41 162.049 41.056C161.265 41.112 160.873 40.608 161.097 40.048C161.209 39.6 161.545 39.32 162.105 39.208C164.961 38.872 165.409 36.352 165.801 34.168L170.561 8.464C170.953 6.28 171.401 3.816 168.657 3.536C168.097 3.48 167.817 3.088 167.929 2.64C168.041 2.08 168.545 1.688 169.217 1.744C170.505 1.8 172.073 1.8 173.305 1.8C174.537 1.8 176.105 1.8 177.449 1.744C178.121 1.688 178.513 2.136 178.401 2.64C178.289 3.088 177.897 3.48 177.337 3.536C174.481 3.872 174.089 6.28 173.697 8.464L171.793 18.768C171.681 19.216 171.905 19.608 172.521 19.608H184.113C184.729 19.608 185.065 19.216 185.121 18.768L187.025 8.464C187.417 6.28 187.921 3.816 185.177 3.536C184.617 3.48 184.337 3.088 184.449 2.64C184.505 2.08 185.065 1.688 185.737 1.744C187.025 1.8 188.537 1.8 189.825 1.8C191.057 1.8 192.625 1.8 193.969 1.744C194.641 1.688 194.977 2.136 194.865 2.64C194.809 3.088 194.417 3.48 193.857 3.536C191.001 3.872 190.553 6.28 190.161 8.464L185.457 34.168C185.065 36.352 184.505 38.872 187.305 39.208ZM210.061 25.712L208.885 7.288L201.157 25.712C201.045 25.992 201.157 26.216 201.493 26.216H209.557C209.893 26.216 210.061 25.992 210.061 25.712ZM211.629 1.576L213.533 34.672C213.645 36.688 213.757 38.368 216.333 39.096C216.837 39.264 217.005 39.656 216.837 40.104C216.725 40.608 216.109 41 215.437 41C212.917 41 210.453 41 207.933 41C207.317 41 206.981 40.608 207.093 40.104C207.149 39.656 207.541 39.264 208.157 39.208C208.941 39.152 209.781 38.928 210.173 38.256C210.677 37.304 210.509 34.896 210.453 33.888L210.117 28.232C210.117 27.952 209.949 27.728 209.557 27.728H200.821C200.429 27.728 200.149 27.896 200.037 28.232L197.573 34C196.957 35.512 196.397 37.08 196.565 37.976C196.677 38.648 197.349 39.04 198.301 39.152C198.861 39.264 199.141 39.6 199.029 40.048C198.917 40.608 198.357 41 197.741 41C196.957 40.944 195.221 40.944 194.381 40.944C193.093 40.944 192.253 40.944 191.357 41C190.629 41 190.237 40.552 190.293 39.992C190.405 39.544 190.741 39.152 191.357 38.984C193.989 38.48 194.885 35.568 195.669 33.776L209.501 1.576C209.725 1.128 210.173 0.791997 210.733 0.791997C211.237 0.791997 211.573 1.128 211.629 1.576ZM249.182 4.488L246.27 20.28C245.878 22.352 247.782 23.192 249.742 23.192C254.39 23.192 257.134 17.424 257.862 13.504C258.534 9.64 258.142 3.088 252.598 3.088C252.094 3.088 251.422 3.144 250.75 3.2C249.798 3.312 249.294 3.816 249.182 4.488ZM245.374 25.096L243.694 34.224C243.302 36.52 242.798 38.872 245.542 39.264C246.102 39.376 246.382 39.712 246.27 40.16C246.214 40.664 245.654 41.112 244.982 41.056C243.862 41 242.406 41 240.894 41C239.55 41 237.814 41 236.862 41.112C236.134 41.168 235.686 40.72 235.798 40.16C235.91 39.712 236.246 39.376 236.862 39.264C239.774 38.872 240.166 36.52 240.558 34.224L245.318 8.296C245.766 5.888 246.326 3.872 243.47 3.536C242.854 3.48 242.63 3.088 242.742 2.584C242.854 2.136 243.414 1.744 244.03 1.744C245.934 1.856 246.606 1.856 248.734 1.856C249.966 1.8 252.206 1.688 253.606 1.688C260.494 1.688 262.23 7.848 261.278 13C260.326 18.32 256.854 24.648 248.846 24.648C248.342 24.648 247.278 24.592 246.27 24.48C245.822 24.424 245.486 24.704 245.374 25.096ZM274.757 25.712L273.581 7.288L265.853 25.712C265.741 25.992 265.853 26.216 266.189 26.216H274.253C274.589 26.216 274.757 25.992 274.757 25.712ZM276.325 1.576L278.229 34.672C278.341 36.688 278.453 38.368 281.029 39.096C281.533 39.264 281.701 39.656 281.533 40.104C281.421 40.608 280.805 41 280.133 41C277.613 41 275.149 41 272.629 41C272.013 41 271.677 40.608 271.789 40.104C271.845 39.656 272.237 39.264 272.853 39.208C273.637 39.152 274.477 38.928 274.869 38.256C275.373 37.304 275.205 34.896 275.149 33.888L274.813 28.232C274.813 27.952 274.645 27.728 274.253 27.728H265.517C265.125 27.728 264.845 27.896 264.733 28.232L262.269 34C261.653 35.512 261.093 37.08 261.261 37.976C261.373 38.648 262.044 39.04 262.997 39.152C263.557 39.264 263.837 39.6 263.725 40.048C263.613 40.608 263.053 41 262.437 41C261.653 40.944 259.917 40.944 259.077 40.944C257.789 40.944 256.949 40.944 256.053 41C255.325 41 254.933 40.552 254.989 39.992C255.101 39.544 255.437 39.152 256.053 38.984C258.685 38.48 259.581 35.568 260.365 33.776L274.197 1.576C274.421 1.128 274.869 0.791997 275.429 0.791997C275.933 0.791997 276.269 1.128 276.325 1.576ZM296.921 21.4C301.513 21.4 304.257 16.416 305.041 12.44C305.769 8.52 305.545 3.088 299.609 3.088C299.105 3.088 298.377 3.144 297.929 3.2C296.977 3.312 296.641 3.816 296.529 4.432L293.897 18.824C293.561 20.616 295.185 21.4 296.921 21.4ZM308.457 39.32C309.017 39.376 309.297 39.712 309.241 40.16C309.129 40.664 308.625 41.056 308.065 41.056C307.449 41 306.777 41 306.161 41C305.433 41 304.537 41 303.809 41.056C303.361 41.112 302.969 40.888 302.857 40.552L297.201 23.248C297.089 22.968 296.809 22.8 296.473 22.856C295.577 22.856 294.793 22.8 293.897 22.688C293.505 22.632 293.113 22.912 293.057 23.248L291.041 34.224C290.649 36.52 290.089 38.816 292.945 39.208C293.449 39.32 293.729 39.656 293.673 40.104C293.561 40.608 293.057 41.056 292.329 41.056C290.929 41 289.753 41 288.185 41C287.233 41 285.665 40.944 284.209 41.056C283.481 41.112 283.033 40.664 283.145 40.16C283.257 39.712 283.649 39.32 284.209 39.264C287.233 38.816 287.513 36.464 287.961 34.168L292.665 8.296C293.113 5.888 293.673 3.872 290.817 3.536C290.257 3.48 289.977 3.032 290.089 2.584C290.257 2.08 290.761 1.744 291.377 1.744C293.281 1.8 293.617 1.8 295.745 1.8C296.977 1.8 298.881 1.688 300.561 1.688C307.729 1.688 309.297 7.568 308.457 11.936C307.729 15.912 305.601 20.168 300.897 21.904C300.505 22.072 300.337 22.408 300.393 22.744L305.433 37.472C305.937 38.76 307.001 39.208 308.457 39.32ZM330.757 25.712L329.581 7.288L321.853 25.712C321.741 25.992 321.853 26.216 322.189 26.216H330.253C330.589 26.216 330.757 25.992 330.757 25.712ZM332.325 1.576L334.229 34.672C334.341 36.688 334.453 38.368 337.029 39.096C337.533 39.264 337.701 39.656 337.533 40.104C337.421 40.608 336.805 41 336.133 41C333.613 41 331.149 41 328.629 41C328.013 41 327.677 40.608 327.789 40.104C327.845 39.656 328.237 39.264 328.853 39.208C329.637 39.152 330.477 38.928 330.869 38.256C331.373 37.304 331.205 34.896 331.149 33.888L330.813 28.232C330.813 27.952 330.645 27.728 330.253 27.728H321.517C321.125 27.728 320.845 27.896 320.733 28.232L318.269 34C317.653 35.512 317.093 37.08 317.261 37.976C317.373 38.648 318.044 39.04 318.997 39.152C319.557 39.264 319.837 39.6 319.725 40.048C319.613 40.608 319.053 41 318.437 41C317.653 40.944 315.917 40.944 315.077 40.944C313.789 40.944 312.949 40.944 312.053 41C311.325 41 310.933 40.552 310.989 39.992C311.101 39.544 311.437 39.152 312.053 38.984C314.685 38.48 315.581 35.568 316.365 33.776L330.197 1.576C330.421 1.128 330.869 0.791997 331.429 0.791997C331.933 0.791997 332.269 1.128 332.325 1.576ZM383.262 2.304C372.902 2.304 365.174 10.2 363.214 20.952C361.198 31.816 366.35 40.44 377.438 40.44C381.19 40.44 385.446 39.6 388.022 37.696C388.75 37.248 389.31 36.576 389.422 35.792L391.046 26.888C391.606 24.032 390.318 23.248 387.126 23.136C386.622 23.136 386.342 22.744 386.454 22.24C386.51 21.736 387.014 21.344 387.518 21.344C389.59 21.4 391.662 21.456 393.734 21.456C394.518 21.456 395.078 22.072 394.91 22.912C394.742 23.808 394.294 26.104 394.126 27C393.678 29.352 392.614 35.344 392.166 37.64C392.054 38.368 391.438 39.04 390.71 39.264C387.686 40.16 382.926 41.952 376.318 41.952C363.942 41.952 357.558 33.048 359.742 21.12C361.87 9.696 371.446 0.791997 383.43 0.791997C387.63 0.791997 391.83 1.912 395.526 3.312C396.198 3.592 396.646 4.264 396.59 5.048L396.142 11.32C396.142 11.768 395.694 12.16 395.246 12.16C394.854 12.16 394.63 11.936 394.574 11.6C394.406 5.384 389.87 2.304 383.262 2.304ZM414.592 25.712L413.416 7.288L405.688 25.712C405.576 25.992 405.688 26.216 406.024 26.216H414.088C414.424 26.216 414.592 25.992 414.592 25.712ZM416.16 1.576L418.064 34.672C418.176 36.688 418.288 38.368 420.864 39.096C421.368 39.264 421.536 39.656 421.368 40.104C421.256 40.608 420.64 41 419.968 41C417.448 41 414.984 41 412.464 41C411.848 41 411.512 40.608 411.624 40.104C411.68 39.656 412.072 39.264 412.688 39.208C413.472 39.152 414.312 38.928 414.704 38.256C415.208 37.304 415.04 34.896 414.984 33.888L414.648 28.232C414.648 27.952 414.48 27.728 414.088 27.728H405.352C404.96 27.728 404.68 27.896 404.568 28.232L402.104 34C401.488 35.512 400.928 37.08 401.096 37.976C401.208 38.648 401.88 39.04 402.832 39.152C403.392 39.264 403.672 39.6 403.56 40.048C403.448 40.608 402.888 41 402.272 41C401.488 40.944 399.752 40.944 398.912 40.944C397.624 40.944 396.784 40.944 395.888 41C395.16 41 394.768 40.552 394.824 39.992C394.936 39.544 395.272 39.152 395.888 38.984C398.52 38.48 399.416 35.568 400.2 33.776L414.032 1.576C414.256 1.128 414.704 0.791997 415.264 0.791997C415.768 0.791997 416.104 1.128 416.16 1.576ZM436.757 21.4C441.349 21.4 444.093 16.416 444.877 12.44C445.605 8.52 445.381 3.088 439.445 3.088C438.941 3.088 438.213 3.144 437.765 3.2C436.813 3.312 436.477 3.816 436.365 4.432L433.733 18.824C433.397 20.616 435.021 21.4 436.757 21.4ZM448.293 39.32C448.853 39.376 449.133 39.712 449.077 40.16C448.965 40.664 448.461 41.056 447.901 41.056C447.285 41 446.613 41 445.997 41C445.269 41 444.373 41 443.645 41.056C443.197 41.112 442.805 40.888 442.693 40.552L437.037 23.248C436.925 22.968 436.645 22.8 436.309 22.856C435.413 22.856 434.629 22.8 433.733 22.688C433.341 22.632 432.949 22.912 432.893 23.248L430.877 34.224C430.485 36.52 429.925 38.816 432.781 39.208C433.285 39.32 433.565 39.656 433.509 40.104C433.397 40.608 432.893 41.056 432.165 41.056C430.765 41 429.589 41 428.021 41C427.069 41 425.501 40.944 424.045 41.056C423.317 41.112 422.869 40.664 422.981 40.16C423.093 39.712 423.485 39.32 424.045 39.264C427.069 38.816 427.349 36.464 427.797 34.168L432.501 8.296C432.949 5.888 433.509 3.872 430.653 3.536C430.093 3.48 429.813 3.032 429.925 2.584C430.093 2.08 430.597 1.744 431.213 1.744C433.117 1.8 433.453 1.8 435.581 1.8C436.813 1.8 438.717 1.688 440.397 1.688C447.565 1.688 449.133 7.568 448.293 11.936C447.565 15.912 445.437 20.168 440.733 21.904C440.341 22.072 440.173 22.408 440.229 22.744L445.269 37.472C445.773 38.76 446.837 39.208 448.293 39.32ZM470.592 25.712L469.416 7.288L461.688 25.712C461.576 25.992 461.688 26.216 462.024 26.216H470.088C470.424 26.216 470.592 25.992 470.592 25.712ZM472.16 1.576L474.064 34.672C474.176 36.688 474.288 38.368 476.864 39.096C477.368 39.264 477.536 39.656 477.368 40.104C477.256 40.608 476.64 41 475.968 41C473.448 41 470.984 41 468.464 41C467.848 41 467.512 40.608 467.624 40.104C467.68 39.656 468.072 39.264 468.688 39.208C469.472 39.152 470.312 38.928 470.704 38.256C471.208 37.304 471.04 34.896 470.984 33.888L470.648 28.232C470.648 27.952 470.48 27.728 470.088 27.728H461.352C460.96 27.728 460.68 27.896 460.568 28.232L458.104 34C457.488 35.512 456.928 37.08 457.096 37.976C457.208 38.648 457.88 39.04 458.832 39.152C459.392 39.264 459.672 39.6 459.56 40.048C459.448 40.608 458.888 41 458.272 41C457.488 40.944 455.752 40.944 454.912 40.944C453.624 40.944 452.784 40.944 451.888 41C451.16 41 450.768 40.552 450.824 39.992C450.936 39.544 451.272 39.152 451.888 38.984C454.52 38.48 455.416 35.568 456.2 33.776L470.032 1.576C470.256 1.128 470.704 0.791997 471.264 0.791997C471.768 0.791997 472.104 1.128 472.16 1.576ZM515.997 2.64C515.941 3.088 515.549 3.48 514.933 3.592C511.685 3.928 511.629 6.336 511.237 8.632L506.533 34.168C506.141 36.408 505.189 38.872 508.381 39.208C508.997 39.32 509.221 39.712 509.109 40.16C508.997 40.72 508.381 41.056 507.821 41.056C506.981 41 505.917 41 504.741 41C503.397 41 502.221 41 500.821 41.056C500.149 41.056 499.701 40.664 499.757 40.16C499.813 39.712 500.205 39.264 500.821 39.208C503.957 38.76 504.125 36.688 504.573 34.28L507.429 18.824C507.485 18.488 507.373 18.096 507.037 17.872L493.205 6.448C492.981 6.224 492.477 6.336 492.421 6.784L487.437 33.944C486.989 36.352 486.149 38.816 489.229 39.208C489.789 39.32 490.013 39.656 489.957 40.104C489.845 40.664 489.285 41.056 488.669 41.056C487.829 41 486.373 41 485.029 41C483.461 41 482.453 41 481.165 41.056C480.549 41.056 480.101 40.664 480.213 40.104C480.269 39.656 480.717 39.32 481.277 39.208C484.861 38.872 485.029 36.52 485.533 33.888L490.181 8.688C490.685 5.776 490.349 3.816 487.101 3.536C486.597 3.48 486.317 3.144 486.429 2.64C486.485 2.192 486.989 1.8 487.661 1.8C488.333 1.856 489.285 1.8 489.733 1.8C490.517 1.8 491.357 1.8 492.197 1.744C492.533 1.688 492.869 1.8 493.093 1.968L507.597 14.176C507.821 14.4 508.269 14.232 508.325 13.896L509.333 8.52C509.725 6.112 510.341 4.04 507.373 3.592C506.813 3.48 506.533 3.144 506.645 2.64C506.813 2.08 507.317 1.744 507.989 1.744C508.829 1.8 509.837 1.8 511.069 1.8C512.469 1.8 513.589 1.8 514.989 1.744C515.661 1.744 516.109 2.08 515.997 2.64ZM538.97 1.576C539.53 1.576 539.866 1.912 539.754 2.36L538.298 8.744C538.242 9.08 537.906 9.248 537.57 9.248C537.122 9.248 536.954 9.024 537.01 8.744C537.402 6.504 538.13 3.256 534.322 3.256H532.026C531.186 3.256 530.626 3.816 530.458 4.488L525.026 34.168C524.634 36.464 524.018 38.816 526.874 39.264C527.434 39.32 527.658 39.712 527.602 40.104C527.49 40.72 526.874 41.056 526.258 41.056C525.194 41 523.682 41 522.338 41C520.658 41 519.146 41 518.194 41.056C517.466 41.112 517.018 40.72 517.13 40.16C517.242 39.712 517.578 39.32 518.138 39.208C521.162 38.816 521.498 36.408 521.89 34.168L527.322 4.488C527.49 3.816 527.042 3.256 526.202 3.256H524.466C520.434 3.256 519.594 6.336 518.81 8.744C518.698 9.024 518.418 9.248 518.026 9.248C517.578 9.248 517.41 8.968 517.466 8.632L519.034 2.304C519.146 1.856 519.538 1.576 520.042 1.576C523.57 1.8 525.922 1.8 529.562 1.8C533.202 1.8 535.386 1.8 538.97 1.576ZM540.586 34.168L545.346 8.464C545.738 6.28 546.186 3.872 543.442 3.536C542.882 3.48 542.602 3.088 542.714 2.64C542.826 2.08 543.33 1.688 544.002 1.744C545.29 1.8 546.858 1.8 548.09 1.8C549.322 1.8 550.89 1.8 552.234 1.744C552.906 1.688 553.242 2.136 553.186 2.64C553.074 3.144 552.626 3.48 552.066 3.536C549.266 3.872 548.874 6.28 548.482 8.464L543.722 34.168C543.33 36.352 542.882 38.872 545.57 39.208C546.13 39.32 546.354 39.656 546.298 40.104C546.186 40.72 545.57 41.056 545.01 41.056C543.722 40.944 542.154 41 540.922 41C539.69 41 538.122 41 536.834 41.056C536.106 41.112 535.714 40.664 535.826 40.16C535.938 39.712 536.274 39.32 536.89 39.208C539.746 38.872 540.194 36.408 540.586 34.168ZM562.483 21.4C567.075 21.4 569.819 16.416 570.603 12.44C571.331 8.52 571.107 3.088 565.171 3.088C564.667 3.088 563.939 3.144 563.491 3.2C562.539 3.312 562.203 3.816 562.091 4.432L559.459 18.824C559.123 20.616 560.747 21.4 562.483 21.4ZM574.019 39.32C574.579 39.376 574.859 39.712 574.803 40.16C574.691 40.664 574.187 41.056 573.627 41.056C573.011 41 572.339 41 571.723 41C570.995 41 570.099 41 569.371 41.056C568.923 41.112 568.531 40.888 568.419 40.552L562.763 23.248C562.651 22.968 562.371 22.8 562.035 22.856C561.139 22.856 560.355 22.8 559.459 22.688C559.067 22.632 558.675 22.912 558.619 23.248L556.603 34.224C556.211 36.52 555.651 38.816 558.507 39.208C559.011 39.32 559.291 39.656 559.235 40.104C559.123 40.608 558.619 41.056 557.891 41.056C556.491 41 555.315 41 553.747 41C552.795 41 551.227 40.944 549.771 41.056C549.043 41.112 548.595 40.664 548.707 40.16C548.819 39.712 549.211 39.32 549.771 39.264C552.795 38.816 553.075 36.464 553.523 34.168L558.227 8.296C558.675 5.888 559.235 3.872 556.379 3.536C555.819 3.48 555.539 3.032 555.651 2.584C555.819 2.08 556.323 1.744 556.939 1.744C558.843 1.8 559.179 1.8 561.307 1.8C562.539 1.8 564.443 1.688 566.123 1.688C573.291 1.688 574.859 7.568 574.019 11.936C573.291 15.912 571.163 20.168 566.459 21.904C566.067 22.072 565.899 22.408 565.955 22.744L570.995 37.472C571.499 38.76 572.563 39.208 574.019 39.32ZM49.9646 84.464C51.4206 75.616 47.5006 64.528 36.1326 64.696C25.2126 64.864 18.8846 73.768 17.4846 82.224C16.0286 91.072 19.8366 101.992 30.9806 101.992C41.3966 101.992 48.3406 94.32 49.9646 84.464ZM53.7166 83.176C51.7566 93.984 41.3406 103.952 29.9166 103.952C18.8846 103.952 11.8286 94.376 13.8446 83.568C15.8046 72.76 26.0526 62.792 37.5886 62.792C48.5646 62.792 55.6766 72.48 53.7166 83.176ZM83.7527 66.488L80.8408 82.28C80.4488 84.352 82.3528 85.192 84.3128 85.192C88.9608 85.192 91.7048 79.424 92.4328 75.504C93.1048 71.64 92.7128 65.088 87.1688 65.088C86.6648 65.088 85.9928 65.144 85.3208 65.2C84.3688 65.312 83.8648 65.816 83.7527 66.488ZM79.9448 87.096L78.2648 96.224C77.8728 98.52 77.3688 100.872 80.1128 101.264C80.6728 101.376 80.9528 101.712 80.8408 102.16C80.7848 102.664 80.2248 103.112 79.5528 103.056C78.4328 103 76.9768 103 75.4648 103C74.1208 103 72.3848 103 71.4328 103.112C70.7048 103.168 70.2568 102.72 70.3688 102.16C70.4808 101.712 70.8167 101.376 71.4328 101.264C74.3448 100.872 74.7368 98.52 75.1288 96.224L79.8888 70.296C80.3368 67.888 80.8968 65.872 78.0408 65.536C77.4248 65.48 77.2007 65.088 77.3128 64.584C77.4248 64.136 77.9848 63.744 78.6008 63.744C80.5048 63.856 81.1768 63.856 83.3048 63.856C84.5368 63.8 86.7768 63.688 88.1768 63.688C95.0648 63.688 96.8008 69.848 95.8488 75C94.8968 80.32 91.4248 86.648 83.4168 86.648C82.9128 86.648 81.8488 86.592 80.8408 86.48C80.3928 86.424 80.0568 86.704 79.9448 87.096ZM109.327 87.712L108.151 69.288L100.423 87.712C100.311 87.992 100.423 88.216 100.759 88.216H108.823C109.159 88.216 109.327 87.992 109.327 87.712ZM110.895 63.576L112.799 96.672C112.911 98.688 113.023 100.368 115.599 101.096C116.103 101.264 116.271 101.656 116.103 102.104C115.991 102.608 115.375 103 114.703 103C112.183 103 109.719 103 107.199 103C106.583 103 106.247 102.608 106.359 102.104C106.415 101.656 106.807 101.264 107.423 101.208C108.207 101.152 109.047 100.928 109.439 100.256C109.943 99.304 109.775 96.896 109.719 95.888L109.383 90.232C109.383 89.952 109.215 89.728 108.823 89.728H100.087C99.6948 89.728 99.4148 89.896 99.3028 90.232L96.8388 96C96.2228 97.512 95.6628 99.08 95.8308 99.976C95.9428 100.648 96.6148 101.04 97.5668 101.152C98.1268 101.264 98.4068 101.6 98.2948 102.048C98.1828 102.608 97.6228 103 97.0068 103C96.2228 102.944 94.4868 102.944 93.6468 102.944C92.3588 102.944 91.5188 102.944 90.6228 103C89.8948 103 89.5028 102.552 89.5588 101.992C89.6708 101.544 90.0068 101.152 90.6228 100.984C93.2548 100.48 94.1508 97.568 94.9348 95.776L108.767 63.576C108.991 63.128 109.439 62.792 109.999 62.792C110.503 62.792 110.839 63.128 110.895 63.576ZM120.739 93.48C121.187 93.48 121.411 93.76 121.411 94.04C121.355 96.84 121.411 101.992 125.387 101.992C129.811 101.992 132.163 97.848 132.779 94.544C133.899 88.608 130.819 87.264 127.011 83.232C124.491 80.6 123.539 77.408 124.155 73.88C124.939 69.736 127.683 62.792 134.627 62.792C135.971 62.792 137.091 63.072 138.267 63.352C138.771 63.464 139.107 63.8 139.051 64.248L138.435 70.464C138.435 70.856 138.099 71.136 137.707 71.136C137.259 71.136 137.091 70.856 137.091 70.632C137.259 68.392 137.259 64.696 133.675 64.696C129.307 64.696 127.347 68.896 126.787 71.92C125.835 77.128 128.803 79.48 132.275 82.616C135.411 85.584 136.755 88.104 135.971 92.416C135.187 96.672 131.827 103.952 124.715 103.952C122.979 103.952 121.579 103.504 120.067 102.944C119.451 102.72 119.115 102.272 119.171 101.712L119.899 94.208C119.955 93.816 120.235 93.48 120.739 93.48ZM139.223 93.48C139.671 93.48 139.895 93.76 139.895 94.04C139.839 96.84 139.895 101.992 143.871 101.992C148.295 101.992 150.647 97.848 151.263 94.544C152.383 88.608 149.303 87.264 145.495 83.232C142.975 80.6 142.023 77.408 142.639 73.88C143.423 69.736 146.167 62.792 153.111 62.792C154.455 62.792 155.575 63.072 156.751 63.352C157.255 63.464 157.591 63.8 157.535 64.248L156.919 70.464C156.919 70.856 156.583 71.136 156.191 71.136C155.743 71.136 155.575 70.856 155.575 70.632C155.743 68.392 155.743 64.696 152.159 64.696C147.791 64.696 145.831 68.896 145.271 71.92C144.319 77.128 147.287 79.48 150.759 82.616C153.895 85.584 155.239 88.104 154.455 92.416C153.671 96.672 150.311 103.952 143.199 103.952C141.463 103.952 140.063 103.504 138.551 102.944C137.935 102.72 137.599 102.272 137.655 101.712L138.383 94.208C138.439 93.816 138.719 93.48 139.223 93.48ZM193.902 84.464C195.358 75.616 191.438 64.528 180.07 64.696C169.15 64.864 162.822 73.768 161.422 82.224C159.966 91.072 163.774 101.992 174.918 101.992C185.334 101.992 192.278 94.32 193.902 84.464ZM197.654 83.176C195.694 93.984 185.278 103.952 173.854 103.952C162.822 103.952 155.766 94.376 157.782 83.568C159.742 72.76 169.99 62.792 181.526 62.792C192.502 62.792 199.614 72.48 197.654 83.176ZM233.85 87.712L232.674 69.288L224.946 87.712C224.834 87.992 224.946 88.216 225.282 88.216H233.346C233.682 88.216 233.85 87.992 233.85 87.712ZM235.418 63.576L237.322 96.672C237.434 98.688 237.546 100.368 240.122 101.096C240.626 101.264 240.794 101.656 240.626 102.104C240.514 102.608 239.898 103 239.226 103C236.706 103 234.242 103 231.722 103C231.106 103 230.77 102.608 230.882 102.104C230.938 101.656 231.33 101.264 231.946 101.208C232.73 101.152 233.57 100.928 233.962 100.256C234.466 99.304 234.298 96.896 234.242 95.888L233.906 90.232C233.906 89.952 233.738 89.728 233.346 89.728H224.61C224.218 89.728 223.938 89.896 223.826 90.232L221.362 96C220.746 97.512 220.186 99.08 220.354 99.976C220.466 100.648 221.138 101.04 222.09 101.152C222.65 101.264 222.93 101.6 222.818 102.048C222.706 102.608 222.146 103 221.53 103C220.746 102.944 219.01 102.944 218.17 102.944C216.882 102.944 216.042 102.944 215.146 103C214.418 103 214.026 102.552 214.082 101.992C214.194 101.544 214.53 101.152 215.146 100.984C217.778 100.48 218.674 97.568 219.458 95.776L233.29 63.576C233.514 63.128 233.962 62.792 234.522 62.792C235.026 62.792 235.362 63.128 235.418 63.576ZM272.971 66.488L270.06 82.28C269.668 84.352 271.572 85.192 273.532 85.192C278.18 85.192 280.924 79.424 281.652 75.504C282.324 71.64 281.932 65.088 276.388 65.088C275.884 65.088 275.212 65.144 274.54 65.2C273.588 65.312 273.084 65.816 272.971 66.488ZM269.164 87.096L267.484 96.224C267.092 98.52 266.588 100.872 269.332 101.264C269.892 101.376 270.172 101.712 270.06 102.16C270.004 102.664 269.444 103.112 268.772 103.056C267.652 103 266.196 103 264.684 103C263.34 103 261.604 103 260.652 103.112C259.924 103.168 259.476 102.72 259.588 102.16C259.7 101.712 260.035 101.376 260.652 101.264C263.564 100.872 263.956 98.52 264.348 96.224L269.108 70.296C269.556 67.888 270.116 65.872 267.26 65.536C266.644 65.48 266.419 65.088 266.532 64.584C266.644 64.136 267.204 63.744 267.82 63.744C269.724 63.856 270.396 63.856 272.524 63.856C273.756 63.8 275.996 63.688 277.396 63.688C284.284 63.688 286.02 69.848 285.068 75C284.116 80.32 280.644 86.648 272.636 86.648C272.132 86.648 271.068 86.592 270.06 86.48C269.612 86.424 269.276 86.704 269.164 87.096ZM298.546 87.712L297.37 69.288L289.642 87.712C289.53 87.992 289.642 88.216 289.978 88.216H298.042C298.378 88.216 298.546 87.992 298.546 87.712ZM300.114 63.576L302.018 96.672C302.13 98.688 302.242 100.368 304.818 101.096C305.322 101.264 305.49 101.656 305.322 102.104C305.21 102.608 304.594 103 303.922 103C301.402 103 298.938 103 296.418 103C295.802 103 295.466 102.608 295.578 102.104C295.634 101.656 296.026 101.264 296.642 101.208C297.426 101.152 298.266 100.928 298.658 100.256C299.162 99.304 298.994 96.896 298.938 95.888L298.602 90.232C298.602 89.952 298.434 89.728 298.042 89.728H289.306C288.914 89.728 288.634 89.896 288.522 90.232L286.058 96C285.442 97.512 284.882 99.08 285.05 99.976C285.162 100.648 285.834 101.04 286.786 101.152C287.346 101.264 287.626 101.6 287.514 102.048C287.402 102.608 286.842 103 286.226 103C285.442 102.944 283.706 102.944 282.866 102.944C281.578 102.944 280.738 102.944 279.842 103C279.114 103 278.722 102.552 278.778 101.992C278.89 101.544 279.226 101.152 279.842 100.984C282.474 100.48 283.37 97.568 284.154 95.776L297.986 63.576C298.21 63.128 298.658 62.792 299.218 62.792C299.722 62.792 300.058 63.128 300.114 63.576ZM309.958 93.48C310.406 93.48 310.63 93.76 310.63 94.04C310.574 96.84 310.63 101.992 314.606 101.992C319.03 101.992 321.382 97.848 321.998 94.544C323.118 88.608 320.038 87.264 316.23 83.232C313.71 80.6 312.758 77.408 313.374 73.88C314.158 69.736 316.902 62.792 323.846 62.792C325.19 62.792 326.31 63.072 327.486 63.352C327.99 63.464 328.326 63.8 328.27 64.248L327.654 70.464C327.654 70.856 327.318 71.136 326.926 71.136C326.478 71.136 326.31 70.856 326.31 70.632C326.478 68.392 326.478 64.696 322.894 64.696C318.526 64.696 316.566 68.896 316.006 71.92C315.054 77.128 318.022 79.48 321.494 82.616C324.63 85.584 325.974 88.104 325.19 92.416C324.406 96.672 321.046 103.952 313.934 103.952C312.198 103.952 310.798 103.504 309.286 102.944C308.67 102.72 308.334 102.272 308.39 101.712L309.118 94.208C309.174 93.816 309.454 93.48 309.958 93.48ZM328.442 93.48C328.89 93.48 329.114 93.76 329.114 94.04C329.058 96.84 329.114 101.992 333.09 101.992C337.514 101.992 339.866 97.848 340.482 94.544C341.602 88.608 338.522 87.264 334.714 83.232C332.194 80.6 331.242 77.408 331.858 73.88C332.642 69.736 335.386 62.792 342.33 62.792C343.674 62.792 344.794 63.072 345.97 63.352C346.474 63.464 346.81 63.8 346.754 64.248L346.138 70.464C346.138 70.856 345.802 71.136 345.41 71.136C344.962 71.136 344.794 70.856 344.794 70.632C344.962 68.392 344.962 64.696 341.378 64.696C337.01 64.696 335.05 68.896 334.49 71.92C333.538 77.128 336.506 79.48 339.978 82.616C343.114 85.584 344.458 88.104 343.674 92.416C342.89 96.672 339.53 103.952 332.418 103.952C330.682 103.952 329.282 103.504 327.77 102.944C327.154 102.72 326.818 102.272 326.874 101.712L327.602 94.208C327.658 93.816 327.938 93.48 328.442 93.48ZM383.121 84.464C384.577 75.616 380.657 64.528 369.289 64.696C358.369 64.864 352.041 73.768 350.641 82.224C349.185 91.072 352.993 101.992 364.137 101.992C374.553 101.992 381.497 94.32 383.121 84.464ZM386.873 83.176C384.913 93.984 374.497 103.952 363.073 103.952C352.041 103.952 344.985 94.376 347.001 83.568C348.961 72.76 359.209 62.792 370.745 62.792C381.721 62.792 388.833 72.48 386.873 83.176ZM416.909 66.488L413.997 82.28C413.605 84.352 415.509 85.192 417.469 85.192C422.117 85.192 424.861 79.424 425.589 75.504C426.261 71.64 425.869 65.088 420.325 65.088C419.821 65.088 419.149 65.144 418.477 65.2C417.525 65.312 417.021 65.816 416.909 66.488ZM413.101 87.096L411.421 96.224C411.029 98.52 410.525 100.872 413.269 101.264C413.829 101.376 414.109 101.712 413.997 102.16C413.941 102.664 413.381 103.112 412.709 103.056C411.589 103 410.133 103 408.621 103C407.277 103 405.541 103 404.589 103.112C403.861 103.168 403.413 102.72 403.525 102.16C403.637 101.712 403.973 101.376 404.589 101.264C407.501 100.872 407.893 98.52 408.285 96.224L413.045 70.296C413.493 67.888 414.053 65.872 411.197 65.536C410.581 65.48 410.357 65.088 410.469 64.584C410.581 64.136 411.141 63.744 411.757 63.744C413.661 63.856 414.333 63.856 416.461 63.856C417.693 63.8 419.933 63.688 421.333 63.688C428.221 63.688 429.957 69.848 429.005 75C428.053 80.32 424.581 86.648 416.573 86.648C416.069 86.648 415.005 86.592 413.997 86.48C413.549 86.424 413.213 86.704 413.101 87.096ZM442.483 87.712L441.307 69.288L433.579 87.712C433.467 87.992 433.579 88.216 433.915 88.216H441.979C442.315 88.216 442.483 87.992 442.483 87.712ZM444.051 63.576L445.955 96.672C446.067 98.688 446.179 100.368 448.755 101.096C449.259 101.264 449.427 101.656 449.259 102.104C449.147 102.608 448.531 103 447.859 103C445.339 103 442.875 103 440.355 103C439.739 103 439.403 102.608 439.515 102.104C439.571 101.656 439.963 101.264 440.579 101.208C441.363 101.152 442.203 100.928 442.595 100.256C443.099 99.304 442.931 96.896 442.875 95.888L442.539 90.232C442.539 89.952 442.371 89.728 441.979 89.728H433.243C432.851 89.728 432.571 89.896 432.459 90.232L429.995 96C429.379 97.512 428.819 99.08 428.987 99.976C429.099 100.648 429.771 101.04 430.723 101.152C431.283 101.264 431.563 101.6 431.451 102.048C431.339 102.608 430.779 103 430.163 103C429.379 102.944 427.643 102.944 426.803 102.944C425.515 102.944 424.675 102.944 423.779 103C423.051 103 422.659 102.552 422.715 101.992C422.827 101.544 423.163 101.152 423.779 100.984C426.411 100.48 427.307 97.568 428.091 95.776L441.923 63.576C442.147 63.128 442.595 62.792 443.155 62.792C443.659 62.792 443.995 63.128 444.051 63.576ZM464.647 83.4C469.239 83.4 471.983 78.416 472.767 74.44C473.495 70.52 473.271 65.088 467.335 65.088C466.831 65.088 466.103 65.144 465.655 65.2C464.703 65.312 464.367 65.816 464.255 66.432L461.623 80.824C461.287 82.616 462.911 83.4 464.647 83.4ZM476.183 101.32C476.743 101.376 477.023 101.712 476.967 102.16C476.855 102.664 476.351 103.056 475.791 103.056C475.175 103 474.503 103 473.887 103C473.159 103 472.263 103 471.535 103.056C471.087 103.112 470.695 102.888 470.583 102.552L464.927 85.248C464.815 84.968 464.535 84.8 464.199 84.856C463.303 84.856 462.519 84.8 461.623 84.688C461.231 84.632 460.839 84.912 460.783 85.248L458.767 96.224C458.375 98.52 457.815 100.816 460.671 101.208C461.175 101.32 461.455 101.656 461.399 102.104C461.287 102.608 460.783 103.056 460.055 103.056C458.655 103 457.479 103 455.911 103C454.959 103 453.391 102.944 451.935 103.056C451.207 103.112 450.759 102.664 450.871 102.16C450.983 101.712 451.375 101.32 451.935 101.264C454.959 100.816 455.239 98.464 455.687 96.168L460.391 70.296C460.839 67.888 461.399 65.872 458.543 65.536C457.983 65.48 457.703 65.032 457.815 64.584C457.983 64.08 458.487 63.744 459.103 63.744C461.007 63.8 461.343 63.8 463.471 63.8C464.703 63.8 466.607 63.688 468.287 63.688C475.455 63.688 477.023 69.568 476.183 73.936C475.455 77.912 473.327 82.168 468.623 83.904C468.231 84.072 468.063 84.408 468.119 84.744L473.159 99.472C473.663 100.76 474.727 101.208 476.183 101.32ZM498.483 87.712L497.307 69.288L489.579 87.712C489.467 87.992 489.579 88.216 489.915 88.216H497.979C498.315 88.216 498.483 87.992 498.483 87.712ZM500.051 63.576L501.955 96.672C502.067 98.688 502.179 100.368 504.755 101.096C505.259 101.264 505.427 101.656 505.259 102.104C505.147 102.608 504.531 103 503.859 103C501.339 103 498.875 103 496.355 103C495.739 103 495.403 102.608 495.515 102.104C495.571 101.656 495.963 101.264 496.579 101.208C497.363 101.152 498.203 100.928 498.595 100.256C499.099 99.304 498.931 96.896 498.875 95.888L498.539 90.232C498.539 89.952 498.371 89.728 497.979 89.728H489.243C488.851 89.728 488.571 89.896 488.459 90.232L485.995 96C485.379 97.512 484.819 99.08 484.987 99.976C485.099 100.648 485.771 101.04 486.723 101.152C487.283 101.264 487.563 101.6 487.451 102.048C487.339 102.608 486.779 103 486.163 103C485.379 102.944 483.643 102.944 482.803 102.944C481.515 102.944 480.675 102.944 479.779 103C479.051 103 478.659 102.552 478.715 101.992C478.827 101.544 479.163 101.152 479.779 100.984C482.411 100.48 483.307 97.568 484.091 95.776L497.923 63.576C498.147 63.128 498.595 62.792 499.155 62.792C499.659 62.792 499.995 63.128 500.051 63.576ZM563.644 84.464C565.1 75.616 561.18 64.528 549.812 64.696C538.892 64.864 532.564 73.768 531.164 82.224C529.708 91.072 533.516 101.992 544.66 101.992C555.076 101.992 562.02 94.32 563.644 84.464ZM567.396 83.176C565.436 93.984 555.02 103.952 543.596 103.952C532.564 103.952 525.508 94.376 527.524 83.568C529.484 72.76 539.732 62.792 551.268 62.792C562.244 62.792 569.356 72.48 567.396 83.176ZM109.702 128.488L106.79 144.28C106.398 146.352 108.302 147.192 110.262 147.192C114.91 147.192 117.654 141.424 118.382 137.504C119.054 133.64 118.662 127.088 113.118 127.088C112.614 127.088 111.942 127.144 111.27 127.2C110.318 127.312 109.814 127.816 109.702 128.488ZM105.894 149.096L104.214 158.224C103.822 160.52 103.318 162.872 106.062 163.264C106.622 163.376 106.902 163.712 106.79 164.16C106.734 164.664 106.174 165.112 105.502 165.056C104.382 165 102.926 165 101.414 165C100.07 165 98.334 165 97.382 165.112C96.654 165.168 96.206 164.72 96.318 164.16C96.43 163.712 96.766 163.376 97.382 163.264C100.294 162.872 100.686 160.52 101.078 158.224L105.838 132.296C106.286 129.888 106.846 127.872 103.99 127.536C103.374 127.48 103.15 127.088 103.262 126.584C103.374 126.136 103.934 125.744 104.55 125.744C106.454 125.856 107.126 125.856 109.254 125.856C110.486 125.8 112.726 125.688 114.126 125.688C121.014 125.688 122.75 131.848 121.798 137C120.846 142.32 117.374 148.648 109.366 148.648C108.862 148.648 107.798 148.592 106.79 148.48C106.342 148.424 106.006 148.704 105.894 149.096ZM131.518 145.4C136.11 145.4 138.854 140.416 139.638 136.44C140.366 132.52 140.142 127.088 134.206 127.088C133.702 127.088 132.974 127.144 132.526 127.2C131.574 127.312 131.238 127.816 131.126 128.432L128.494 142.824C128.158 144.616 129.782 145.4 131.518 145.4ZM143.054 163.32C143.614 163.376 143.894 163.712 143.838 164.16C143.726 164.664 143.222 165.056 142.662 165.056C142.046 165 141.374 165 140.758 165C140.03 165 139.134 165 138.406 165.056C137.958 165.112 137.566 164.888 137.454 164.552L131.798 147.248C131.686 146.968 131.406 146.8 131.07 146.856C130.174 146.856 129.39 146.8 128.494 146.688C128.102 146.632 127.71 146.912 127.654 147.248L125.638 158.224C125.246 160.52 124.686 162.816 127.542 163.208C128.046 163.32 128.326 163.656 128.27 164.104C128.158 164.608 127.654 165.056 126.926 165.056C125.526 165 124.35 165 122.782 165C121.83 165 120.262 164.944 118.806 165.056C118.078 165.112 117.63 164.664 117.742 164.16C117.854 163.712 118.246 163.32 118.806 163.264C121.83 162.816 122.11 160.464 122.558 158.168L127.262 132.296C127.71 129.888 128.27 127.872 125.414 127.536C124.854 127.48 124.574 127.032 124.686 126.584C124.854 126.08 125.358 125.744 125.974 125.744C127.878 125.8 128.214 125.8 130.342 125.8C131.574 125.8 133.478 125.688 135.158 125.688C142.326 125.688 143.894 131.568 143.054 135.936C142.326 139.912 140.198 144.168 135.494 145.904C135.102 146.072 134.934 146.408 134.99 146.744L140.03 161.472C140.534 162.76 141.598 163.208 143.054 163.32ZM149.98 158.168L154.74 132.464C155.132 130.28 155.58 127.872 152.836 127.536C152.276 127.48 151.996 127.088 152.108 126.64C152.22 126.08 152.724 125.688 153.396 125.744C154.684 125.8 156.252 125.8 157.484 125.8C158.716 125.8 160.284 125.8 161.628 125.744C162.3 125.688 162.636 126.136 162.58 126.64C162.468 127.144 162.02 127.48 161.46 127.536C158.66 127.872 158.268 130.28 157.876 132.464L153.116 158.168C152.724 160.352 152.276 162.872 154.964 163.208C155.524 163.32 155.748 163.656 155.692 164.104C155.58 164.72 154.964 165.056 154.404 165.056C153.116 164.944 151.548 165 150.316 165C149.084 165 147.516 165 146.228 165.056C145.5 165.112 145.108 164.664 145.22 164.16C145.332 163.712 145.668 163.32 146.284 163.208C149.14 162.872 149.588 160.408 149.98 158.168ZM187.222 157.776C186.774 160.52 186.214 162.872 189.686 163.208C190.302 163.264 190.582 163.712 190.47 164.16C190.358 164.664 189.854 165.056 189.182 165.056C186.046 165.056 182.966 165.056 179.83 165.056C179.214 165.056 178.822 164.664 178.878 164.16C178.934 163.712 179.382 163.264 179.998 163.208C183.47 162.816 183.638 160.296 184.142 157.776L188.678 131.4C188.734 131.064 188.286 131.008 188.062 131.288L179.158 144.336C178.934 144.672 178.542 144.84 178.206 144.84C177.814 144.84 177.478 144.672 177.366 144.392L172.214 132.296C172.102 132.016 171.598 132.128 171.542 132.464L166.446 157.944C166.11 159.68 165.438 162.536 167.79 163.152C168.294 163.32 168.462 163.656 168.406 164.104C168.238 164.72 167.678 165.056 167.006 165.056C166.222 165 164.934 165 163.59 165C161.966 165 160.902 165 159.614 165.056C158.942 165.056 158.55 164.608 158.662 164.104C158.774 163.656 159.11 163.264 159.726 163.208C163.534 162.76 163.87 160.576 164.542 157.776L169.694 132.128C170.03 130.336 170.198 127.984 167.846 127.592C167.398 127.48 167.118 127.144 167.174 126.696C167.286 126.136 167.846 125.744 168.518 125.8C169.134 125.8 169.862 125.8 170.534 125.8C171.094 125.8 171.822 125.8 172.494 125.744C172.998 125.744 173.39 125.912 173.558 126.192L179.438 140.64C179.494 140.808 179.83 140.808 179.942 140.64L189.63 126.192C189.854 125.912 190.302 125.744 190.75 125.744C191.534 125.856 192.318 125.856 192.99 125.856C193.55 125.856 194.39 125.856 195.006 125.8C195.734 125.744 196.126 126.136 196.014 126.696C195.902 127.144 195.566 127.48 195.062 127.592C192.43 127.984 191.87 130.224 191.534 132.072L187.222 157.776ZM213.596 156.152C214.1 156.152 214.324 156.544 214.156 156.936C213.484 158.672 212.028 162.536 211.412 164.272C211.244 164.776 210.684 165.112 210.068 165.112C207.156 165.056 206.204 165 203.236 165C200.38 165 197.412 165.056 194.556 165.112C193.94 165.112 193.604 164.72 193.716 164.216C193.772 163.768 194.164 163.376 194.724 163.32C197.244 162.928 197.748 160.856 198.196 158.504L203.012 132.24C203.404 130.056 203.964 127.816 201.332 127.536C200.828 127.48 200.548 127.088 200.604 126.64C200.716 126.08 201.22 125.688 201.78 125.688C204.244 125.8 206.596 125.8 209.284 125.8C212.084 125.8 214.94 125.744 217.572 125.688C218.188 125.688 218.412 126.024 218.356 126.472L217.012 133.864C216.956 134.144 216.62 134.48 216.172 134.48C215.724 134.48 215.5 134.144 215.556 133.864C215.892 130.504 216.676 127.424 211.58 127.424H208.22C207.492 127.424 206.932 127.872 206.82 128.544L204.188 142.992C204.076 143.496 204.3 143.888 204.972 143.888H209.284C211.916 143.888 212.364 141.368 212.7 139.632C212.756 139.352 213.092 139.072 213.54 139.072C213.988 139.072 214.212 139.352 214.156 139.632L212.196 150.16C212.14 150.44 211.804 150.72 211.356 150.72C210.908 150.72 210.684 150.44 210.74 150.104C211.132 148.256 211.86 145.344 208.948 145.344H204.692C204.076 145.344 203.684 145.736 203.572 146.24L201.444 158C200.604 162.48 201.444 163.544 205.028 163.544C210.18 163.544 211.3 160.184 212.7 156.712C212.812 156.432 213.148 156.152 213.596 156.152ZM220.473 158.168L225.233 132.464C225.625 130.28 226.073 127.872 223.329 127.536C222.769 127.48 222.489 127.088 222.601 126.64C222.713 126.08 223.217 125.688 223.889 125.744C225.177 125.8 226.745 125.8 227.977 125.8C229.209 125.8 230.777 125.8 232.121 125.744C232.793 125.688 233.129 126.136 233.073 126.64C232.961 127.144 232.513 127.48 231.953 127.536C229.153 127.872 228.761 130.28 228.369 132.464L223.609 158.168C223.217 160.352 222.769 162.872 225.457 163.208C226.017 163.32 226.241 163.656 226.185 164.104C226.073 164.72 225.457 165.056 224.897 165.056C223.609 164.944 222.041 165 220.809 165C219.577 165 218.009 165 216.721 165.056C215.993 165.112 215.601 164.664 215.713 164.16C215.825 163.712 216.161 163.32 216.777 163.208C219.633 162.872 220.081 160.408 220.473 158.168ZM242.37 145.4C246.962 145.4 249.706 140.416 250.49 136.44C251.218 132.52 250.994 127.088 245.058 127.088C244.554 127.088 243.826 127.144 243.378 127.2C242.426 127.312 242.09 127.816 241.978 128.432L239.346 142.824C239.01 144.616 240.634 145.4 242.37 145.4ZM253.906 163.32C254.466 163.376 254.746 163.712 254.69 164.16C254.578 164.664 254.074 165.056 253.514 165.056C252.898 165 252.226 165 251.61 165C250.882 165 249.986 165 249.258 165.056C248.81 165.112 248.418 164.888 248.306 164.552L242.65 147.248C242.538 146.968 242.258 146.8 241.922 146.856C241.026 146.856 240.242 146.8 239.346 146.688C238.954 146.632 238.562 146.912 238.506 147.248L236.49 158.224C236.098 160.52 235.538 162.816 238.394 163.208C238.898 163.32 239.178 163.656 239.122 164.104C239.01 164.608 238.506 165.056 237.778 165.056C236.378 165 235.202 165 233.634 165C232.682 165 231.114 164.944 229.658 165.056C228.93 165.112 228.482 164.664 228.594 164.16C228.706 163.712 229.098 163.32 229.658 163.264C232.682 162.816 232.962 160.464 233.41 158.168L238.114 132.296C238.562 129.888 239.122 127.872 236.266 127.536C235.706 127.48 235.426 127.032 235.538 126.584C235.706 126.08 236.21 125.744 236.826 125.744C238.73 125.8 239.066 125.8 241.194 125.8C242.426 125.8 244.33 125.688 246.01 125.688C253.178 125.688 254.746 131.568 253.906 135.936C253.178 139.912 251.05 144.168 246.346 145.904C245.954 146.072 245.786 146.408 245.842 146.744L250.882 161.472C251.386 162.76 252.45 163.208 253.906 163.32ZM293.133 146.464C294.589 137.616 290.669 126.528 279.301 126.696C268.381 126.864 262.053 135.768 260.653 144.224C259.197 153.072 263.005 163.992 274.149 163.992C284.565 163.992 291.509 156.32 293.133 146.464ZM296.885 145.176C294.925 155.984 284.509 165.952 273.085 165.952C262.053 165.952 254.997 156.376 257.013 145.568C258.973 134.76 269.221 124.792 280.757 124.792C291.733 124.792 298.845 134.48 296.885 145.176ZM342.097 157.776C341.649 160.52 341.089 162.872 344.561 163.208C345.177 163.264 345.457 163.712 345.345 164.16C345.233 164.664 344.729 165.056 344.057 165.056C340.921 165.056 337.841 165.056 334.705 165.056C334.089 165.056 333.697 164.664 333.753 164.16C333.809 163.712 334.257 163.264 334.873 163.208C338.345 162.816 338.513 160.296 339.017 157.776L343.553 131.4C343.609 131.064 343.161 131.008 342.937 131.288L334.033 144.336C333.809 144.672 333.417 144.84 333.081 144.84C332.689 144.84 332.353 144.672 332.241 144.392L327.089 132.296C326.977 132.016 326.473 132.128 326.417 132.464L321.321 157.944C320.985 159.68 320.313 162.536 322.665 163.152C323.169 163.32 323.337 163.656 323.281 164.104C323.113 164.72 322.553 165.056 321.881 165.056C321.097 165 319.809 165 318.465 165C316.841 165 315.777 165 314.489 165.056C313.817 165.056 313.425 164.608 313.537 164.104C313.649 163.656 313.985 163.264 314.601 163.208C318.409 162.76 318.745 160.576 319.417 157.776L324.569 132.128C324.905 130.336 325.073 127.984 322.721 127.592C322.273 127.48 321.993 127.144 322.049 126.696C322.161 126.136 322.721 125.744 323.393 125.8C324.009 125.8 324.737 125.8 325.409 125.8C325.969 125.8 326.697 125.8 327.369 125.744C327.873 125.744 328.265 125.912 328.433 126.192L334.313 140.64C334.369 140.808 334.705 140.808 334.817 140.64L344.505 126.192C344.729 125.912 345.177 125.744 345.625 125.744C346.409 125.856 347.193 125.856 347.865 125.856C348.425 125.856 349.265 125.856 349.881 125.8C350.609 125.744 351.001 126.136 350.889 126.696C350.777 127.144 350.441 127.48 349.937 127.592C347.305 127.984 346.745 130.224 346.409 132.072L342.097 157.776ZM353.144 158.168L357.904 132.464C358.296 130.28 358.744 127.872 356 127.536C355.44 127.48 355.16 127.088 355.272 126.64C355.384 126.08 355.888 125.688 356.56 125.744C357.848 125.8 359.416 125.8 360.648 125.8C361.88 125.8 363.448 125.8 364.792 125.744C365.464 125.688 365.8 126.136 365.744 126.64C365.632 127.144 365.184 127.48 364.624 127.536C361.824 127.872 361.432 130.28 361.04 132.464L356.28 158.168C355.888 160.352 355.44 162.872 358.128 163.208C358.688 163.32 358.912 163.656 358.856 164.104C358.744 164.72 358.128 165.056 357.568 165.056C356.28 164.944 354.712 165 353.48 165C352.248 165 350.68 165 349.392 165.056C348.664 165.112 348.272 164.664 348.384 164.16C348.496 163.712 348.832 163.32 349.448 163.208C352.304 162.872 352.752 160.408 353.144 158.168ZM381.986 156.152C382.49 156.152 382.714 156.544 382.546 156.992C381.874 158.728 380.418 162.536 379.802 164.272C379.578 164.776 379.074 165.112 378.402 165.112C375.49 165.056 374.594 165 371.626 165C368.714 165 365.634 165.056 362.666 165.112C362.05 165.112 361.714 164.72 361.826 164.216C361.882 163.824 362.274 163.432 362.834 163.32C365.578 162.984 366.25 160.352 366.698 157.944L371.346 132.464C371.738 130.28 372.242 127.872 369.498 127.536C368.938 127.48 368.658 127.088 368.77 126.64C368.826 126.136 369.386 125.688 370.058 125.744C371.346 125.8 372.858 125.8 374.146 125.8C375.378 125.8 376.946 125.856 378.234 125.744C378.906 125.744 379.298 126.136 379.186 126.64C379.13 127.088 378.738 127.48 378.122 127.536C375.322 127.872 374.874 130.28 374.482 132.464L369.778 158.28C369.05 162.2 369.722 163.544 373.362 163.544C378.514 163.544 379.634 160.24 381.09 156.768C381.202 156.432 381.538 156.152 381.986 156.152ZM409.691 163.208C410.251 163.32 410.475 163.656 410.419 164.104C410.307 164.664 409.747 165.056 409.075 165.056C407.787 164.944 406.275 165 404.987 165C403.755 165 402.243 165 400.843 165.056C400.171 165.056 399.779 164.552 399.947 164.048C400.115 163.6 400.451 163.32 401.011 163.208C403.923 162.872 404.315 160.352 404.707 158.168L406.947 145.904C407.059 145.456 406.835 145.064 406.219 145.064H394.627C394.011 145.064 393.675 145.456 393.619 145.904L391.323 158.168C390.931 160.352 390.483 162.872 393.171 163.208C393.731 163.32 393.955 163.656 393.899 164.104C393.787 164.664 393.283 165.056 392.611 165.056C391.323 164.944 389.755 165 388.523 165C387.291 165 385.723 165 384.435 165.056C383.651 165.112 383.259 164.608 383.483 164.048C383.595 163.6 383.931 163.32 384.491 163.208C387.347 162.872 387.795 160.352 388.187 158.168L392.947 132.464C393.339 130.28 393.787 127.816 391.043 127.536C390.483 127.48 390.203 127.088 390.315 126.64C390.427 126.08 390.931 125.688 391.603 125.744C392.891 125.8 394.459 125.8 395.691 125.8C396.923 125.8 398.491 125.8 399.835 125.744C400.507 125.688 400.899 126.136 400.787 126.64C400.675 127.088 400.283 127.48 399.723 127.536C396.867 127.872 396.475 130.28 396.083 132.464L394.179 142.768C394.067 143.216 394.291 143.608 394.907 143.608H406.499C407.115 143.608 407.451 143.216 407.507 142.768L409.411 132.464C409.803 130.28 410.307 127.816 407.563 127.536C407.003 127.48 406.723 127.088 406.835 126.64C406.891 126.08 407.451 125.688 408.123 125.744C409.411 125.8 410.923 125.8 412.211 125.8C413.443 125.8 415.011 125.8 416.355 125.744C417.027 125.688 417.363 126.136 417.251 126.64C417.195 127.088 416.803 127.48 416.243 127.536C413.387 127.872 412.939 130.28 412.547 132.464L407.843 158.168C407.451 160.352 406.891 162.872 409.691 163.208ZM432.448 149.712L431.272 131.288L423.544 149.712C423.432 149.992 423.544 150.216 423.88 150.216H431.944C432.28 150.216 432.448 149.992 432.448 149.712ZM434.016 125.576L435.92 158.672C436.032 160.688 436.144 162.368 438.72 163.096C439.224 163.264 439.392 163.656 439.224 164.104C439.112 164.608 438.496 165 437.824 165H430.32C429.704 165 429.368 164.608 429.48 164.104C429.536 163.656 429.928 163.264 430.544 163.208C431.328 163.152 432.168 162.928 432.56 162.256C433.064 161.304 432.896 158.896 432.84 157.888L432.504 152.232C432.504 151.952 432.336 151.728 431.944 151.728H423.208C422.816 151.728 422.536 151.896 422.424 152.232L419.96 158C419.344 159.512 418.784 161.08 418.952 161.976C419.064 162.648 419.736 163.04 420.688 163.152C421.248 163.264 421.528 163.6 421.416 164.048C421.304 164.608 420.744 165 420.128 165C419.344 164.944 417.608 164.944 416.768 164.944C415.48 164.944 414.64 164.944 413.744 165C413.016 165 412.624 164.552 412.68 163.992C412.792 163.544 413.128 163.152 413.744 162.984C416.376 162.48 417.272 159.568 418.056 157.776L431.888 125.576C432.112 125.128 432.56 124.792 433.12 124.792C433.624 124.792 433.96 125.128 434.016 125.576ZM433.512 113.928C435.136 113.928 435.64 116.616 436.648 116.616C437.488 116.616 438.104 116 438.496 114.936C438.552 114.768 438.664 114.656 438.888 114.656C439.112 114.656 439.224 114.824 439.168 115.048C438.664 116.672 437.544 118.352 436.032 118.352C434.576 118.352 434.184 115.664 432.84 115.664C431.944 115.664 431.216 116.504 430.936 117.456C430.88 117.624 430.712 117.736 430.544 117.736C430.32 117.736 430.208 117.568 430.264 117.4C430.824 115.44 432.112 113.928 433.512 113.928ZM478.851 146.464C480.307 137.616 476.387 126.528 465.019 126.696C454.099 126.864 447.771 135.768 446.371 144.224C444.915 153.072 448.723 163.992 459.867 163.992C470.283 163.992 477.227 156.32 478.851 146.464ZM482.603 145.176C480.643 155.984 470.227 165.952 458.803 165.952C447.771 165.952 440.715 156.376 442.731 145.568C444.691 134.76 454.939 124.792 466.475 124.792C477.451 124.792 484.563 134.48 482.603 145.176Z" fill="#FAF9FA"></path></svg>