<svg xmlns="http://www.w3.org/2000/svg" width="98" height="24" viewBox="0 0 98 24" fill="none"><path d="M26.7705 0.00678239H31.6324V3.90731H35.847V8.83894H31.6324V15.1137C31.6324 16.4975 31.8347 17.2369 32.6035 17.7389C33.2104 18.1324 34.3567 18.2952 35.8605 18.2952L35.8402 23.1793C35.53 23.1929 31.4369 23.3286 30.2298 22.7452C29.0228 22.1618 28.1934 21.2664 27.6404 20.1064C27.0875 18.9464 26.7638 17.5897 26.7638 15.8531V8.83894H23.4326V3.90053L26.7638 0L26.7705 0.00678239Z" fill="white"></path><path d="M20.5333 9.1577C20.2096 8.14695 19.6701 7.25831 18.9149 6.49177C18.1596 5.72523 17.1212 5.1215 15.8062 4.68735C14.4845 4.25321 12.8527 4.03613 10.8904 4.03613C9.55522 4.03613 8.31445 4.1311 7.17484 4.32782C6.03523 4.51776 5.00351 4.76875 4.07968 5.07401C3.47953 5.27073 3.02773 5.48102 2.52198 5.69131V9.47652L5.18558 8.71677C6.66235 8.30975 8.23353 7.93666 9.99353 7.93666C11.9895 7.93666 13.4865 8.42508 14.4171 9.04916C15.1926 9.57149 15.9816 10.2973 16.1097 11.2199L8.95506 11.7083C5.99477 11.9322 3.76275 12.4748 2.259 13.3364C0.755246 14.1979 0 15.6156 0 17.5964V17.7796C0 19.2991 0.579921 20.6626 1.75999 21.6258C4.30221 23.6948 8.27399 23.3488 11.2141 22.5687C12.8864 22.121 14.5722 21.6733 16.049 20.7372L16.3659 23.1792H16.6559L21.0053 23.1928V12.3799C21.0053 11.1588 20.83 10.1142 20.5198 9.15091H20.5333V9.1577ZM16.1164 15.5681C15.8534 16.1786 15.1656 16.7485 14.6059 17.2708C13.9855 17.8542 13.1831 18.329 12.1986 18.6886C11.2208 19.0481 10.0542 19.2245 8.70556 19.2245C7.43109 19.2245 6.48703 19.0481 5.87339 18.6886C5.25301 18.329 4.94956 17.827 4.94956 17.1894V17.0944C4.94956 16.3754 5.25975 15.8598 5.88688 15.5478C6.50726 15.2357 7.59967 15.0119 9.15062 14.8898L16.1164 14.3335V15.5817V15.5681Z" fill="white"></path><path d="M97.056 7.80786C96.4558 6.56647 95.7411 5.56251 94.6824 4.90451C93.6237 4.24651 92.2413 3.9209 90.542 3.9209C89.045 3.9209 87.7907 4.16511 86.786 4.64674C85.7812 5.13515 84.9855 5.77959 84.3921 6.59361C83.8055 7.40763 83.6773 8.20131 83.4144 9.15778H83.2121C82.8614 7.61114 81.9241 6.46472 80.98 5.55573C79.8404 4.46358 78.1951 3.9209 76.0372 3.9209C74.6009 3.9209 73.3804 4.15832 72.3891 4.63995C71.3911 5.12158 70.6021 5.75924 70.0155 6.56648C69.4288 7.37372 69.0242 8.19452 68.8084 9.16457H68.5994V3.98195H63.751V23.1929H68.5994V13.5874C68.5994 10.8062 70.8382 8.85931 73.6029 8.85931C76.3676 8.85931 78.6064 10.8062 78.6064 13.5874V23.1929H83.4548V13.4382C83.4548 10.7451 85.6261 8.86609 88.3032 8.86609C90.9803 8.86609 93.1516 10.7451 93.1516 13.4382V23.1929H98.0001V12.5224C98.0001 10.6976 97.7033 9.17135 97.0492 7.81464H97.056V7.80786Z" fill="white"></path><path d="M58.302 6.39682C56.3397 4.78234 53.5076 3.9751 49.8055 3.9751C46.1035 3.9751 43.2915 4.78234 41.3292 6.39682C39.3669 8.0113 38.3892 10.3245 38.3892 13.3364V13.7841C38.3892 16.8163 39.3669 19.1431 41.3292 20.7575C43.2915 22.372 46.1169 23.1793 49.8055 23.1793C53.4941 23.1793 56.3532 22.372 58.3088 20.7575C60.2643 19.1431 61.2421 16.8163 61.2421 13.7841V13.3364C61.2421 10.3245 60.2643 8.01808 58.302 6.39682ZM57.095 13.7705C57.095 15.2222 56.4611 16.3415 55.1866 17.1284C53.9122 17.9152 52.1185 18.3087 49.8055 18.3087C47.4926 18.3087 45.7056 17.9152 44.4379 17.1284C43.1701 16.3415 42.5363 15.2222 42.5363 13.7705V13.3635C42.5363 11.8983 43.1701 10.779 44.4379 9.99209C45.7056 9.2052 47.4926 8.81175 49.8055 8.81175C52.1185 8.81175 53.9324 9.2052 55.1934 9.99209C56.4611 10.779 57.095 11.8983 57.095 13.3635V13.7705Z" fill="white"></path></svg>